<?xml version="1.0" standalone="no"?>
<!DOCTYPE svg PUBLIC "-//W3C//DTD SVG 1.1//EN" "http://www.w3.org/Graphics/SVG/1.1/DTD/svg11.dtd" >
<svg xmlns="http://www.w3.org/2000/svg" xmlns:xlink="http://www.w3.org/1999/xlink" version="1.1">
<metadata>
Created by FontForge 20170731 at Fri Jun 25 16:17:50 2021
 By Aleksey,,,
Copyright (c) 2013 by Akaki Razmadze. All rights reserved.
</metadata>
<defs>
<font id="ArchyEDT-Bold" horiz-adv-x="1105" >
  <font-face 
    font-family="Archy EDT"
    font-weight="700"
    font-stretch="normal"
    units-per-em="2048"
    panose-1="2 0 0 0 0 0 0 0 0 0"
    ascent="1536"
    descent="-512"
    x-height="1020"
    cap-height="1393"
    bbox="-150.643 -534.174 2894 1974"
    underline-thickness="102"
    underline-position="-307"
    unicode-range="U+0020-FB04"
  />
<missing-glyph horiz-adv-x="1734" 
d="M1374 193q-103 -102 -235.5 -155.5t-274.5 -53.5q-139 0 -271 54t-233 155q-103 101 -156.5 233t-53.5 272q0 139 54 271.5t156 234.5q101 101 233 155t271 54q140 0 274.5 -54t235.5 -155q102 -102 156.5 -235t54.5 -271q0 -140 -54.5 -271.5t-156.5 -233.5zM1350 217
q98 98 150 223.5t52 257.5t-52 258t-150 224t-224.5 149t-261.5 51q-133 0 -257 -51t-222 -149q-100 -100 -151.5 -224.5t-51.5 -257.5t51.5 -258t151.5 -223q98 -98 222.5 -149.5t256.5 -51.5q135 0 261.5 51.5t224.5 149.5zM1071 342l-205 207l-204 -205q-21 -21 -37 -21
t-35 21l-86 86q-34 34 2 68l205 204l-205 207q-21 21 -21.5 36t19.5 34l84 86q20 20 37 20t37 -22l204 -205l205 205q22 22 37.5 23t34.5 -19l86 -84q19 -22 19 -39t-21 -35l-205 -207l205 -204q39 -36 0 -72l-86 -84q-19 -20 -35 -19.5t-35 19.5z" />
    <glyph glyph-name="ff" unicode="ff" horiz-adv-x="1349" 
d="M199 1016h6v121q0 142 110 222.5t330 80.5h19q27 0 39 -12t12 -39v-119q0 -27 -12 -39t-39 -12h-19q-88 0 -129 -27t-41 -84v-92h359v127q0 141 110.5 221t329.5 80h18q27 0 39 -11t12 -38v-119q0 -53 -51 -53h-18q-88 0 -129 -27t-41 -84v-96h170q27 0 39 -10.5
t12 -36.5v-115q0 -27 -12 -39t-39 -12h-170v-750q0 -28 -11.5 -40.5t-37.5 -12.5h-170q-27 0 -39 12.5t-12 40.5v750h-359v-750q0 -28 -11 -40.5t-38 -12.5h-170q-27 0 -39 12.5t-12 40.5v750h-111q-26 0 -37.5 11.5t-11.5 39.5v102q0 26 11 36.5t38 13.5z" />
    <glyph glyph-name="fi" unicode="fi" horiz-adv-x="1218" 
d="M1096 967v-914q0 -29 -10 -41t-37 -12h-170q-28 0 -40 12.5t-12 40.5v750h-358v-750q0 -28 -11 -40.5t-38 -12.5h-170q-27 0 -38 12.5t-11 40.5v750h-111q-28 0 -39.5 11.5t-11.5 39.5v102q0 26 11.5 36.5t39.5 13.5l103 10h8v112q0 143 109.5 223.5t328.5 80.5h393
q28 0 39.5 -12t11.5 -40v-118q0 -28 -11.5 -40t-39.5 -12h-393q-87 0 -128.5 -26.5t-41.5 -83.5v-84h575q28 0 40 -11t12 -38z" />
    <glyph glyph-name="fl" unicode="fl" horiz-adv-x="1218" 
d="M1096 1380v-1327q0 -29 -10 -41t-37 -12h-170q-28 0 -40 12.5t-12 40.5v1157h-188q-87 0 -128.5 -26.5t-41.5 -83.5v-84h170q27 0 39 -10.5t12 -36.5v-115q0 -27 -12 -39t-39 -12h-170v-750q0 -28 -11 -40.5t-38 -12.5h-170q-27 0 -38 12.5t-11 40.5v750h-111
q-28 0 -39.5 11.5t-11.5 39.5v102q0 26 11.5 36.5t39.5 13.5l103 10h8v112q0 143 109.5 223.5t328.5 80.5h405q28 0 40 -12t12 -40z" />
    <glyph glyph-name="ffi" unicode="ffi" horiz-adv-x="1853" 
d="M199 1016h6v121q0 142 110 222.5t330 80.5h19q27 0 39 -12t12 -39v-119q0 -27 -12 -39t-39 -12h-19q-88 0 -129 -27t-41 -84v-92h359v112q0 143 110 223.5t330 80.5h393q28 0 40.5 -12t12.5 -40v-118q0 -28 -12.5 -40t-40.5 -12h-393q-88 0 -129 -26.5t-41 -83.5v-84h575
q29 0 41.5 -11t12.5 -38v-914q0 -28 -11.5 -40.5t-38.5 -12.5h-170q-27 0 -39 12.5t-12 40.5v750h-358v-750q0 -28 -11.5 -40.5t-37.5 -12.5h-170q-27 0 -39 12.5t-12 40.5v750h-359v-750q0 -28 -11 -40.5t-38 -12.5h-170q-27 0 -39 12.5t-12 40.5v750h-111
q-26 0 -37.5 11.5t-11.5 39.5v102q0 26 11 36.5t38 13.5z" />
    <glyph glyph-name="ffl" unicode="ffl" horiz-adv-x="1853" 
d="M199 1016h8v121q0 143 109.5 223t328.5 80h19q28 0 40.5 -12t12.5 -39v-119q0 -27 -12.5 -39t-40.5 -12h-19q-170 0 -170 -111v-92h359v112q0 143 110 223.5t330 80.5h405q54 0 54 -52v-1327q0 -28 -11.5 -40.5t-38.5 -12.5h-170q-27 0 -38 12.5t-11 40.5v1157h-190
q-88 0 -129 -26.5t-41 -83.5v-84h170q27 0 39 -10.5t12 -36.5v-115q0 -27 -12 -39t-39 -12h-170v-750q0 -28 -11 -40.5t-38 -12.5h-170q-51 0 -51 53v750h-359v-750q0 -28 -11 -40.5t-38 -12.5h-170q-27 0 -38 12.5t-11 40.5v750h-111q-28 0 -39.5 11.5t-11.5 39.5v102
q0 26 11.5 36.5t39.5 13.5z" />
    <glyph glyph-name=".notdef" horiz-adv-x="1734" 
d="M1374 193q-103 -102 -235.5 -155.5t-274.5 -53.5q-139 0 -271 54t-233 155q-103 101 -156.5 233t-53.5 272q0 139 54 271.5t156 234.5q101 101 233 155t271 54q140 0 274.5 -54t235.5 -155q102 -102 156.5 -235t54.5 -271q0 -140 -54.5 -271.5t-156.5 -233.5zM1350 217
q98 98 150 223.5t52 257.5t-52 258t-150 224t-224.5 149t-261.5 51q-133 0 -257 -51t-222 -149q-100 -100 -151.5 -224.5t-51.5 -257.5t51.5 -258t151.5 -223q98 -98 222.5 -149.5t256.5 -51.5q135 0 261.5 51.5t224.5 149.5zM1071 342l-205 207l-204 -205q-21 -21 -37 -21
t-35 21l-86 86q-34 34 2 68l205 204l-205 207q-21 21 -21.5 36t19.5 34l84 86q20 20 37 20t37 -22l204 -205l205 205q22 22 37.5 23t34.5 -19l86 -84q19 -22 19 -39t-21 -35l-205 -207l205 -204q39 -36 0 -72l-86 -84q-19 -20 -35 -19.5t-35 19.5z" />
    <glyph glyph-name=".null" horiz-adv-x="0" 
 />
    <glyph glyph-name="nonmarkingreturn" horiz-adv-x="682" 
 />
    <glyph glyph-name="space" unicode=" " horiz-adv-x="397" 
 />
    <glyph glyph-name="exclam" unicode="!" horiz-adv-x="567" 
d="M424 799l-27 -375q-2 -29 -12 -40t-37 -11h-127q-27 0 -37 11t-12 40l-29 375v540q0 54 52 54h180q27 0 38 -12.5t11 -41.5v-540zM420 217v-166q0 -28 -11 -39.5t-38 -11.5h-178q-28 0 -39 11.5t-11 39.5v166q0 28 11 39.5t39 11.5h178q27 0 38 -11.5t11 -39.5z" />
    <glyph glyph-name="quotedbl" unicode="&#x22;" horiz-adv-x="874" 
d="M365 1006q0 -28 -12 -40t-38 -12h-120q-27 0 -37.5 11.5t-12.5 40.5l-22 333q-3 54 49 54h166q50 0 47 -54zM729 1006q0 -28 -11 -40t-38 -12h-119q-27 0 -38 12t-13 40l-21 333q-3 54 50 54h163q53 0 50 -54z" />
    <glyph glyph-name="numbersign" unicode="#" horiz-adv-x="1388" 
d="M188 557h142l43 154h-86q-54 0 -54 49v90q0 26 13 36.5t41 10.5h141l45 160q13 53 64 53h120q51 0 37 -53l-47 -160h252l45 160q16 53 64 53h120q51 0 37 -53l-45 -160h80q27 0 39 -10.5t12 -36.5v-90q0 -49 -51 -49h-135l-43 -154h80q28 0 40.5 -10.5t12.5 -36.5v-90
q0 -27 -12.5 -39t-40.5 -12h-135l-45 -160q-8 -27 -21.5 -39t-40.5 -12h-121q-52 0 -37 51l46 160h-252l-45 -160q-8 -27 -21.5 -39t-40.5 -12h-123q-50 0 -35 51l45 160h-88q-27 0 -39 12t-12 39v90q0 26 12 36.5t39 10.5zM594 711l-45 -154h252l45 154h-252z" />
    <glyph glyph-name="dollar" unicode="$" horiz-adv-x="1097" 
d="M702 911v39q0 84 -149 84q-147 0 -147 -84v-22q0 -50 63 -72l295 -104q197 -70 197 -213v-105q0 -86 -67 -156t-200 -96v-129q0 -28 -10.5 -40.5t-36.5 -12.5h-172q-26 0 -37.5 12.5t-11.5 40.5v125q-147 22 -218 92.5t-71 163.5v47q0 25 10.5 36t36.5 11h152
q26 0 36.5 -11t10.5 -36v-35q0 -86 164 -86q166 0 166 86v35q0 25 -20.5 42t-71.5 36l-297 109q-63 24 -112.5 84.5t-49.5 132.5v65q0 43 14 82.5t43.5 76t82.5 63.5t124 40v127q0 54 49 54h172q26 0 36.5 -13t10.5 -41v-129q130 -27 191 -99t61 -161v-39q0 -27 -10 -37
t-37 -10h-151q-25 0 -35.5 10.5t-10.5 36.5z" />
    <glyph glyph-name="percent" unicode="%" horiz-adv-x="1779" 
d="M137 979v201q0 109 78 169t242 60q319 0 319 -229v-201q0 -229 -319 -229q-164 0 -242 60t-78 169zM557 987v184q0 62 -100 62q-101 0 -101 -62v-184q0 -63 101 -63q100 0 100 63zM1421 219v184q0 62 -98 62q-100 0 -100 -62v-184q0 -63 100 -63q49 0 73.5 14.5
t24.5 48.5zM1004 209v201q0 229 319 229t319 -229v-201q0 -229 -319 -229t-319 229zM1341 1339l-655 -1286q-14 -28 -30.5 -40.5t-43.5 -12.5h-143q-22 0 -28 18t3 35l658 1286q26 54 74 54h141q24 0 30 -16t-6 -38z" />
    <glyph glyph-name="ampersand" unicode="&#x26;" horiz-adv-x="1425" 
d="M616 827h691q27 0 39 -11t12 -38v-121q0 -27 -12 -39t-39 -12h-121v-289q0 -54 -15 -101t-53 -90.5t-97 -74t-153 -49t-215 -18.5q-120 0 -213 18t-151.5 47.5t-95.5 72t-51.5 88t-14.5 99.5v183q0 83 40 141t132 92q-84 28 -119 79.5t-35 133.5v145q0 326 457 326
q106 0 187.5 -18.5t132.5 -49t83.5 -74.5t45 -90.5t12.5 -101.5v-65q0 -27 -10.5 -39.5t-36.5 -12.5h-172q-49 0 -49 52v26q0 76 -45.5 114t-145.5 38q-98 0 -143 -38t-45 -114v-57q0 -77 49 -114.5t151 -37.5zM657 205q261 0 261 151v250h-320q-102 0 -151.5 -36.5
t-49.5 -112.5v-101q0 -151 260 -151z" />
    <glyph glyph-name="quotesingle" unicode="'" horiz-adv-x="507" 
d="M385 1339l-20 -333q-2 -28 -13 -40t-37 -12h-120q-27 0 -37.5 11.5t-12.5 40.5l-22 333q-3 54 49 54h166q50 0 47 -54z" />
    <glyph glyph-name="parenleft" unicode="(" horiz-adv-x="731" 
d="M127 -143v1290q0 143 109.5 223t328.5 80h19q28 0 39.5 -11.5t11.5 -39.5v-119q0 -28 -11.5 -39.5t-39.5 -11.5h-19q-85 0 -123.5 -26.5t-38.5 -84.5v-1233q0 -57 38 -83.5t124 -26.5h19q28 0 39.5 -11.5t11.5 -39.5v-119q0 -28 -11.5 -39.5t-39.5 -11.5h-19
q-219 0 -328.5 80t-109.5 223z" />
    <glyph glyph-name="parenright" unicode=")" horiz-adv-x="731" 
d="M604 1147v-1290q0 -142 -110 -222.5t-328 -80.5h-21q-28 0 -39.5 11.5t-11.5 39.5v119q0 28 11.5 39.5t39.5 11.5h21q85 0 122.5 26t37.5 84v1233q0 58 -37.5 84.5t-122.5 26.5h-21q-28 0 -39.5 11.5t-11.5 39.5v119q0 28 11.5 39.5t39.5 11.5h21q218 0 328 -80.5
t110 -222.5z" />
    <glyph glyph-name="asterisk" unicode="*" horiz-adv-x="1107" 
d="M512 586q-50 0 -47 53l16 248l-217 -142q-46 -29 -69 19l-41 80q-13 24 -8.5 39.5t30.5 27.5l213 99l-213 100q-26 12 -31 27.5t9 40.5l41 77q26 47 69 19l219 -141l-18 266q-1 29 10 40t39 11h88q28 0 39 -11.5t10 -39.5l-20 -260l213 135q46 28 69 -17l41 -79
q24 -47 -22 -68l-213 -100l213 -99q27 -11 31 -27.5t-9 -39.5l-41 -82q-24 -46 -69 -17l-211 134l18 -240q1 -29 -10.5 -41t-38.5 -12h-90z" />
    <glyph glyph-name="plus" unicode="+" horiz-adv-x="1146" 
d="M463 293v289h-291q-27 0 -39 12t-12 39v121q0 27 12 38t39 11h291v291q0 28 10.5 40.5t36.5 12.5h121q27 0 39 -12.5t12 -40.5v-291h291q28 0 40.5 -11t12.5 -38v-121q0 -27 -12.5 -39t-40.5 -12h-291v-289q0 -27 -12 -39t-39 -12h-121q-26 0 -36.5 12t-10.5 39z" />
    <glyph glyph-name="comma" unicode="," horiz-adv-x="544" 
d="M154 80v137q0 28 11 39.5t38 11.5h176q26 0 36.5 -11.5t10.5 -39.5v-151q0 -234 -295 -304q-27 -6 -40.5 0.5t-22.5 32.5l-41 115q-17 48 32 63q54 18 74.5 42.5t20.5 64.5z" />
    <glyph glyph-name="hyphen" unicode="-" horiz-adv-x="892" 
d="M172 700h549q27 0 39 -11t12 -38v-121q0 -49 -51 -49h-549q-51 0 -51 49v121q0 27 12 38t39 11z" />
    <glyph glyph-name="period" unicode="." horiz-adv-x="512" 
d="M393 217v-166q0 -28 -11 -39.5t-38 -11.5h-174q-28 0 -39.5 11.5t-11.5 39.5v166q0 28 11.5 39.5t39.5 11.5h174q27 0 38 -11.5t11 -39.5z" />
    <glyph glyph-name="slash" unicode="/" horiz-adv-x="749" 
d="M721 1378l-406 -1628q-8 -29 -20 -41t-39 -12h-188q-51 0 -39 53l407 1628q12 54 60 54h186q51 0 39 -54z" />
    <glyph glyph-name="zero" unicode="0" horiz-adv-x="964" 
d="M406 -14q-64 0 -109 7t-88 28t-68.5 58t-41 99.5t-15.5 149.5v772q0 71 6.5 121t26.5 95.5t55 72.5t93.5 43t140.5 16h163q80 0 133 -12t99 -47t68 -105t22 -178v-772q0 -71 -7 -121t-27 -95.5t-55.5 -72.5t-93.5 -43t-139 -16h-163zM549 1268h-107q-77 0 -106 -34.5
t-29 -107.5v-811q0 -79 29 -112t88 -33h106q78 0 107 32.5t29 102.5v813q0 80 -29 115t-88 35z" />
    <glyph glyph-name="one" unicode="1" horiz-adv-x="829" 
d="M154 47v86q0 23 13 35t34 12h159v961l-149 -131q-19 -22 -49 -30.5t-47 9.5l-60 68q-41 55 41 114l307 259l-4 -7q13 13 44 16.5t62.5 -4t56 -31t24.5 -58.5l-2 -1166h166q21 0 34 -12t13 -35v-86q0 -47 -47 -47h-549q-47 0 -47 47z" />
    <glyph glyph-name="two" unicode="2" horiz-adv-x="905" 
d="M848 133v-86q0 -47 -47 -47h-664q-22 0 -36 5.5t-21 11t-10 24.5t-3.5 28t-0.5 40q0 73 30.5 143t79 130t107 120.5t117 125t107 133t79 156t30.5 181.5q0 86 -22.5 127t-77.5 41h-119q-39 0 -64 -11.5t-36 -36t-14.5 -48.5t-3.5 -64v-35v-11.5v-13.5t-0.5 -13t-2.5 -14
l-5 -12.5t-8 -12t-12 -9t-16.5 -6.5t-21.5 -2h-92q-11 0 -19.5 2t-15 4.5t-11.5 8t-8.5 9.5t-5.5 12t-3.5 11.5t-2 13t-0.5 12v12.5v9v29q0 71 7 121t27 95.5t55.5 72.5t93.5 43t139 16h143q63 0 109 -7.5t90 -29.5t71 -60t43.5 -101t16.5 -150q-1 -89 -31.5 -178.5
t-78.5 -163.5t-106 -145t-116 -132t-105.5 -114.5t-77.5 -102t-30 -84.5h496q21 0 34 -12t13 -35z" />
    <glyph glyph-name="three" unicode="3" horiz-adv-x="944" 
d="M854 1139v-189q0 -146 -109 -196q57 -17 93 -81t36 -120v-254q0 -92 -18.5 -153.5t-58.5 -96.5t-94 -49t-134 -14h-155q-70 0 -115 4t-86 16.5t-63.5 34t-39.5 58.5t-23.5 88.5t-6.5 125.5l-2 193q0 21 12 34t35 13h125q47 0 47 -47l2 -178q0 -98 22 -130t93 -32h131
q64 0 85 32t21 117v203q0 93 -24 121.5t-105 28.5h-94q-17 0 -26 9t-9 23v121q0 27 35 27h88q71 0 93 22.5t22 77.5v182q0 81 -26 107.5t-116 26.5h-57q-64 0 -91 -31.5t-30 -104.5v-59q0 -47 -47 -47h-123q-23 0 -35 13t-12 34v47q0 104 19.5 170t63.5 101.5t101 48
t146 12.5h76q113 0 181.5 -15t107.5 -54.5t52 -94t13 -145.5z" />
    <glyph glyph-name="four" unicode="4" horiz-adv-x="909" 
d="M551 915q0 49 20.5 69t61.5 20h67q74 0 74 -89l-2 -335q72 0 72 -50v-75q0 -37 -70 -37q0 -50 1 -165.5t1 -164.5q0 -52 -22.5 -70t-67.5 -18h-72q-63 0 -63 88v330h-469q-41 0 -61.5 2.5t-31.5 15.5t-12.5 27t-1.5 49q0 31 13 57l485 842q17 26 40.5 27.5t49.5 -13.5
l62 -28q57 -32 24 -86l-413 -731h315v335z" />
    <glyph glyph-name="five" unicode="5" horiz-adv-x="942" 
d="M750 1253h-56v-2h-332l-18 -329h197q60 0 104 -7t87 -28.5t70 -58.5t43.5 -100t16.5 -150v-236q0 -87 -15.5 -149.5t-41.5 -99.5t-68.5 -58t-87.5 -28t-108 -7h-144q-101 0 -166 22.5t-98.5 71t-45 106.5t-11.5 148v101q0 37 13.5 55t49.5 18h99q36 0 49.5 -18t13.5 -55
v-150q0 -69 27.5 -94t107.5 -25h86q62 0 89.5 25t27.5 102v262q0 83 -30 127.5t-87 44.5h-301q-5 0 -23.5 -0.5t-24.5 0t-20 2t-19 5.5t-13 10.5t-10 17t-2 25.5l36 536q11 52 34.5 74.5t74.5 22.5h496q21 0 34 -12.5t13 -35.5v-86q0 -47 -47 -47z" />
    <glyph glyph-name="six" unicode="6" horiz-adv-x="911" 
d="M678 1059q-23 0 -35 12t-12 31v47q0 68 -31 93.5t-113 25.5h-65q-62 0 -89.5 -25t-27.5 -102v-252q18 16 57.5 24.5t71.5 8.5h113q101 0 166 -22.5t98.5 -71t45 -107t11.5 -148.5l-2 -245q0 -87 -15.5 -149.5t-41.5 -99.5t-68.5 -58t-87.5 -28t-108 -7h-144
q-81 0 -138.5 16t-91.5 42.5t-53.5 73t-25.5 95.5t-6 121l2 772q0 108 21 178t65.5 105t96.5 47t132 12h123q82 0 139.5 -15t93 -41.5t55.5 -71t27 -94t7 -120.5q0 -47 -47 -47h-123zM508 741h-86q-59 0 -86.5 -22t-30.5 -90v-344q0 -69 27.5 -94t107.5 -25h86q62 0 89.5 25
t27.5 102v330q0 69 -27 93.5t-108 24.5z" />
    <glyph glyph-name="seven" unicode="7" horiz-adv-x="901" 
d="M106 1434h642q60 0 84 -20.5t24 -84.5v-41l-463 -1225q-13 -37 -28 -50t-54 -13h-86q-51 0 -64 27t9 65l453 1161h-514q-39 0 -54.5 15t-15.5 55v39q0 38 16 55t51 17z" />
    <glyph glyph-name="eight" unicode="8" horiz-adv-x="931" 
d="M119 1049v98q0 76 13.5 129.5t36.5 87t62 52.5t83 25.5t106 6.5h102q81 0 137 -16t87.5 -40t48.5 -67t21.5 -83t4.5 -101v-99q0 -59 -27.5 -108t-72.5 -78q83 -31 113 -102t30 -181l-2 -245q0 -87 -15.5 -149.5t-41.5 -99.5t-68.5 -58t-87.5 -28t-108 -7h-144
q-101 0 -166 22.5t-98.5 71t-45 106.5t-11.5 148l2 246q0 214 137 270q-96 66 -96 199zM639 623q0 63 -23.5 89t-89.5 29h-26h-62h-20q-62 0 -89.5 -25t-27.5 -102v-329q0 -69 27.5 -94t107.5 -25h86q62 0 89.5 25t27.5 102v330zM500 1268h-62q-57 0 -76.5 -26.5
t-19.5 -100.5v-109q0 -68 20 -93.5t76 -25.5h62q57 0 77.5 26.5t20.5 100.5v109q0 68 -20.5 93.5t-77.5 25.5z" />
    <glyph glyph-name="nine" unicode="9" horiz-adv-x="940" 
d="M150 375h122q23 0 35 -12t12 -31v-47q0 -68 31 -93.5t113 -25.5h65q62 0 89.5 25t27.5 102v252q-18 -16 -57.5 -24.5t-71.5 -8.5h-113q-101 0 -166 22.5t-98.5 71t-45 106.5t-11.5 148l2 246q0 108 22 178t68 105t99 47t133 12h143q81 0 138.5 -16t91.5 -42.5t53.5 -73
t25.5 -95.5t6 -121l-2 -772q0 -108 -21 -178t-65.5 -105t-96.5 -47t-132 -12h-123q-82 0 -139.5 15t-93 41.5t-55.5 71t-27 94t-7 120.5q0 47 48 47zM442 692h86q59 0 86.5 22.5t30.5 90.5v344q0 69 -27.5 94t-107.5 25h-86q-62 0 -89.5 -25t-27.5 -102v-330q0 -69 27.5 -94
t107.5 -25z" />
    <glyph glyph-name="colon" unicode=":" horiz-adv-x="512" 
d="M393 217v-166q0 -28 -11 -39.5t-38 -11.5h-174q-28 0 -39.5 11.5t-11.5 39.5v166q0 28 11.5 39.5t39.5 11.5h174q27 0 38 -11.5t11 -39.5zM393 969v-168q0 -27 -11 -39t-38 -12h-174q-27 0 -39 12t-12 39v168q0 28 11.5 39.5t39.5 11.5h174q27 0 38 -11.5t11 -39.5z" />
    <glyph glyph-name="semicolon" unicode=";" horiz-adv-x="593" 
d="M475 969v-168q0 -27 -10.5 -39t-36.5 -12h-176q-27 0 -39 12t-12 39v168q0 28 11.5 39.5t39.5 11.5h176q26 0 36.5 -11.5t10.5 -39.5zM201 80v137q0 28 11.5 39.5t39.5 11.5h176q26 0 36.5 -11.5t10.5 -39.5v-151q0 -234 -295 -304q-27 -6 -41.5 0.5t-23.5 32.5l-39 115
q-16 48 33 63q54 20 73 43.5t19 63.5z" />
    <glyph glyph-name="less" unicode="&#x3c;" horiz-adv-x="1071" 
d="M897 891l-514 -197l514 -196q19 -7 28 -12.5t16 -16.5t7 -29v-161q0 -30 -13 -45t-38 -5l-729 316q-17 7 -25 12.5t-15 17t-7 29.5v180q0 25 11.5 37t35.5 23l729 315q25 10 38 -4.5t13 -44.5v-162q0 -25 -11.5 -35.5t-39.5 -21.5z" />
    <glyph glyph-name="equal" unicode="=" horiz-adv-x="1189" 
d="M172 979h844q28 0 39.5 -11.5t11.5 -37.5v-123q0 -27 -11.5 -38t-39.5 -11h-844q-27 0 -39 11t-12 38v123q0 49 51 49zM172 559h844q28 0 39.5 -10.5t11.5 -36.5v-123q0 -28 -11.5 -39.5t-39.5 -11.5h-844q-27 0 -39 12t-12 39v123q0 26 12 36.5t39 10.5z" />
    <glyph glyph-name="greater" unicode="&#x3e;" horiz-adv-x="1071" 
d="M688 692l-516 197q-18 7 -27.5 12.5t-16.5 16.5t-7 28v164q0 30 13.5 45.5t37.5 5.5l731 -315q23 -9 34 -20t11 -35v-193q0 -25 -10.5 -35.5t-34.5 -19.5l-731 -316q-23 -10 -37 5.5t-14 43.5v166q0 18 7 29t16 16.5t28 12.5z" />
    <glyph glyph-name="question" unicode="?" horiz-adv-x="1157" 
d="M383 422v141q0 41 10.5 72t31.5 52.5t39.5 34t47.5 26.5l188 96q78 43 78 125v61q0 154 -203 154q-202 0 -202 -154v-80q0 -28 -10.5 -39.5t-36.5 -11.5h-170q-28 0 -40 11.5t-12 39.5v125q0 68 24.5 125.5t77 105.5t147 75.5t222.5 27.5q129 0 224 -27.5t148.5 -75.5
t79 -105.5t26.5 -125.5v-96q0 -233 -191 -317l-117 -54q-47 -22 -66.5 -45t-19.5 -69v-72q0 -28 -10.5 -38.5t-36.5 -10.5h-180q-27 0 -38 11t-11 38zM659 217v-166q0 -28 -10.5 -39.5t-36.5 -11.5h-180q-26 0 -37.5 11.5t-11.5 39.5v166q0 28 11.5 39.5t37.5 11.5h180
q26 0 36.5 -11.5t10.5 -39.5z" />
    <glyph glyph-name="at" unicode="@" horiz-adv-x="1953" 
d="M1335 -307h-358q-151 0 -273 14t-208 37.5t-150 59.5t-102 74.5t-61.5 87t-31.5 93t-8 97.5v718q0 53 8 97.5t31.5 93t61.5 86.5t102 73.5t150 59t208 37.5t273 14t273 -14t208 -37.5t150 -59t102.5 -73.5t62 -86.5t31.5 -93t8 -97.5v-479q0 -152 -90 -239.5t-290 -87.5
q-225 0 -304 127q-144 -127 -323 -127q-254 0 -254 247q0 34 2 52l25 272q12 144 84.5 221.5t203.5 77.5q135 0 277 -100l6 32q5 28 16.5 40t38.5 12h150q49 0 43 -52l-43 -421q-4 -51 -2 -92.5t26 -68t70 -26.5q43 0 67 25t30.5 58.5t6.5 86.5v430q0 51 -14 88.5t-52 70.5
t-102 53.5t-165.5 32t-241.5 11.5q-139 0 -241 -12t-165.5 -32.5t-101.5 -53.5t-52 -70.5t-14 -87.5v-694q0 -51 14 -88.5t52 -71t101.5 -54t165 -32.5t241.5 -12h358q54 0 54 -51v-115q0 -51 -54 -51zM834 586l-17 -174q-5 -44 19 -71.5t84 -27.5q66 0 167 49v13l27 260
q-92 67 -164 67q-61 0 -85.5 -32.5t-30.5 -83.5z" />
    <glyph glyph-name="A" unicode="A" horiz-adv-x="1132" 
d="M477 1393h178q51 0 66 -52l381 -1290q15 -51 -37 -51h-184q-45 0 -60 51l-71 250h-381l-72 -250q-8 -27 -21.5 -39t-39.5 -12h-166q-54 0 -39 51l383 1290q8 27 22 39.5t41 12.5zM688 520l-67 228q-17 54 -37 191t-23 181q-46 -313 -63 -370l-70 -230h260z" />
    <glyph glyph-name="B" unicode="B" horiz-adv-x="1216" 
d="M631 0h-438q-27 0 -38.5 12.5t-11.5 40.5v1286q0 28 11.5 41t38.5 13h374q135 0 233.5 -24t154.5 -67t82 -97.5t26 -121.5v-120q0 -159 -154 -230q105 -37 161 -100.5t56 -147.5v-161q0 -68 -26 -124t-81.5 -102t-154.5 -72t-233 -26zM631 606h-211v-385h211
q105 0 164 38.5t59 113.5v92q0 66 -60 103.5t-163 37.5zM567 1171h-147v-356h153q101 0 158 39t57 115v71q0 73 -55.5 102t-165.5 29z" />
    <glyph glyph-name="C" unicode="C" horiz-adv-x="1165" 
d="M1083 444v-127q0 -54 -14 -101t-49 -90.5t-88.5 -74t-137.5 -49t-192 -18.5t-192 18.5t-137.5 49t-88.5 74t-49 90.5t-14 101v758q0 54 14 101t49 90.5t88.5 74.5t137.5 49.5t192 18.5t192 -18.5t137.5 -49.5t88.5 -74.5t49 -90.5t14 -101v-98q0 -28 -10.5 -39.5
t-36.5 -11.5h-170q-28 0 -39.5 11.5t-11.5 39.5v49q0 154 -209 154q-207 0 -207 -154v-659q0 -154 207 -154q209 0 209 154v77q0 28 11.5 40t39.5 12h170q26 0 36.5 -12t10.5 -40z" />
    <glyph glyph-name="D" unicode="D" horiz-adv-x="1259" 
d="M639 0h-453q-24 0 -33.5 13t-9.5 40v1286q0 28 11.5 41t38.5 13h446q134 0 234 -27.5t156 -75.5t83 -105.5t27 -125.5v-725q0 -68 -27 -125.5t-83 -105.5t-156 -75.5t-234 -27.5zM639 1163h-219v-934h219q106 0 164.5 39.5t58.5 114.5v627q0 75 -58.5 114t-164.5 39z" />
    <glyph glyph-name="E" unicode="E" horiz-adv-x="1048" 
d="M913 0h-720q-27 0 -38.5 12.5t-11.5 40.5v1286q0 28 11.5 41t38.5 13h700q27 0 39 -11.5t12 -38.5v-129q0 -27 -12 -39t-39 -12h-473v-332h438q28 0 40.5 -11t12.5 -38v-123q0 -26 -12.5 -37.5t-40.5 -11.5h-438v-381h493q28 0 40 -11t12 -38v-129q0 -28 -12 -39.5
t-40 -11.5z" />
    <glyph glyph-name="F" unicode="F" horiz-adv-x="1060" 
d="M193 1393h749q27 0 39 -11.5t12 -38.5v-129q0 -27 -12 -39t-39 -12h-522v-332h487q28 0 39.5 -11t11.5 -38v-131q0 -28 -11.5 -39.5t-39.5 -11.5h-487v-547q0 -28 -11 -40.5t-38 -12.5h-178q-27 0 -38.5 12.5t-11.5 40.5v1286q0 28 11.5 41t38.5 13z" />
    <glyph glyph-name="G" unicode="G" horiz-adv-x="1189" 
d="M614 731h418q27 0 39 -11t12 -38v-365q0 -54 -14 -101t-49 -90.5t-88.5 -74t-137.5 -49t-192 -18.5t-192 18.5t-137.5 49t-88.5 74t-49 90.5t-14 101v758q0 54 14 101t49 90.5t88.5 74.5t137.5 49.5t192 18.5t192 -18.5t137.5 -49.5t88.5 -74.5t49 -90.5t14 -101v-82
q0 -27 -10.5 -39t-36.5 -12h-170q-27 0 -39 12t-12 39v33q0 154 -209 154q-207 0 -207 -154v-659q0 -154 207 -154q209 0 209 152v137h-201q-28 0 -40.5 11t-12.5 38v131q0 27 12.5 38t40.5 11z" />
    <glyph glyph-name="H" unicode="H" horiz-adv-x="1282" 
d="M420 1339v-510h442v510q0 29 11 41.5t38 12.5h179q27 0 38 -12.5t11 -41.5v-1286q0 -28 -11 -40.5t-38 -12.5h-179q-27 0 -38 12.5t-11 40.5v547h-442v-547q0 -28 -11 -40.5t-38 -12.5h-178q-27 0 -38.5 12.5t-11.5 40.5v1286q0 28 11.5 41t38.5 13h178q27 0 38 -12.5
t11 -41.5z" />
    <glyph glyph-name="I" unicode="I" horiz-adv-x="561" 
d="M420 1339v-1286q0 -28 -11 -40.5t-38 -12.5h-178q-27 0 -38.5 12.5t-11.5 40.5v1286q0 28 11.5 41t38.5 13h178q27 0 38 -12.5t11 -41.5z" />
    <glyph glyph-name="J" unicode="J" horiz-adv-x="1054" 
d="M305 440v-73q0 -154 176 -154q88 0 126 37.5t38 116.5v972q0 54 49 54h178q27 0 38.5 -13t11.5 -41v-1022q0 -69 -21 -125.5t-69 -105t-137 -75.5t-214 -27q-100 0 -178.5 18.5t-128.5 49t-82.5 74t-45.5 90.5t-13 101v123q0 28 11.5 40t39.5 12h172q27 0 38 -12t11 -40z
" />
    <glyph glyph-name="K" unicode="K" horiz-adv-x="1196" 
d="M686 709l481 -658q15 -19 8 -35t-34 -16h-228q-16 0 -30.5 8.5t-22.5 17.5t-20 25l-385 537h-35v-537q0 -27 -11 -39t-38 -12h-178q-27 0 -38.5 12t-11.5 39v1290q0 27 11.5 39.5t38.5 12.5h178q27 0 38 -12.5t11 -39.5v-550h33l364 550q32 52 82 52h191q27 0 33 -16
t-9 -36z" />
    <glyph glyph-name="L" unicode="L" horiz-adv-x="976" 
d="M420 1339v-1110h457q27 0 39 -11t12 -38v-129q0 -27 -12 -39t-39 -12h-691q-43 0 -43 53v1286q0 28 11.5 41t38.5 13h178q27 0 38 -12.5t11 -41.5z" />
    <glyph glyph-name="M" unicode="M" horiz-adv-x="1527" 
d="M1386 1341v-1290q0 -27 -11 -39t-38 -12h-170q-27 0 -38 12t-11 39v778q0 -1 -7 -24t-15.5 -50.5t-19 -60t-17.5 -51.5l-156 -381q-22 -51 -67 -51h-146q-45 0 -65 51l-174 412q-13 29 -29.5 83t-18.5 68v-774q0 -27 -11 -39t-38 -12h-161q-27 0 -38.5 12t-11.5 39v1290
q0 27 11.5 39.5t38.5 12.5h161q32 0 45 -29l314 -715q11 -24 24 -60t20 -59l7 -24q26 80 53 141l303 721q11 25 47 25h170q27 0 38 -12.5t11 -39.5z" />
    <glyph glyph-name="N" unicode="N" horiz-adv-x="1280" 
d="M1139 1341v-1290q0 -27 -11 -39t-38 -12h-162q-33 0 -47 25l-396 677q-60 101 -82 166v-817q0 -27 -11 -39t-38 -12h-161q-27 0 -38.5 12t-11.5 39v1290q0 27 11.5 39.5t38.5 12.5h161q31 0 43 -21l412 -706q16 -26 33.5 -62t27.5 -59l9 -23v819q0 27 11 39.5t38 12.5
h162q27 0 38 -12.5t11 -39.5z" />
    <glyph glyph-name="O" unicode="O" horiz-adv-x="1239" 
d="M121 317v758q0 68 26.5 125.5t82 105.5t155 75.5t233.5 27.5t233.5 -27.5t155.5 -75.5t82.5 -105.5t26.5 -125.5v-758q0 -68 -26.5 -125.5t-82.5 -105t-155.5 -75t-233.5 -27.5t-233.5 27.5t-155 75t-82 105t-26.5 125.5zM840 367v659q0 75 -58.5 114.5t-163.5 39.5
q-104 0 -161.5 -39.5t-57.5 -114.5v-659q0 -75 57.5 -114.5t161.5 -39.5q105 0 163.5 39.5t58.5 114.5z" />
    <glyph glyph-name="P" unicode="P" horiz-adv-x="1187" 
d="M623 494h-203v-441q0 -28 -11 -40.5t-38 -12.5h-178q-27 0 -38.5 12.5t-11.5 40.5v1286q0 28 11.5 41t38.5 13h430q134 0 233 -27.5t154.5 -75.5t81.5 -105.5t26 -125.5v-232q0 -54 -15.5 -101t-52 -90.5t-92.5 -74t-141.5 -49t-193.5 -18.5zM623 1163h-203v-440h203
q104 0 162.5 38.5t58.5 112.5v136q0 75 -58 114t-163 39z" />
    <glyph glyph-name="Q" unicode="Q" horiz-adv-x="1236" 
d="M1116 1075v-758q0 -109 -69 -192.5t-216 -118.5l220 -194q41 -38 6 -72l-90 -96q-15 -18 -33.5 -19.5t-36.5 15.5l-377 350q-207 18 -303 108t-96 219v758q0 68 26.5 125.5t82 105.5t155 75.5t233.5 27.5t233.5 -27.5t155.5 -75.5t82.5 -105.5t26.5 -125.5zM399 1032
v-672q0 -75 57.5 -114t161.5 -39q105 0 163.5 39t58.5 114v672q0 75 -58.5 114.5t-163.5 39.5q-104 0 -161.5 -39.5t-57.5 -114.5z" />
    <glyph glyph-name="R" unicode="R" horiz-adv-x="1228" 
d="M623 530h-203v-477q0 -28 -11 -40.5t-38 -12.5h-178q-27 0 -38.5 12.5t-11.5 40.5v1286q0 28 11.5 41t38.5 13h430q134 0 233 -27.5t154.5 -75.5t81.5 -105.5t26 -125.5v-195q0 -98 -54 -175.5t-171 -119.5l221 -516q10 -24 -4 -38.5t-43 -14.5h-180q-14 0 -23.5 7.5
t-14 16t-13.5 29.5l-201 477h-12zM623 1163h-203v-403h203q105 0 163 39t58 114v97q0 75 -58 114t-163 39z" />
    <glyph glyph-name="S" unicode="S" horiz-adv-x="1171" 
d="M797 991v47q0 148 -199 148q-201 0 -201 -148v-30q0 -80 84 -111l357 -127q111 -39 176 -112.5t65 -182.5v-158q0 -54 -15 -101t-51 -90.5t-90.5 -74t-139 -49t-191.5 -18.5q-132 0 -230 27.5t-153 75t-81 105t-26 125.5v129q0 54 50 54h172q27 0 38 -12.5t11 -41.5v-92
q0 -147 217 -147t217 147v66q0 30 -12.5 53t-41.5 41.5t-52 29t-68 27.5l-318 119q-77 29 -131.5 102t-54.5 162v121q0 69 23 125.5t74 105t145 76t223 27.5t224 -27.5t147.5 -75.5t77 -105.5t24.5 -125.5v-84q0 -27 -12 -39t-39 -12h-172q-26 0 -36.5 12t-10.5 39z" />
    <glyph glyph-name="T" unicode="T" horiz-adv-x="1009" 
d="M74 1393h860q27 0 39 -11.5t12 -38.5v-129q0 -27 -12 -39t-39 -12h-291v-1110q0 -28 -11 -40.5t-38 -12.5h-178q-27 0 -39 12.5t-12 40.5v1110h-291q-28 0 -39.5 11.5t-11.5 39.5v129q0 28 11.5 39t39.5 11z" />
    <glyph glyph-name="U" unicode="U" horiz-adv-x="1259" 
d="M410 1339v-972q0 -75 57.5 -114.5t161.5 -39.5q105 0 164 39.5t59 114.5v972q0 29 11 41.5t38 12.5h178q27 0 37 -12.5t10 -41.5v-1022q0 -68 -26.5 -125.5t-82 -105t-155 -75t-233.5 -27.5t-233.5 27.5t-155.5 75t-82.5 105t-26.5 125.5v1022q0 28 12 41t39 13h178
q50 0 50 -54z" />
    <glyph glyph-name="V" unicode="V" horiz-adv-x="1132" 
d="M655 0h-178q-27 0 -41 12t-22 39l-383 1290q-16 52 39 52h194q25 0 38.5 -13t21.5 -39l198 -696q14 -49 26 -123.5t18 -123.5l5 -50q25 186 56 295l198 698q8 27 22 39.5t40 12.5h178q53 0 37 -52l-381 -1290q-15 -51 -66 -51z" />
    <glyph glyph-name="W" unicode="W" horiz-adv-x="1716" 
d="M1016 1341l172 -696q20 -89 33 -203q19 136 36 201l177 698q13 52 59 52h156q52 0 39 -52l-326 -1290q-12 -51 -64 -51h-174q-45 0 -57 51l-180 713q-19 71 -29 186q-2 -23 -12 -91t-17 -95l-180 -713q-12 -51 -63 -51h-174q-46 0 -58 51l-325 1290q-13 52 39 52h182
q46 0 59 -52l172 -698q8 -34 16 -77t13 -69l4 -26q10 68 37 172l176 698q13 52 61 52h166q49 0 62 -52z" />
    <glyph glyph-name="X" unicode="X" horiz-adv-x="1175" 
d="M733 715l385 -664q12 -19 6 -35t-32 -16h-205q-44 0 -74 51l-246 422l-223 -422q-26 -51 -74 -51h-192q-17 0 -24 9.5t-5.5 22.5t8.5 27l371 660l-356 616q-15 23 -10.5 40.5t30.5 17.5h205q46 0 76 -52l227 -393l213 393q27 52 74 52h190q25 0 31.5 -15t-6.5 -37z" />
    <glyph glyph-name="Y" unicode="Y" horiz-adv-x="1116" 
d="M330 1341l194 -467q26 -70 35 -108q16 65 37 108l217 467q11 26 23 39t36 13h177q27 0 37 -13.5t-1 -38.5l-387 -809v-481q0 -27 -11 -39t-38 -12h-178q-27 0 -39 12t-12 39v449l-389 841q-11 23 -1 37.5t36 14.5h202q42 0 62 -52z" />
    <glyph glyph-name="Z" unicode="Z" horiz-adv-x="1017" 
d="M154 1393h729q28 0 40.5 -11.5t12.5 -38.5v-126q0 -21 -12 -41l-525 -947h521q27 0 39 -11t12 -38v-129q0 -27 -12 -39t-39 -12h-801q-28 0 -39.5 11.5t-11.5 39.5v129q0 19 8 35l526 948h-448q-52 0 -52 51v129q0 27 12.5 38.5t39.5 11.5z" />
    <glyph glyph-name="bracketleft" unicode="[" horiz-adv-x="806" 
d="M127 -379v1757q0 54 49 54h469q27 0 39 -11.5t12 -38.5v-129q0 -27 -12 -39t-39 -12h-242v-1405h242q27 0 39 -12t12 -39v-129q0 -27 -12 -38t-39 -11h-469q-26 0 -37.5 12.5t-11.5 40.5z" />
    <glyph glyph-name="backslash" unicode="\" horiz-adv-x="749" 
d="M436 -250l-407 1628q-12 54 39 54h188q26 0 39.5 -13t19.5 -41l406 -1628q12 -53 -39 -53h-186q-27 0 -40.5 12.5t-19.5 40.5z" />
    <glyph glyph-name="bracketright" unicode="]" horiz-adv-x="806" 
d="M680 1378v-1757q0 -28 -11.5 -40.5t-37.5 -12.5h-467q-28 0 -40.5 11t-12.5 38v129q0 27 12.5 39t40.5 12h239v1405h-239q-28 0 -40.5 12t-12.5 39v129q0 27 12.5 38.5t40.5 11.5h467q49 0 49 -54z" />
    <glyph glyph-name="asciicircum" unicode="^" horiz-adv-x="1181" 
d="M786 616l-198 512l-195 -512q-10 -29 -21.5 -41t-35.5 -12h-162q-29 0 -44 14t-5 39l313 730q7 16 12.5 24.5t16.5 15.5t27 7h190q16 0 26.5 -7t16 -15t12.5 -25l316 -730q10 -25 -5 -39t-44 -14h-164q-24 0 -34.5 12t-21.5 41z" />
    <glyph glyph-name="underscore" unicode="_" horiz-adv-x="933" 
d="M94 -152h746q28 0 39.5 -10.5t11.5 -36.5v-123q0 -28 -11.5 -39.5t-39.5 -11.5h-746q-27 0 -39 12t-12 39v123q0 26 12 36.5t39 10.5z" />
    <glyph glyph-name="grave" unicode="`" horiz-adv-x="643" 
d="M270 1182l-147 217q-15 22 -8.5 36.5t32.5 14.5h179q48 0 71 -51l99 -201q22 -51 -27 -51h-133q-41 0 -66 35z" />
    <glyph glyph-name="a" unicode="a" horiz-adv-x="1058" 
d="M123 715v26q0 295 414 295q216 0 313.5 -76t97.5 -219v-688q0 -28 -11.5 -40.5t-37.5 -12.5h-154q-26 0 -36 11.5t-13 41.5l-4 43q-135 -112 -303 -112q-143 0 -219 73.5t-76 182.5v92q0 109 81 183.5t226 74.5h283v131q0 59 -34 87t-120 28t-121.5 -25t-35.5 -82v-14
q0 -28 -11.5 -39.5t-37.5 -11.5h-152q-27 0 -38 11.5t-11 39.5zM459 197q107 0 225 88v116h-229q-56 0 -77.5 -24t-21.5 -68v-33q0 -79 103 -79z" />
    <glyph glyph-name="b" unicode="b" 
d="M330 0h-158q-27 0 -39 12.5t-12 40.5v1325q0 28 12 41t39 13h170q26 0 36.5 -13t10.5 -41v-452q144 110 322 110q148 0 222.5 -79t74.5 -220v-454q0 -141 -74.5 -220t-222.5 -79q-184 0 -328 114l-4 -45q-3 -30 -13 -41.5t-36 -11.5zM737 326v370q0 48 -23 77.5t-87 29.5
q-116 0 -238 -94v-398q122 -94 238 -94q64 0 87 29.5t23 79.5z" />
    <glyph glyph-name="c" unicode="c" horiz-adv-x="1007" 
d="M522 1036q216 0 318 -79t102 -222v-35q0 -27 -11 -38t-38 -11h-158q-28 0 -39.5 11t-11.5 38v15q0 58 -35.5 83t-122.5 25q-86 0 -121.5 -25t-35.5 -83v-408q0 -58 35.5 -84t121.5 -26t122 26t36 84v31q0 28 11.5 39.5t39.5 11.5h158q26 0 37.5 -11.5t11.5 -39.5v-51
q0 -144 -102.5 -223.5t-319.5 -79.5q-420 0 -420 303v448q0 143 102 222t320 79z" />
    <glyph glyph-name="d" unicode="d" 
d="M727 53l-4 45q-144 -114 -326 -114q-148 0 -222.5 79t-74.5 220v454q0 141 74.5 220t222.5 79q176 0 320 -110v452q0 29 11 41.5t38 12.5h170q49 0 49 -54v-1325q0 -28 -11.5 -40.5t-37.5 -12.5h-158q-27 0 -37.5 12t-13.5 41zM369 696v-370q0 -50 23.5 -79.5t88.5 -29.5
q114 0 236 94v398q-122 94 -236 94q-65 0 -88.5 -29.5t-23.5 -77.5z" />
    <glyph glyph-name="e" unicode="e" horiz-adv-x="1021" 
d="M932 735v-237q0 -25 -10.5 -36t-34.5 -11h-525v-152q0 -57 36.5 -85t123.5 -28t123.5 28t36.5 85v10q0 27 12 39t39 12h144q51 0 51 -51v-22q0 -146 -96 -224.5t-312 -78.5q-420 0 -420 303v448q0 143 102 222t320 79q410 0 410 -301zM362 721v-90h320v90q0 113 -160 113
q-85 0 -122.5 -28.5t-37.5 -84.5z" />
    <glyph glyph-name="f" unicode="f" horiz-adv-x="714" 
d="M193 1016h6v127q0 141 110.5 221t329.5 80h18q27 0 39.5 -11t12.5 -38v-119q0 -53 -52 -53h-18q-88 0 -129 -27t-41 -84v-96h170q27 0 39 -10.5t12 -36.5v-115q0 -27 -12 -39t-39 -12h-170v-750q0 -28 -11 -40.5t-38 -12.5h-170q-27 0 -39 12.5t-12 40.5v750h-111
q-26 0 -37.5 11.5t-11.5 39.5v102q0 26 11 36.5t38 13.5z" />
    <glyph glyph-name="g" unicode="g" 
d="M397 -16q-148 0 -222.5 79t-74.5 220v454q0 141 74.5 220t222.5 79q185 0 328 -118l4 51q3 29 12.5 40t36.5 11h158q26 0 37.5 -11.5t11.5 -39.5v-1080q0 -141 -109.5 -221t-328.5 -80h-289q-28 0 -39.5 11t-11.5 39v118q0 28 12 41t39 13h289q87 0 128.5 26.5t41.5 83.5
v172q-148 -108 -320 -108zM369 696v-370q0 -50 23.5 -79.5t88.5 -29.5q114 0 236 94v398q-122 94 -236 94q-65 0 -88.5 -29.5t-23.5 -77.5z" />
    <glyph glyph-name="h" unicode="h" horiz-adv-x="1116" 
d="M389 1378v-448q139 106 322 106q138 0 217.5 -76t79.5 -198v-709q0 -28 -12 -40.5t-40 -12.5h-165q-54 0 -54 53v641q0 58 -23.5 83.5t-86.5 25.5q-118 0 -238 -92v-658q0 -28 -10.5 -40.5t-36.5 -12.5h-170q-27 0 -39 12.5t-12 40.5v1325q0 28 12 41t39 13h170
q26 0 36.5 -13t10.5 -41z" />
    <glyph glyph-name="i" unicode="i" horiz-adv-x="512" 
d="M389 969v-916q0 -28 -10.5 -40.5t-36.5 -12.5h-170q-27 0 -39 12.5t-12 40.5v916q0 28 11.5 39.5t39.5 11.5h170q26 0 36.5 -11.5t10.5 -39.5zM389 1378v-176q0 -27 -10.5 -38t-36.5 -11h-170q-28 0 -39.5 11.5t-11.5 37.5v176q0 28 12 41t39 13h170q26 0 36.5 -13
t10.5 -41z" />
    <glyph glyph-name="j" unicode="j" horiz-adv-x="509" 
d="M389 1378v-176q0 -27 -10.5 -38t-36.5 -11h-172q-26 0 -37.5 11.5t-11.5 37.5v176q0 54 49 54h172q26 0 36.5 -13t10.5 -41zM389 969v-1080q0 -141 -109.5 -221t-328.5 -80h-19q-28 0 -39.5 11t-11.5 39v118q0 28 12 41t39 13h19q87 0 128.5 26.5t41.5 83.5v1049
q0 28 11 39.5t38 11.5h170q26 0 37.5 -11.5t11.5 -39.5z" />
    <glyph glyph-name="k" unicode="k" horiz-adv-x="1013" 
d="M647 580l359 -529q13 -19 6.5 -35t-31.5 -16h-186q-40 0 -74 51l-287 418h-45v-418q0 -27 -10.5 -39t-36.5 -12h-170q-27 0 -39 12t-12 39v1329q0 52 51 52h170q26 0 36.5 -12.5t10.5 -39.5v-708h45l254 297q15 17 24 25.5t25.5 17t32.5 8.5h184q26 0 33 -16t-8 -35z" />
    <glyph glyph-name="l" unicode="l" horiz-adv-x="512" 
d="M389 1378v-1325q0 -28 -10.5 -40.5t-36.5 -12.5h-170q-27 0 -39 12.5t-12 40.5v1325q0 28 12 41t39 13h170q26 0 36.5 -13t10.5 -41z" />
    <glyph glyph-name="m" unicode="m" horiz-adv-x="1710" 
d="M172 1020h158q27 0 37 -11t12 -38l2 -49q133 114 317 114q94 0 162 -36.5t101 -100.5q28 25 49.5 41.5t65 42.5t101.5 39.5t126 13.5q138 0 217 -75.5t79 -198.5v-709q0 -28 -11.5 -40.5t-37.5 -12.5h-168q-27 0 -39 12.5t-12 40.5v641q0 58 -24 83.5t-86 25.5
q-50 0 -101 -18.5t-77.5 -36t-47.5 -35.5v-660q0 -28 -12 -40.5t-39 -12.5h-166q-53 0 -53 53v641q0 58 -23.5 83.5t-87.5 25.5q-122 0 -225 -92v-658q0 -28 -10.5 -40.5t-36.5 -12.5h-170q-27 0 -39 12.5t-12 40.5v918q0 26 11.5 37.5t39.5 11.5z" />
    <glyph glyph-name="n" unicode="n" horiz-adv-x="1116" 
d="M172 1020h158q27 0 37 -11t12 -38l4 -49q138 114 328 114q138 0 217.5 -76t79.5 -198v-709q0 -28 -12 -40.5t-40 -12.5h-165q-54 0 -54 53v641q0 58 -23.5 83.5t-86.5 25.5q-118 0 -238 -92v-658q0 -28 -10.5 -40.5t-36.5 -12.5h-170q-27 0 -39 12.5t-12 40.5v918
q0 26 11.5 37.5t39.5 11.5z" />
    <glyph glyph-name="o" unicode="o" horiz-adv-x="1085" 
d="M100 287v448q0 141 111.5 221t331.5 80t331 -80t111 -221v-448q0 -142 -111 -222.5t-331 -80.5t-331.5 80.5t-111.5 222.5zM717 309v404q0 110 -174 110t-174 -110v-404q0 -112 174 -112t174 112z" />
    <glyph glyph-name="p" unicode="p" 
d="M172 1020h158q27 0 37 -11t12 -40l4 -49q147 116 328 116q148 0 222.5 -79t74.5 -220v-454q0 -141 -74.5 -220t-222.5 -79q-174 0 -322 108v-452q0 -28 -10.5 -40t-36.5 -12h-170q-28 0 -39.5 12t-11.5 40v1329q0 28 11.5 39.5t39.5 11.5zM737 326v370q0 48 -23 77.5
t-87 29.5q-116 0 -238 -94v-398q122 -94 238 -94q64 0 87 29.5t23 79.5z" />
    <glyph glyph-name="q" unicode="q" 
d="M723 920l4 49q3 29 13.5 40t37.5 11h158q26 0 37.5 -11.5t11.5 -39.5v-1329q0 -28 -11.5 -40t-37.5 -12h-170q-27 0 -38 12t-11 40v452q-148 -108 -320 -108q-148 0 -222.5 79t-74.5 220v454q0 141 74.5 220t222.5 79q179 0 326 -116zM369 696v-370q0 -50 23.5 -79.5
t88.5 -29.5q114 0 236 94v398q-122 94 -236 94q-65 0 -88.5 -29.5t-23.5 -77.5z" />
    <glyph glyph-name="r" unicode="r" horiz-adv-x="759" 
d="M684 1036q28 0 40.5 -11.5t12.5 -37.5v-131q0 -27 -12.5 -39t-40.5 -14q-175 -12 -295 -121v-629q0 -28 -10.5 -40.5t-36.5 -12.5h-170q-27 0 -39 12.5t-12 40.5v918q0 26 11.5 37.5t39.5 11.5h158q27 0 37 -11t12 -38l6 -72q127 137 299 137z" />
    <glyph glyph-name="s" unicode="s" horiz-adv-x="966" 
d="M643 725v39q0 84 -149 84q-148 0 -148 -84v-23q0 -49 64 -71l295 -105q196 -69 196 -213v-104q0 -51 -23.5 -97t-71.5 -84t-130 -60.5t-189 -22.5t-188.5 22.5t-128 61t-69.5 84t-23 96.5v47q0 25 10.5 36t36.5 11h151q26 0 37 -11t11 -36v-35q0 -86 163 -86
q166 0 166 86v35q0 25 -20.5 42t-71.5 36l-297 108q-63 24 -112.5 84.5t-49.5 132.5v66q0 52 20.5 98t64 86.5t123 64t186.5 23.5q106 0 185 -23.5t122 -64t63.5 -86.5t20.5 -98v-39q0 -27 -10 -37t-37 -10h-152q-25 0 -35 10.5t-10 36.5z" />
    <glyph glyph-name="t" unicode="t" horiz-adv-x="743" 
d="M451 1016h186q27 0 39 -10.5t12 -36.5v-115q0 -27 -12 -39t-39 -12h-186v-471q0 -57 38.5 -84t124.5 -27h45q28 0 40 -11.5t12 -39.5v-119q0 -28 -12 -39.5t-40 -11.5h-86q-148 0 -235.5 35t-122.5 99.5t-35 168.5v500h-100q-26 0 -37.5 11.5t-11.5 39.5v102
q0 26 11 36.5t38 13.5l94 10h6v196q0 28 11.5 40t39.5 12h170q27 0 38.5 -12t11.5 -40v-196z" />
    <glyph glyph-name="u" unicode="u" horiz-adv-x="1103" 
d="M725 51l-4 45q-126 -112 -315 -112q-137 0 -216 76t-79 198v711q0 28 11.5 39.5t37.5 11.5h168q27 0 39 -12t12 -39v-643q0 -58 24 -83.5t86 -25.5q114 0 226 90v662q0 28 11 39.5t38 11.5h170q26 0 37.5 -11.5t11.5 -39.5v-918q0 -28 -11.5 -39.5t-37.5 -11.5h-158
q-27 0 -37.5 11t-13.5 40z" />
    <glyph glyph-name="v" unicode="v" horiz-adv-x="970" 
d="M575 0h-194q-26 0 -34.5 9t-18.5 38l-305 922q-9 25 5 38t42 13h176q26 0 37 -12t20 -39l150 -465q19 -64 32 -189q13 108 41 187l162 467q9 27 20 39t37 12h156q29 0 43.5 -13t5.5 -38l-323 -922q-10 -29 -18.5 -38t-33.5 -9z" />
    <glyph glyph-name="w" unicode="w" horiz-adv-x="1466" 
d="M1444 969l-262 -922q-8 -28 -17.5 -37.5t-34.5 -9.5h-202q-26 0 -36.5 10.5t-17.5 36.5l-114 485q-19 78 -19 109q0 -1 -4 -18.5t-10 -42.5t-12 -48l-142 -485q-7 -26 -16.5 -36.5t-34.5 -10.5h-198q-26 0 -37 10.5t-17 36.5l-247 922q-7 25 6.5 38t42.5 13h161
q26 0 38.5 -12.5t19.5 -38.5l141 -537q4 -19 8 -42t6 -38.5t3 -17.5q0 14 24 98l150 537q7 26 18.5 38.5t36.5 12.5h164q47 0 57 -51l125 -537l8.5 -42.5t6.5 -36.5t3 -17q0 6 23 96l139 537q7 26 19.5 38.5t38.5 12.5h135q28 0 41 -13t6 -38z" />
    <glyph glyph-name="x" unicode="x" horiz-adv-x="972" 
d="M627 512l307 -461q13 -19 6 -35t-33 -16h-184q-39 0 -72 51l-188 279l-180 -279q-15 -24 -31 -37.5t-41 -13.5h-164q-25 0 -31 16t7 35l313 469l-299 449q-15 20 -9 35.5t33 15.5h185q25 0 41.5 -12.5t34.5 -38.5l178 -267l168 267q32 51 73 51h164q26 0 32.5 -15.5
t-7.5 -35.5z" />
    <glyph glyph-name="y" unicode="y" horiz-adv-x="970" 
d="M297 969l154 -469q8 -25 14.5 -56t10 -53t6.5 -42t3 -21q0 1 3 13.5t6.5 29.5t8.5 37.5t12 43t13 40.5l162 477q8 27 19 39t36 12h156q29 0 43.5 -13.5t5.5 -37.5l-452 -1329q-15 -52 -58 -52h-123q-29 0 -42.5 13.5t-6.5 38.5l101 333l-346 996q-9 24 5 37.5t42 13.5
h170q26 0 37 -12t20 -39z" />
    <glyph glyph-name="z" unicode="z" horiz-adv-x="913" 
d="M152 1020h620q28 0 39.5 -11t11.5 -38v-119q0 -23 -16 -45l-414 -588h416q28 0 39.5 -11t11.5 -38v-121q0 -26 -11.5 -37.5t-39.5 -11.5h-692q-51 0 -51 49v121q0 23 16 45l410 586h-340q-54 0 -54 49v121q0 27 12.5 38t41.5 11z" />
    <glyph glyph-name="braceleft" unicode="{" horiz-adv-x="921" 
d="M317 731v416q0 143 109.5 223t329.5 80h18q28 0 39.5 -11.5t11.5 -39.5v-119q0 -28 -11.5 -39.5t-39.5 -11.5h-18q-85 0 -123.5 -26.5t-38.5 -84.5v-416q0 -142 -127 -192q127 -53 127 -195v-430q0 -57 38 -83.5t124 -26.5h18q28 0 39.5 -11.5t11.5 -39.5v-119
q0 -28 -11.5 -39.5t-39.5 -11.5h-18q-220 0 -329.5 80t-109.5 223v432q0 57 -37 83.5t-120 26.5h-2q-28 0 -40 12t-12 40v116q0 54 52 54h2q83 0 120 26.5t37 83.5z" />
    <glyph glyph-name="bar" unicode="|" horiz-adv-x="561" 
d="M420 1378v-1757q0 -28 -11 -40.5t-38 -12.5h-178q-27 0 -38.5 12.5t-11.5 40.5v1757q0 28 11.5 41t38.5 13h178q27 0 38 -12.5t11 -41.5z" />
    <glyph glyph-name="braceright" unicode="}" horiz-adv-x="921" 
d="M604 1147v-416q0 -57 37.5 -83.5t120.5 -26.5h2q51 0 51 -54v-116q0 -52 -51 -52h-2q-83 0 -120.5 -26.5t-37.5 -83.5v-432q0 -143 -109.5 -223t-328.5 -80h-21q-27 0 -39 12t-12 39v119q0 27 12 39t39 12h21q86 0 124 26.5t38 83.5v430q0 142 125 195q-125 50 -125 192
v416q0 58 -38.5 84.5t-123.5 26.5h-21q-27 0 -39 12t-12 39v119q0 27 12 39t39 12h21q219 0 328.5 -80t109.5 -223z" />
    <glyph glyph-name="asciitilde" unicode="~" horiz-adv-x="1032" 
d="M354 535q-16 0 -26 -10t-12.5 -20t-6.5 -34l-2 -12q-4 -27 -16.5 -36t-38.5 -9h-88q-47 0 -41 57l8 98q7 91 57 136t115 45q55 0 111 -23l184 -84q60 -27 82 -27q20 0 27 14t14 50l2 10q4 26 16.5 35.5t38.5 9.5h88q27 0 36.5 -14.5t6.5 -44.5l-10 -84
q-11 -97 -58.5 -145t-109.5 -48q-57 0 -125 29l-186 86q-44 21 -66 21z" />
    <glyph glyph-name="exclamdown" unicode="&#xa1;" horiz-adv-x="567" 
d="M141 221l27 375q2 29 12 40t37 11h127q27 0 37 -11t12 -40l29 -375v-540q0 -28 -12 -41t-39 -13h-181q-27 0 -38 12.5t-11 41.5v540zM145 803v166q0 28 11 39.5t39 11.5h178q27 0 38 -11.5t11 -39.5v-166q0 -28 -11 -39.5t-38 -11.5h-178q-28 0 -39 11.5t-11 39.5z" />
    <glyph glyph-name="cent" unicode="&#xa2;" horiz-adv-x="1116" 
d="M698 1339v-127q281 -47 281 -290v-35q0 -27 -11 -38t-38 -11h-158q-28 0 -39.5 11t-11.5 38v14q0 58 -36 83.5t-122 25.5t-121.5 -25.5t-35.5 -83.5v-407q0 -58 35.5 -84.5t121.5 -26.5t122 26.5t36 84.5v30q0 28 11.5 39.5t39.5 11.5h158q26 0 37.5 -11.5t11.5 -39.5
v-51q0 -246 -281 -293v-127q0 -28 -11 -40.5t-38 -12.5h-170q-27 0 -38 12.5t-11 40.5v125q-293 41 -293 295v449q0 248 293 292v125q0 29 11 41.5t38 12.5h170q27 0 38 -12.5t11 -41.5z" />
    <glyph glyph-name="sterling" unicode="&#xa3;" horiz-adv-x="1406" 
d="M580 797h223q51 0 51 -49v-123q0 -27 -12 -38.5t-39 -11.5h-223v-354h311q117 0 117 166v19q0 27 12 39t39 12h160q28 0 39.5 -11.5t11.5 -39.5v-19q0 -110 -21.5 -187t-63.5 -120t-95 -61.5t-125 -18.5h-777q-28 0 -39.5 11.5t-11.5 39.5v121q0 27 11.5 38t39.5 11h115
v354h-115q-28 0 -39.5 11t-11.5 39v123q0 26 11.5 37.5t39.5 11.5h115v282q0 68 23 124.5t73.5 104.5t142.5 74.5t218 26.5t218 -27t143 -74.5t74.5 -104t23.5 -124.5v-69q0 -54 -50 -54h-165q-50 0 -50 54v20q0 150 -192 150q-95 0 -138.5 -36.5t-43.5 -113.5v-233z" />
    <glyph glyph-name="currency" unicode="&#xa4;" horiz-adv-x="1290" 
d="M188 637h64v113h-64q-51 0 -51 49v71q0 27 12 38.5t39 11.5h64v155q0 54 14 101t49 90.5t88.5 74.5t137.5 49.5t192 18.5t192 -18.5t137.5 -49.5t88.5 -74.5t49 -90.5t14 -101v-98q0 -28 -10.5 -39.5t-36.5 -11.5h-170q-28 0 -39.5 11.5t-11.5 39.5v49q0 154 -209 154
q-207 0 -207 -154v-106h201q28 0 39.5 -11t11.5 -39v-71q0 -26 -11.5 -37.5t-39.5 -11.5h-201v-113h201q28 0 39.5 -10.5t11.5 -36.5v-72q0 -28 -11.5 -39.5t-39.5 -11.5h-201v-100q0 -154 207 -154q209 0 209 154v77q0 28 11.5 40t39.5 12h170q26 0 36.5 -12t10.5 -40v-127
q0 -54 -14 -101t-49 -90.5t-88.5 -74t-137.5 -49t-192 -18.5t-192 18.5t-137.5 49t-88.5 74t-49 90.5t-14 101v150h-64q-27 0 -39 12t-12 39v72q0 26 12 36.5t39 10.5z" />
    <glyph glyph-name="yen" unicode="&#xa5;" horiz-adv-x="1345" 
d="M1092 473h-279v-422q0 -27 -11 -39t-38 -12h-178q-27 0 -39 12t-12 39v422h-277q-28 0 -40.5 11.5t-12.5 37.5v72q0 27 12.5 38t40.5 11h209l-51 111h-158q-28 0 -40.5 12t-12.5 39v72q0 26 12.5 36.5t40.5 10.5h80l-193 417q-11 23 -1 37.5t36 14.5h203q24 0 37.5 -13
t23.5 -39l195 -467q26 -70 35 -108q16 65 37 108l217 467q11 26 23 39t36 13h176q27 0 37.5 -13.5t-0.5 -38.5l-201 -417h93q27 0 39 -10.5t12 -36.5v-72q0 -27 -12 -39t-39 -12h-172l-54 -111h226q27 0 39 -11t12 -38v-72q0 -49 -51 -49z" />
    <glyph glyph-name="brokenbar" unicode="&#xa6;" horiz-adv-x="512" 
d="M389 1339v-643q0 -28 -10.5 -40.5t-36.5 -12.5h-170q-27 0 -39 12.5t-12 40.5v643q0 28 12 41t39 13h170q26 0 36.5 -13t10.5 -41zM389 264v-643q0 -28 -10.5 -40.5t-36.5 -12.5h-170q-27 0 -39 12.5t-12 40.5v643q0 28 12 40.5t39 12.5h170q26 0 36.5 -12.5t10.5 -40.5z
" />
    <glyph glyph-name="section" unicode="&#xa7;" horiz-adv-x="1130" 
d="M958 575v-159q0 -26 -11.5 -37.5t-39.5 -11.5h-149q-26 0 -37.5 11.5t-11.5 37.5v133q0 64 -78 88l-287 90q-86 27 -143.5 88t-57.5 164v125q0 139 104.5 222t319.5 83q420 0 420 -293v-18q0 -28 -11 -39.5t-38 -11.5h-150q-26 0 -37.5 11.5t-11.5 39.5v30q0 57 -38.5 81
t-125.5 24q-88 0 -127.5 -25t-39.5 -82v-131q0 -54 98 -84l258 -80q83 -27 138.5 -94.5t55.5 -161.5zM174 420v158q0 28 10.5 38.5t38.5 10.5h150q27 0 38 -11t11 -38v-134q0 -33 22.5 -55.5t55.5 -32.5l286 -90q86 -27 143.5 -88t57.5 -164v-123q0 -140 -104 -223.5
t-318 -83.5q-422 0 -422 295v19q0 27 11.5 38t38.5 11h149q28 0 39.5 -11t11.5 -38v-33q0 -57 38 -81t126 -24t127 25t39 82v133q0 52 -98 82l-258 80q-81 25 -137 94t-56 164z" />
    <glyph glyph-name="dieresis" unicode="&#xa8;" horiz-adv-x="780" 
d="M344 1395v-191q0 -28 -10.5 -39.5t-36.5 -11.5h-100q-28 0 -39 11.5t-11 39.5v191q0 28 11 39.5t39 11.5h100q26 0 36.5 -11.5t10.5 -39.5zM631 1395v-191q0 -28 -10.5 -39.5t-36.5 -11.5h-101q-28 0 -39.5 11.5t-11.5 39.5v191q0 28 11.5 39.5t39.5 11.5h101
q26 0 36.5 -11.5t10.5 -39.5z" />
    <glyph glyph-name="copyright" unicode="&#xa9;" horiz-adv-x="1593" 
d="M1452 934v-473q0 -54 -5.5 -98.5t-23 -95t-46.5 -90t-79 -77t-117.5 -62t-165 -39.5t-218.5 -15t-218 15t-164.5 39.5t-117.5 62t-79 77t-46.5 90t-23 95t-5.5 98.5v473q0 54 5.5 98.5t23 94.5t46.5 89.5t79 76.5t117.5 61.5t164.5 39.5t218 15t218.5 -15t165 -39.5
t117.5 -61.5t79 -76.5t46.5 -89.5t23 -94.5t5.5 -98.5zM1257 422v551q0 127 -110 199.5t-350 72.5q-239 0 -349 -73t-110 -201v-547q0 -128 110 -201t349 -73q460 0 460 272zM801 1118q189 0 267.5 -70.5t78.5 -213.5v-19q0 -27 -11.5 -38t-39.5 -11h-138q-27 0 -38 11
t-11 38v12q0 59 -25.5 85t-82.5 26q-58 0 -83.5 -26t-25.5 -85v-262q0 -58 25.5 -84t83.5 -26q57 0 82.5 26.5t25.5 83.5v27q0 28 11.5 39.5t37.5 11.5h138q28 0 39.5 -11.5t11.5 -39.5v-35q0 -143 -79 -214t-269 -71q-189 0 -267.5 71t-78.5 214v277q0 143 79.5 213.5
t268.5 70.5z" />
    <glyph glyph-name="ordfeminine" unicode="&#xaa;" horiz-adv-x="735" 
d="M115 1217v14q0 85 67 131.5t197 46.5q260 0 260 -186v-404q0 -19 -8 -27t-29 -8h-115q-20 0 -25.5 6t-10.5 29l-5 19q-77 -64 -170 -64q-91 0 -135.5 45t-44.5 113v51q0 66 54 112t147 46h143v82q0 45 -67 45q-68 0 -68 -43v-8q0 -20 -8.5 -27.5t-26.5 -7.5h-116
q-22 0 -30.5 7.5t-8.5 27.5zM342 915q27 0 55 15.5t43 30.5v59h-102q-22 0 -32.5 -12t-10.5 -29v-23q0 -41 47 -41z" />
    <glyph glyph-name="guillemotleft" unicode="&#xab;" horiz-adv-x="1234" 
d="M1051 653l-217 -151l217 -150q17 -12 26.5 -19.5t18 -21.5t8.5 -30v-170q0 -26 -17 -36t-36 3l-381 272q-47 33 -47 70v166q0 22 12 36.5t35 30.5l381 275q20 14 36.5 3.5t16.5 -36.5v-170q0 -22 -13 -38t-40 -34zM559 653l-217 -151l217 -150q17 -12 26.5 -19.5
t18 -21.5t8.5 -30v-170q0 -26 -17 -36t-36 3l-381 272q-47 33 -47 70v166q0 22 12 36.5t35 30.5l381 275q20 14 36.5 3.5t16.5 -36.5v-170q0 -22 -13 -38t-40 -34z" />
    <glyph glyph-name="logicalnot" unicode="&#xac;" horiz-adv-x="819" 
d="M152 655q0 107 74.5 182.5t181.5 75.5t182.5 -75.5t75.5 -182.5q0 -106 -75.5 -181t-182.5 -75t-181.5 75t-74.5 181z" />
    <glyph glyph-name="uni00AD" unicode="&#xad;" horiz-adv-x="892" 
d="M172 700h549q27 0 39 -11t12 -38v-121q0 -49 -51 -49h-549q-51 0 -51 49v121q0 27 12 38t39 11z" />
    <glyph glyph-name="registered" unicode="&#xae;" horiz-adv-x="1323" 
d="M1182 1071v-379q0 -34 -4 -63.5t-17.5 -65t-36 -64t-62.5 -56.5t-93 -47t-131 -30.5t-174 -11.5t-174.5 11.5t-131.5 30.5t-93 47t-63 56.5t-36.5 64t-18 65t-4.5 63.5v379q0 34 4.5 63.5t18 65t36.5 64t63 56.5t93 47t131.5 30.5t174.5 11.5t174 -11.5t131 -30.5t93 -47
t62.5 -56.5t36 -64t17.5 -65t4 -63.5zM1004 674v413q0 38 -15.5 66t-52 51.5t-105 36t-167.5 12.5t-169 -12.5t-107 -36.5t-53 -52t-16 -65v-411q0 -78 77 -123t268 -45q190 0 265 44t75 122zM920 954q0 -99 -78 -141l69 -174q6 -17 -3 -27t-31 -10h-109q-4 0 -7.5 0.5
t-6 1.5t-5 3.5t-4 3.5t-3.5 5.5t-2.5 6t-3 8t-3.5 8.5l-57 143h-70v-143q0 -37 -33 -37h-110q-35 0 -35 37v485q0 19 8 27t27 8h231q226 0 226 -170v-35zM676 1030h-70v-117h70q21 0 41 12t20 33v25q0 24 -18.5 35.5t-42.5 11.5z" />
    <glyph glyph-name="macron" unicode="&#xaf;" horiz-adv-x="831" 
d="M180 1374h471q28 0 39.5 -11t11.5 -38v-104q0 -27 -12 -38.5t-39 -11.5h-471q-53 0 -53 50v104q0 27 12.5 38t40.5 11z" />
    <glyph glyph-name="degree" unicode="&#xb0;" horiz-adv-x="890" 
d="M111 985v195q0 112 76 170.5t259 58.5q181 0 257.5 -59t76.5 -170v-195q0 -111 -76 -169t-258 -58q-183 0 -259 58t-76 169zM553 995v176q0 62 -109 62q-106 0 -106 -62v-176q0 -63 106 -63q109 0 109 63z" />
    <glyph glyph-name="plusminus" unicode="&#xb1;" horiz-adv-x="1146" 
d="M463 479v193h-291q-27 0 -39 11t-12 38v123q0 26 12 36.5t39 10.5h291v192q0 28 10.5 40t36.5 12h121q28 0 39.5 -12t11.5 -40v-192h291q28 0 40.5 -10.5t12.5 -36.5v-123q0 -27 -12.5 -38t-40.5 -11h-291v-193q0 -28 -11.5 -39.5t-39.5 -11.5h-121q-26 0 -36.5 11.5
t-10.5 39.5zM172 313h801q28 0 40.5 -11t12.5 -38v-121q0 -27 -12.5 -39t-40.5 -12h-801q-27 0 -39 12t-12 39v121q0 27 12 38t39 11z" />
    <glyph glyph-name="twosuperior" unicode="&#xb2;" horiz-adv-x="794" 
d="M324 729h340q38 0 38 -35v-94q0 -37 -38 -37h-512q-20 0 -28.5 8.5t-8.5 28.5v219q0 47 17.5 70t55.5 39l263 116q38 17 38 66v57q0 39 -28 59.5t-70 20.5t-68 -20t-26 -60v-43q0 -22 -7.5 -30.5t-27.5 -8.5h-131q-20 0 -28.5 8.5t-8.5 30.5v74q0 89 72 150t225 61
q154 0 228.5 -61.5t74.5 -149.5v-78q0 -151 -119 -205l-223 -102q-28 -12 -28 -31v-53z" />
    <glyph glyph-name="threesuperior" unicode="&#xb3;" horiz-adv-x="792" 
d="M309 1071h72q98 0 98 78v22q0 80 -88 80t-88 -80v-10q0 -35 -37 -35h-131q-21 0 -29 8.5t-8 26.5v41q0 41 14.5 76t46 66t92 49t144.5 18q158 0 224.5 -58t66.5 -149v-86q0 -89 -86 -121q98 -43 98 -141v-96q0 -89 -70.5 -147t-230.5 -58q-83 0 -144 18t-94.5 49t-49 66
t-15.5 76v41q0 19 8 27t29 8h129q39 0 39 -35v-10q0 -40 26 -60t70 -20t71.5 20.5t27.5 59.5v36q0 41 -27.5 60.5t-73.5 19.5h-84q-39 0 -39 35v88q0 21 9 29t30 8z" />
    <glyph glyph-name="acute" unicode="&#xb4;" horiz-adv-x="643" 
d="M518 1399l-147 -217q-25 -35 -66 -35h-133q-49 0 -27 51l99 201q23 51 71 51h179q26 0 32.5 -14.5t-8.5 -36.5z" />
    <glyph glyph-name="uni00B5" unicode="&#xb5;" horiz-adv-x="1103" 
d="M725 51l-4 45q-126 -112 -307 -112q-28 0 -49 6l14 -350q2 -28 -9.5 -40t-39.5 -12h-170q-26 0 -37.5 12t-11.5 40v1329q0 28 11.5 39.5t37.5 11.5h168q27 0 39 -12t12 -39v-643q0 -58 24 -83.5t86 -25.5q114 0 226 90v662q0 28 11 39.5t38 11.5h170q26 0 37.5 -11.5
t11.5 -39.5v-918q0 -28 -11.5 -39.5t-37.5 -11.5h-158q-27 0 -37.5 11t-13.5 40z" />
    <glyph glyph-name="paragraph" unicode="&#xb6;" horiz-adv-x="1419" 
d="M864 1341v-1701q0 -28 -11 -40t-38 -12h-178q-27 0 -38 12t-11 40v938h-49q-113 0 -192.5 19.5t-123 56.5t-62 83.5t-18.5 108.5v278q0 62 18.5 108.5t62 84t123 57t192.5 19.5h276q27 0 38 -12.5t11 -39.5zM1278 1339v-1699q0 -28 -11 -40t-38 -12h-178q-27 0 -38.5 12
t-11.5 40v1699q0 28 11.5 41t38.5 13h178q27 0 38 -12.5t11 -41.5z" />
    <glyph glyph-name="periodcentered" unicode="&#xb7;" horiz-adv-x="512" 
d="M393 649v-166q0 -28 -11 -39.5t-38 -11.5h-174q-28 0 -39.5 11.5t-11.5 39.5v166q0 28 11.5 39.5t39.5 11.5h174q27 0 38 -11.5t11 -39.5z" />
    <glyph glyph-name="cedilla" unicode="&#xb8;" horiz-adv-x="534" 
d="M268 -92h62q83 0 131.5 -41.5t48.5 -126.5q0 -86 -48.5 -129t-131.5 -43h-244q-28 0 -39.5 11.5t-11.5 39.5v41q0 27 11.5 38t39.5 11h201q39 0 39 31q0 33 -39 33h-154q-83 0 -63 67l53 187q13 48 59 45l76 -6q23 -2 33.5 -19t3.5 -43z" />
    <glyph glyph-name="onesuperior" unicode="&#xb9;" horiz-adv-x="765" 
d="M133 1356l324 51h16t13.5 -9t5.5 -26v-645h145q21 0 28 -7t7 -28v-94q0 -21 -7.5 -29t-27.5 -8h-504q-22 0 -30.5 8.5t-8.5 28.5v94q0 21 8.5 28t30.5 7h150v485l-150 -18q-21 -3 -30 3.5t-9 27.5v94q0 18 9 26t30 11z" />
    <glyph glyph-name="ordmasculine" unicode="&#xba;" horiz-adv-x="761" 
d="M94 965v252q0 89 74 140.5t213 51.5q137 0 211 -51.5t74 -140.5v-252q0 -89 -74 -140t-211 -51q-139 0 -213 51t-74 140zM461 983v217q0 53 -80 53q-82 0 -82 -53v-217q0 -55 82 -55q80 0 80 55z" />
    <glyph glyph-name="guillemotright" unicode="&#xbb;" horiz-adv-x="1234" 
d="M676 367l217 151l-217 150q-17 12 -26.5 19.5t-18 21.5t-8.5 30v170q0 26 17 36t36 -3l381 -272q47 -33 47 -70v-166q0 -22 -12 -36.5t-35 -30.5l-381 -275q-20 -14 -36.5 -3.5t-16.5 36.5v170q0 22 13 38t40 34zM184 367l217 151l-217 150q-17 12 -26.5 19.5t-18 21.5
t-8.5 30v170q0 26 17 36t36 -3l381 -272q47 -33 47 -70v-166q0 -22 -12 -36.5t-35 -30.5l-381 -275q-20 -14 -36.5 -3.5t-16.5 36.5v170q0 22 13 38t40 34z" />
    <glyph glyph-name="onequarter" unicode="&#xbc;" horiz-adv-x="1832" 
d="M1468 799l-120 -424h182v424q0 37 37 37h135q21 0 29 -8.5t8 -28.5v-762q0 -20 -8 -28.5t-29 -8.5h-135q-37 0 -37 37v174h-361q-41 0 -41 37v76q0 17 7 38l122 437q10 37 46 37h137q39 0 28 -37zM133 1356l324 51h16t13.5 -9t5.5 -26v-645h145q21 0 28 -7t7 -28v-94
q0 -21 -7.5 -29t-27.5 -8h-504q-22 0 -30.5 8.5t-8.5 28.5v94q0 21 8.5 28t30.5 7h150v492l-150 -25q-21 -3 -30 3.5t-9 27.5v94q0 18 9 26t30 11zM1231 1456l-369 -1519q-5 -21 -13 -29t-28 -8h-143q-38 0 -29 37l367 1519q5 20 14.5 28.5t30.5 8.5h141q39 0 29 -37z" />
    <glyph glyph-name="onehalf" unicode="&#xbd;" horiz-adv-x="1841" 
d="M133 1356l324 51h16t13.5 -9t5.5 -26v-645h145q21 0 28 -7t7 -28v-94q0 -21 -7.5 -29t-27.5 -8h-504q-22 0 -30.5 8.5t-8.5 28.5v94q0 21 8.5 28t30.5 7h150v487l-150 -20q-21 -3 -30 3.5t-9 27.5v94q0 18 9 26t30 11zM1212 1456l-368 -1519q-5 -20 -13.5 -28.5
t-27.5 -8.5h-144q-37 0 -28 37l368 1519q5 20 13.5 28.5t29.5 8.5h142q38 0 28 -37zM1368 166h342q19 0 28 -7.5t9 -27.5v-94q0 -37 -37 -37h-514q-20 0 -28.5 8.5t-8.5 28.5v219q0 46 17.5 69.5t56.5 39.5l262 116q39 17 39 66v57q0 39 -27 59.5t-69 20.5q-43 0 -70 -20
t-27 -60v-43q0 -22 -7 -30.5t-27 -8.5h-131q-37 0 -37 39v74q0 41 16 77t49.5 67t93.5 49t140 18q154 0 227.5 -61.5t73.5 -149.5v-78q0 -88 -33 -133.5t-86 -71.5l-221 -102q-31 -12 -31 -29v-55z" />
    <glyph glyph-name="threequarters" unicode="&#xbe;" horiz-adv-x="1855" 
d="M309 1069h72q98 0 98 78v22q0 80 -88 80t-88 -80v-10q0 -35 -37 -35h-131q-21 0 -29 8.5t-8 26.5v41q0 41 14.5 76t46 66t92 49t144.5 18q158 0 224.5 -58t66.5 -149v-86q0 -89 -86 -121q98 -43 98 -141v-96q0 -89 -70.5 -147t-230.5 -58q-83 0 -144 18t-94.5 49t-49 66
t-15.5 76v41q0 19 8 27t29 8h129q39 0 39 -35v-10q0 -40 26 -60t70 -20t71.5 20.5t27.5 59.5v36q0 41 -27.5 60.5t-73.5 19.5h-84q-39 0 -39 35v88q0 21 9 29t30 8zM1253 1456l-368 -1519q-5 -21 -13 -29t-28 -8h-144q-37 0 -28 37l368 1519q5 20 13.5 28.5t29.5 8.5h142
q38 0 28 -37zM1491 799l-121 -424h182v424q0 37 37 37h135q21 0 29 -8.5t8 -28.5v-762q0 -20 -8 -28.5t-29 -8.5h-135q-37 0 -37 37v174h-360q-41 0 -41 37v76q0 20 6 38l123 437q10 37 45 37h137q40 0 29 -37z" />
    <glyph glyph-name="questiondown" unicode="&#xbf;" horiz-adv-x="1157" 
d="M774 598v-141q0 -41 -10.5 -72t-31.5 -52.5t-39.5 -34t-47.5 -26.5l-188 -96q-78 -43 -78 -125v-61q0 -154 203 -154q202 0 202 154v80q0 28 10.5 39.5t36.5 11.5h170q28 0 40 -11.5t12 -39.5v-125q0 -68 -24.5 -125.5t-77 -105.5t-147 -75.5t-222.5 -27.5
q-129 0 -224 27.5t-148.5 75.5t-79 105.5t-26.5 125.5v96q0 233 191 317l117 54q47 22 66.5 45t19.5 69v72q0 28 10.5 38.5t36.5 10.5h180q27 0 38 -11t11 -38zM498 803v166q0 28 10.5 39.5t36.5 11.5h180q26 0 37.5 -11.5t11.5 -39.5v-166q0 -28 -11.5 -39.5t-37.5 -11.5
h-180q-26 0 -36.5 11.5t-10.5 39.5z" />
    <glyph glyph-name="Agrave" unicode="&#xc0;" horiz-adv-x="1132" 
d="M477 1393h178q51 0 66 -52l381 -1290q15 -51 -37 -51h-184q-45 0 -60 51l-71 250h-381l-72 -250q-8 -27 -21.5 -39t-39.5 -12h-166q-54 0 -39 51l383 1290q8 27 22 39.5t41 12.5zM688 520l-67 228q-17 54 -37 191t-23 181q-46 -313 -63 -370l-70 -230h260zM418 1530
l-148 215q-15 23 -8 38t35 15h178q47 0 70 -51l98 -201q22 -51 -25 -51h-133q-41 0 -67 35z" />
    <glyph glyph-name="Aacute" unicode="&#xc1;" horiz-adv-x="1132" 
d="M477 1393h178q51 0 66 -52l381 -1290q15 -51 -37 -51h-184q-45 0 -60 51l-71 250h-381l-72 -250q-8 -27 -21.5 -39t-39.5 -12h-166q-54 0 -39 51l383 1290q8 27 22 39.5t41 12.5zM688 520l-67 228q-17 54 -37 191t-23 181q-46 -313 -63 -370l-70 -230h260zM848 1747
l-150 -217q-25 -35 -65 -35h-133q-53 0 -27 51l100 201q23 51 70 51h178q27 0 34.5 -14.5t-7.5 -36.5z" />
    <glyph glyph-name="Acircumflex" unicode="&#xc2;" horiz-adv-x="1132" 
d="M477 1393h178q51 0 66 -52l381 -1290q15 -51 -37 -51h-184q-45 0 -60 51l-71 250h-381l-72 -250q-8 -27 -21.5 -39t-39.5 -12h-166q-54 0 -39 51l383 1290q8 27 22 39.5t41 12.5zM688 520l-67 228q-17 54 -37 191t-23 181q-46 -313 -63 -370l-70 -230h260zM567 1638
l-51 -92q-27 -51 -70 -51h-131q-26 0 -33.5 14.5t7.5 36.5l149 201q35 51 80 51h98q40 0 80 -51l150 -201q15 -22 7 -36.5t-34 -14.5h-131q-44 0 -70 51z" />
    <glyph glyph-name="Atilde" unicode="&#xc3;" horiz-adv-x="1132" 
d="M477 1393h178q51 0 66 -52l381 -1290q15 -51 -37 -51h-184q-45 0 -60 51l-71 250h-381l-72 -250q-8 -27 -21.5 -39t-39.5 -12h-166q-54 0 -39 51l383 1290q8 27 22 39.5t41 12.5zM688 520l-67 228q-17 54 -37 191t-23 181q-46 -313 -63 -370l-70 -230h260zM442 1610
q-39 0 -39 -51v-11q0 -26 -13.5 -35.5t-41.5 -9.5h-88q-49 0 -43 60l8 84q7 75 58 117t123 42q60 0 118 -26l88 -43q64 -31 76 -31q19 0 26.5 10.5t12.5 38.5l2 12q4 26 16.5 35.5t38.5 9.5h88q46 0 43 -59l-6 -80q-6 -78 -53.5 -119t-116.5 -41q-65 0 -131 27l-88 39
q-8 4 -22 10.5t-22 10.5t-17.5 7t-16.5 3z" />
    <glyph glyph-name="Adieresis" unicode="&#xc4;" horiz-adv-x="1132" 
d="M477 1393h178q51 0 66 -52l381 -1290q15 -51 -37 -51h-184q-45 0 -60 51l-71 250h-381l-72 -250q-8 -27 -21.5 -39t-39.5 -12h-166q-54 0 -39 51l383 1290q8 27 22 39.5t41 12.5zM688 520l-67 228q-17 54 -37 191t-23 181q-46 -313 -63 -370l-70 -230h260zM524 1741v-191
q0 -28 -11 -39.5t-38 -11.5h-100q-26 0 -37.5 11.5t-11.5 39.5v191q0 28 11.5 40.5t37.5 12.5h100q27 0 38 -12.5t11 -40.5zM809 1741v-191q0 -28 -10.5 -39.5t-36.5 -11.5h-100q-28 0 -39 11.5t-11 39.5v191q0 28 11.5 40.5t38.5 12.5h100q26 0 36.5 -12.5t10.5 -40.5z" />
    <glyph glyph-name="Aring" unicode="&#xc5;" horiz-adv-x="1132" 
d="M477 1393h178q51 0 66 -52l381 -1290q15 -51 -37 -51h-184q-45 0 -60 51l-71 250h-381l-72 -250q-8 -27 -21.5 -39t-39.5 -12h-166q-54 0 -39 51l383 1290q8 27 22 39.5t41 12.5zM688 520l-67 228q-17 54 -37 191t-23 181q-46 -313 -63 -370l-70 -230h260zM797 1681v-59
q0 -68 -58.5 -114t-171.5 -46t-171 46t-58 114v59q0 68 58 114t171 46t171.5 -46t58.5 -114zM649 1640v25q0 61 -82 61t-82 -61v-25q0 -63 82 -63t82 63z" />
    <glyph glyph-name="AE" unicode="&#xc6;" horiz-adv-x="1710" 
d="M874 1393h680q28 0 40 -11.5t12 -38.5v-124q0 -27 -12 -38.5t-40 -11.5h-473v-340h439q28 0 40.5 -11t12.5 -38v-116q0 -28 -12.5 -40t-40.5 -12h-439v-389h496q27 0 39 -10.5t12 -36.5v-127q0 -49 -51 -49h-707q-27 0 -39 12t-12 39v250h-375l-145 -250
q-9 -16 -15.5 -25t-18 -17.5t-25.5 -8.5h-168q-27 0 -38.5 14t1.5 37l768 1292q31 50 71 50zM750 819l-175 -299h244v432q-42 -86 -69 -133z" />
    <glyph glyph-name="Ccedilla" unicode="&#xc7;" horiz-adv-x="1165" 
d="M602 -92h62q83 0 131.5 -41.5t48.5 -126.5q0 -86 -48.5 -129t-131.5 -43h-244q-28 0 -39.5 11.5t-11.5 39.5v41q0 27 11.5 38t39.5 11h201q38 0 38 31q0 33 -38 33h-154q-84 0 -64 67l43 156q-90 14 -155 45.5t-101 75.5t-52.5 93.5t-16.5 106.5v758q0 54 14 101t49 90.5
t88.5 74.5t137.5 49.5t192 18.5t192 -18.5t137.5 -49.5t88.5 -74.5t49 -90.5t14 -101v-98q0 -28 -10.5 -39.5t-36.5 -11.5h-170q-28 0 -39.5 11.5t-11.5 39.5v49q0 154 -209 154q-207 0 -207 -154v-659q0 -154 207 -154q209 0 209 154v77q0 28 11.5 40t39.5 12h170
q26 0 36.5 -12t10.5 -40v-127q0 -68 -23 -124t-73.5 -103.5t-143 -75.5t-220.5 -30z" />
    <glyph glyph-name="Egrave" unicode="&#xc8;" horiz-adv-x="1048" 
d="M420 1530l-148 215q-15 23 -8 38t35 15h178q47 0 70 -51l98 -201q22 -51 -24 -51h-134q-41 0 -67 35zM913 0h-720q-27 0 -38.5 12.5t-11.5 40.5v1286q0 28 11.5 41t38.5 13h700q27 0 39 -11.5t12 -38.5v-129q0 -27 -12 -39t-39 -12h-473v-332h438q28 0 40.5 -11t12.5 -38
v-123q0 -26 -12.5 -37.5t-40.5 -11.5h-438v-381h493q28 0 40 -11t12 -38v-129q0 -28 -12 -39.5t-40 -11.5z" />
    <glyph glyph-name="Eacute" unicode="&#xc9;" horiz-adv-x="1048" 
d="M913 0h-720q-27 0 -38.5 12.5t-11.5 40.5v1286q0 28 11.5 41t38.5 13h700q27 0 39 -11.5t12 -38.5v-129q0 -27 -12 -39t-39 -12h-473v-332h438q28 0 40.5 -11t12.5 -38v-123q0 -26 -12.5 -37.5t-40.5 -11.5h-438v-381h493q28 0 40 -11t12 -38v-129q0 -28 -12 -39.5
t-40 -11.5zM795 1747l-150 -217q-25 -35 -65 -35h-134q-52 0 -26 51l100 201q23 51 70 51h178q27 0 34.5 -14.5t-7.5 -36.5z" />
    <glyph glyph-name="Ecircumflex" unicode="&#xca;" horiz-adv-x="1048" 
d="M524 1638l-51 -92q-27 -51 -70 -51h-131q-26 0 -33.5 14.5t7.5 36.5l149 201q35 51 80 51h98q40 0 80 -51l150 -201q15 -22 7 -36.5t-34 -14.5h-131q-44 0 -70 51zM913 0h-720q-27 0 -38.5 12.5t-11.5 40.5v1286q0 28 11.5 41t38.5 13h700q27 0 39 -11.5t12 -38.5v-129
q0 -27 -12 -39t-39 -12h-473v-332h438q28 0 40.5 -11t12.5 -38v-123q0 -26 -12.5 -37.5t-40.5 -11.5h-438v-381h493q28 0 40 -11t12 -38v-129q0 -28 -12 -39.5t-40 -11.5z" />
    <glyph glyph-name="Edieresis" unicode="&#xcb;" horiz-adv-x="1048" 
d="M913 0h-720q-27 0 -38.5 12.5t-11.5 40.5v1286q0 28 11.5 41t38.5 13h700q27 0 39 -11.5t12 -38.5v-129q0 -27 -12 -39t-39 -12h-473v-332h438q28 0 40.5 -11t12.5 -38v-123q0 -26 -12.5 -37.5t-40.5 -11.5h-438v-381h493q28 0 40 -11t12 -38v-129q0 -28 -12 -39.5
t-40 -11.5zM496 1741v-191q0 -28 -11 -39.5t-39 -11.5h-100q-26 0 -37.5 11.5t-11.5 39.5v191q0 28 11.5 40.5t37.5 12.5h100q27 0 38.5 -12.5t11.5 -40.5zM780 1741v-191q0 -28 -10.5 -39.5t-36.5 -11.5h-100q-27 0 -38 11.5t-11 39.5v191q0 28 11 40.5t38 12.5h100
q26 0 36.5 -12.5t10.5 -40.5z" />
    <glyph glyph-name="Igrave" unicode="&#xcc;" horiz-adv-x="561" 
d="M420 1339v-1286q0 -28 -11 -40.5t-38 -12.5h-178q-27 0 -38.5 12.5t-11.5 40.5v1286q0 28 11.5 41t38.5 13h178q27 0 38 -12.5t11 -41.5zM145 1530l-147 215q-15 23 -8 38t35 15h178q46 0 69 -51l99 -201q22 -51 -25 -51h-133q-42 0 -68 35z" />
    <glyph glyph-name="Iacute" unicode="&#xcd;" horiz-adv-x="561" 
d="M420 1339v-1286q0 -28 -11 -40.5t-38 -12.5h-178q-27 0 -38.5 12.5t-11.5 40.5v1286q0 28 11.5 41t38.5 13h178q27 0 38 -12.5t11 -41.5zM551 1747l-150 -217q-25 -35 -65 -35h-133q-53 0 -27 51l100 201q23 51 70 51h178q27 0 34.5 -14.5t-7.5 -36.5z" />
    <glyph glyph-name="Icircumflex" unicode="&#xce;" horiz-adv-x="561" 
d="M420 1339v-1286q0 -28 -11 -40.5t-38 -12.5h-178q-27 0 -38.5 12.5t-11.5 40.5v1286q0 28 11.5 41t38.5 13h178q27 0 38 -12.5t11 -41.5zM281 1638l-52 -92q-27 -51 -69 -51h-131q-26 0 -34 14.5t7 36.5l150 201q35 51 79 51h99q40 0 80 -51l149 -201q15 -22 7 -36.5
t-34 -14.5h-131q-43 0 -69 51z" />
    <glyph glyph-name="Idieresis" unicode="&#xcf;" horiz-adv-x="561" 
d="M420 1339v-1286q0 -28 -11 -40.5t-38 -12.5h-178q-27 0 -38.5 12.5t-11.5 40.5v1286q0 28 11.5 41t38.5 13h178q27 0 38 -12.5t11 -41.5zM238 1741v-191q0 -28 -11 -39.5t-39 -11.5h-100q-26 0 -37.5 11.5t-11.5 39.5v191q0 28 11.5 40.5t37.5 12.5h100q27 0 38.5 -12.5
t11.5 -40.5zM522 1741v-191q0 -28 -10.5 -39.5t-36.5 -11.5h-100q-27 0 -38 11.5t-11 39.5v191q0 28 11 40.5t38 12.5h100q26 0 36.5 -12.5t10.5 -40.5z" />
    <glyph glyph-name="Eth" unicode="&#xd0;" horiz-adv-x="1259" 
d="M639 0h-453q-24 0 -33.5 13t-9.5 40v545h-86q-28 0 -40.5 12t-12.5 39v105q0 26 12.5 36.5t40.5 10.5h86v538q0 28 11.5 41t38.5 13h446q134 0 234 -27.5t156 -75.5t83 -105.5t27 -125.5v-725q0 -68 -27 -125.5t-83 -105.5t-156 -75.5t-234 -27.5zM639 1163h-219v-362
h184q28 0 39.5 -10.5t11.5 -36.5v-105q0 -28 -11.5 -39.5t-39.5 -11.5h-184v-369h219q106 0 164.5 39.5t58.5 114.5v627q0 75 -58.5 114t-164.5 39z" />
    <glyph glyph-name="Ntilde" unicode="&#xd1;" horiz-adv-x="1280" 
d="M1139 1341v-1290q0 -27 -11 -39t-38 -12h-162q-33 0 -47 25l-396 677q-69 114 -82 164v-815q0 -27 -11 -39t-38 -12h-161q-27 0 -38.5 12t-11.5 39v1290q0 27 11.5 39.5t38.5 12.5h161q31 0 43 -21l412 -706q16 -26 33.5 -62t27.5 -59l9 -23v819q0 27 11 39.5t38 12.5
h162q27 0 38 -12.5t11 -39.5zM516 1610q-39 0 -39 -51v-11q0 -26 -13.5 -35.5t-41.5 -9.5h-88q-49 0 -43 60l8 84q7 75 57.5 117t122.5 42q61 0 119 -26l88 -43q64 -31 76 -31q19 0 26.5 10.5t12.5 38.5l2 12q4 26 16.5 35.5t38.5 9.5h88q46 0 43 -59l-6 -80
q-6 -78 -53.5 -119t-116.5 -41q-65 0 -131 27l-88 39q-8 4 -22 10.5t-22 10.5t-17.5 7t-16.5 3z" />
    <glyph glyph-name="Ograve" unicode="&#xd2;" horiz-adv-x="1239" 
d="M483 1530l-147 215q-15 23 -8 38t34 15h179q46 0 69 -51l99 -201q22 -51 -25 -51h-133q-42 0 -68 35zM121 317v758q0 68 26.5 125.5t82 105.5t155 75.5t233.5 27.5t233.5 -27.5t155.5 -75.5t82.5 -105.5t26.5 -125.5v-758q0 -68 -26.5 -125.5t-82.5 -105t-155.5 -75
t-233.5 -27.5t-233.5 27.5t-155 75t-82 105t-26.5 125.5zM840 367v659q0 75 -58.5 114.5t-163.5 39.5q-104 0 -161.5 -39.5t-57.5 -114.5v-659q0 -75 57.5 -114.5t161.5 -39.5q105 0 163.5 39.5t58.5 114.5z" />
    <glyph glyph-name="Oacute" unicode="&#xd3;" horiz-adv-x="1239" 
d="M870 1747l-149 -217q-25 -35 -66 -35h-133q-52 0 -26 51l100 201q23 51 70 51h178q27 0 34 -14.5t-8 -36.5zM121 317v758q0 68 26.5 125.5t82 105.5t155 75.5t233.5 27.5t233.5 -27.5t155.5 -75.5t82.5 -105.5t26.5 -125.5v-758q0 -68 -26.5 -125.5t-82.5 -105
t-155.5 -75t-233.5 -27.5t-233.5 27.5t-155 75t-82 105t-26.5 125.5zM840 367v659q0 75 -58.5 114.5t-163.5 39.5q-104 0 -161.5 -39.5t-57.5 -114.5v-659q0 -75 57.5 -114.5t161.5 -39.5q105 0 163.5 39.5t58.5 114.5z" />
    <glyph glyph-name="Ocircumflex" unicode="&#xd4;" horiz-adv-x="1239" 
d="M618 1638l-51 -92q-27 -51 -69 -51h-131q-26 0 -34 14.5t7 36.5l149 201q35 51 80 51h99q40 0 80 -51l149 -201q15 -22 7 -36.5t-34 -14.5h-131q-43 0 -69 51zM121 317v758q0 68 26.5 125.5t82 105.5t155 75.5t233.5 27.5t233.5 -27.5t155.5 -75.5t82.5 -105.5
t26.5 -125.5v-758q0 -68 -26.5 -125.5t-82.5 -105t-155.5 -75t-233.5 -27.5t-233.5 27.5t-155 75t-82 105t-26.5 125.5zM840 367v659q0 75 -58.5 114.5t-163.5 39.5q-104 0 -161.5 -39.5t-57.5 -114.5v-659q0 -75 57.5 -114.5t161.5 -39.5q105 0 163.5 39.5t58.5 114.5z" />
    <glyph glyph-name="Otilde" unicode="&#xd5;" horiz-adv-x="1239" 
d="M121 317v758q0 68 26.5 125.5t82 105.5t155 75.5t233.5 27.5t233.5 -27.5t155.5 -75.5t82.5 -105.5t26.5 -125.5v-758q0 -68 -26.5 -125.5t-82.5 -105t-155.5 -75t-233.5 -27.5t-233.5 27.5t-155 75t-82 105t-26.5 125.5zM840 367v659q0 75 -58.5 114.5t-163.5 39.5
q-104 0 -161.5 -39.5t-57.5 -114.5v-659q0 -75 57.5 -114.5t161.5 -39.5q105 0 163.5 39.5t58.5 114.5zM496 1610q-39 0 -39 -51v-11q0 -26 -13.5 -35.5t-42.5 -9.5h-88q-49 0 -43 60l9 84q7 75 57.5 117t122.5 42q61 0 119 -26l88 -43q6 -3 20.5 -10.5t22 -11t17 -6.5
t15.5 -3q19 0 26.5 10.5t12.5 38.5l2 12q4 25 17 35t39 10h88q46 0 43 -59l-6 -80q-6 -78 -53.5 -119t-116.5 -41q-65 0 -131 27l-89 39l-27 13.5t-30 13.5t-20 4z" />
    <glyph glyph-name="Odieresis" unicode="&#xd6;" horiz-adv-x="1239" 
d="M121 317v758q0 68 26.5 125.5t82 105.5t155 75.5t233.5 27.5t233.5 -27.5t155.5 -75.5t82.5 -105.5t26.5 -125.5v-758q0 -68 -26.5 -125.5t-82.5 -105t-155.5 -75t-233.5 -27.5t-233.5 27.5t-155 75t-82 105t-26.5 125.5zM840 367v659q0 75 -58.5 114.5t-163.5 39.5
q-104 0 -161.5 -39.5t-57.5 -114.5v-659q0 -75 57.5 -114.5t161.5 -39.5q105 0 163.5 39.5t58.5 114.5zM575 1741v-191q0 -28 -11 -39.5t-38 -11.5h-100q-26 0 -37.5 11.5t-11.5 39.5v191q0 28 11.5 40.5t37.5 12.5h100q27 0 38 -12.5t11 -40.5zM860 1741v-191
q0 -28 -10.5 -39.5t-36.5 -11.5h-100q-27 0 -38 11.5t-11 39.5v191q0 28 11 40.5t38 12.5h100q26 0 36.5 -12.5t10.5 -40.5z" />
    <glyph glyph-name="multiply" unicode="&#xd7;" horiz-adv-x="1107" 
d="M657 291l-145 250l-250 -144q-25 -14 -40.5 -10t-28.5 29l-60 104q-13 25 -8.5 40.5t29.5 29.5l249 143l-145 252q-14 25 -10.5 41t26.5 29l105 61q45 26 70 -20l145 -252l252 145q25 14 40.5 10.5t28.5 -26.5l60 -105q14 -25 9.5 -41.5t-28.5 -29.5l-254 -146l146 -250
q14 -25 10 -40.5t-29 -28.5l-104 -60q-17 -9 -28.5 -10.5t-21 5.5t-18.5 24z" />
    <glyph glyph-name="Oslash" unicode="&#xd8;" horiz-adv-x="1239" 
d="M121 315v758q0 68 26.5 125.5t82 105.5t155 75.5t233.5 27.5q158 0 273 -41l18 35q7 14 12 22.5t13.5 18.5t19.5 15t25 5h57q44 0 15 -61l-50 -94q115 -86 115 -234v-758q0 -68 -26.5 -125.5t-82.5 -105t-155.5 -75t-233.5 -27.5q-158 0 -276 41l-16 -33q-15 -32 -31 -47
t-43 -15h-53q-22 0 -26 18.5t9 43.5l47 94q-108 84 -108 231zM840 365v624l-381 -741q55 -37 159 -37q105 0 163.5 39.5t58.5 114.5zM399 1024v-612l377 731q-59 35 -158 35q-104 0 -161.5 -39.5t-57.5 -114.5z" />
    <glyph glyph-name="Ugrave" unicode="&#xd9;" horiz-adv-x="1259" 
d="M510 1530l-148 215q-15 23 -8 38t35 15h178q47 0 70 -51l98 -201q22 -51 -24 -51h-133q-42 0 -68 35zM410 1339v-972q0 -75 57.5 -114.5t161.5 -39.5q105 0 164 39.5t59 114.5v972q0 29 11 41.5t38 12.5h178q27 0 37 -12.5t10 -41.5v-1022q0 -68 -26.5 -125.5t-82 -105
t-155 -75t-233.5 -27.5t-233.5 27.5t-155.5 75t-82.5 105t-26.5 125.5v1022q0 28 12 41t39 13h178q50 0 50 -54z" />
    <glyph glyph-name="Uacute" unicode="&#xda;" horiz-adv-x="1259" 
d="M410 1339v-972q0 -75 57.5 -114.5t161.5 -39.5q105 0 164 39.5t59 114.5v972q0 29 11 41.5t38 12.5h178q27 0 37 -12.5t10 -41.5v-1022q0 -68 -26.5 -125.5t-82 -105t-155 -75t-233.5 -27.5t-233.5 27.5t-155.5 75t-82.5 105t-26.5 125.5v1022q0 28 12 41t39 13h178
q50 0 50 -54zM903 1747l-149 -217q-25 -35 -66 -35h-133q-53 0 -27 51l101 201q23 51 69 51h179q27 0 34 -14.5t-8 -36.5z" />
    <glyph glyph-name="Ucircumflex" unicode="&#xdb;" horiz-adv-x="1259" 
d="M629 1638l-51 -92q-27 -51 -70 -51h-131q-26 0 -34 14.5t7 36.5l150 201q35 51 80 51h98q40 0 80 -51l149 -201q15 -22 7.5 -36.5t-33.5 -14.5h-131q-44 0 -70 51zM410 1339v-972q0 -75 57.5 -114.5t161.5 -39.5q105 0 164 39.5t59 114.5v972q0 29 11 41.5t38 12.5h178
q27 0 37 -12.5t10 -41.5v-1022q0 -68 -26.5 -125.5t-82 -105t-155 -75t-233.5 -27.5t-233.5 27.5t-155.5 75t-82.5 105t-26.5 125.5v1022q0 28 12 41t39 13h178q50 0 50 -54z" />
    <glyph glyph-name="Udieresis" unicode="&#xdc;" horiz-adv-x="1259" 
d="M410 1339v-972q0 -75 57.5 -114.5t161.5 -39.5q105 0 164 39.5t59 114.5v972q0 29 11 41.5t38 12.5h178q27 0 37 -12.5t10 -41.5v-1022q0 -68 -26.5 -125.5t-82 -105t-155 -75t-233.5 -27.5t-233.5 27.5t-155.5 75t-82.5 105t-26.5 125.5v1022q0 28 12 41t39 13h178
q50 0 50 -54zM586 1741v-191q0 -28 -11 -39.5t-38 -11.5h-101q-26 0 -37.5 11.5t-11.5 39.5v191q0 28 11.5 40.5t37.5 12.5h101q27 0 38 -12.5t11 -40.5zM870 1741v-191q0 -28 -10.5 -39.5t-36.5 -11.5h-100q-27 0 -38 11.5t-11 39.5v191q0 28 11 40.5t38 12.5h100
q26 0 36.5 -12.5t10.5 -40.5z" />
    <glyph glyph-name="Yacute" unicode="&#xdd;" horiz-adv-x="1116" 
d="M330 1341l194 -467l35 -106q2 12 14 48.5t23 57.5l217 467q11 26 23 39t36 13h177q27 0 37 -13.5t-1 -38.5l-387 -809v-481q0 -27 -11 -39t-38 -12h-178q-27 0 -39 12t-12 39v449l-389 841q-11 23 -1 37.5t36 14.5h202q42 0 62 -52zM848 1747l-150 -217q-25 -35 -65 -35
h-133q-53 0 -27 51l100 201q23 51 70 51h178q27 0 34.5 -14.5t-7.5 -36.5z" />
    <glyph glyph-name="Thorn" unicode="&#xde;" horiz-adv-x="1187" 
d="M420 1341v-321h203q134 0 233 -27.5t154.5 -75.5t81.5 -105.5t26 -125.5v-174q0 -68 -26 -125.5t-81.5 -105.5t-154.5 -75.5t-233 -27.5h-203v-127q0 -27 -11 -39t-38 -12h-178q-27 0 -38.5 12t-11.5 39v1290q0 27 11.5 39.5t38.5 12.5h178q27 0 38 -12.5t11 -39.5z
M623 793h-203v-387h203q105 0 164 39t59 114v80q0 75 -59 114.5t-164 39.5z" />
    <glyph glyph-name="germandbls" unicode="&#xdf;" horiz-adv-x="1312" 
d="M469 1133v-1080q0 -28 -11 -40.5t-38 -12.5h-170q-27 0 -39 12.5t-12 40.5v750h-111q-26 0 -37.5 11.5t-11.5 39.5v102q0 26 12 37t37 13l105 10h6v131q0 140 117.5 221.5t349.5 81.5q231 0 341.5 -79.5t110.5 -223.5v-72q0 -65 -39.5 -113t-101.5 -75l-137 -60
q-3 -1 -11.5 -5t-11.5 -5.5l-10 -5t-10 -6.5t-6.5 -8t-5 -10.5t-1.5 -12.5v-4q0 -39 66 -65l237 -109q72 -32 127.5 -90.5t55.5 -134.5v-92q0 -295 -367 -295q-101 0 -169.5 19t-106.5 57t-54 88t-16 120v11q0 28 11.5 39.5t37.5 11.5h117q28 0 39.5 -11.5t11.5 -39.5v-21
q0 -53 29.5 -78.5t95.5 -25.5q127 0 127 104v66q0 22 -15 40.5t-28.5 25.5t-34.5 16l-219 96q-80 35 -124 89t-44 146v41q0 63 37 109t96 71l94 41q80 36 80 99v35q0 124 -200 124q-199 0 -199 -124z" />
    <glyph glyph-name="agrave" unicode="&#xe0;" horiz-adv-x="1058" 
d="M123 715v26q0 295 414 295q216 0 313.5 -76t97.5 -219v-688q0 -28 -11.5 -40.5t-37.5 -12.5h-154q-26 0 -36 11.5t-13 41.5l-4 43q-135 -112 -303 -112q-143 0 -219 73.5t-76 182.5v92q0 109 81 183.5t226 74.5h283v131q0 59 -34 87t-120 28t-121.5 -25t-35.5 -82v-14
q0 -28 -11.5 -39.5t-37.5 -11.5h-152q-27 0 -38 11.5t-11 39.5zM459 197q107 0 225 88v116h-229q-56 0 -77.5 -24t-21.5 -68v-33q0 -79 103 -79zM438 1182l-147 217q-15 22 -8.5 36.5t32.5 14.5h179q48 0 71 -51l99 -201q22 -51 -27 -51h-133q-41 0 -66 35z" />
    <glyph glyph-name="aacute" unicode="&#xe1;" horiz-adv-x="1058" 
d="M123 715v26q0 295 414 295q216 0 313.5 -76t97.5 -219v-688q0 -28 -11.5 -40.5t-37.5 -12.5h-154q-26 0 -36 11.5t-13 41.5l-4 43q-135 -112 -303 -112q-143 0 -219 73.5t-76 182.5v92q0 109 81 183.5t226 74.5h283v131q0 59 -34 87t-120 28t-121.5 -25t-35.5 -82v-14
q0 -28 -11.5 -39.5t-37.5 -11.5h-152q-27 0 -38 11.5t-11 39.5zM459 197q107 0 225 88v116h-229q-56 0 -77.5 -24t-21.5 -68v-33q0 -79 103 -79zM772 1399l-147 -217q-25 -35 -66 -35h-133q-49 0 -27 51l99 201q23 51 71 51h179q26 0 32.5 -14.5t-8.5 -36.5z" />
    <glyph glyph-name="acircumflex" unicode="&#xe2;" horiz-adv-x="1058" 
d="M123 715v26q0 295 414 295q216 0 313.5 -76t97.5 -219v-688q0 -28 -11.5 -40.5t-37.5 -12.5h-154q-26 0 -36 11.5t-13 41.5l-4 43q-135 -112 -303 -112q-143 0 -219 73.5t-76 182.5v92q0 109 81 183.5t226 74.5h283v131q0 59 -34 87t-120 28t-121.5 -25t-35.5 -82v-14
q0 -28 -11.5 -39.5t-37.5 -11.5h-152q-27 0 -38 11.5t-11 39.5zM459 197q107 0 225 88v116h-229q-56 0 -77.5 -24t-21.5 -68v-33q0 -79 103 -79zM535 1290l-52 -92q-27 -51 -69 -51h-131q-26 0 -34 14.5t7 36.5l150 201q35 51 79 51h99q40 0 80 -51l149 -201q15 -22 7 -36.5
t-34 -14.5h-131q-43 0 -69 51z" />
    <glyph glyph-name="atilde" unicode="&#xe3;" horiz-adv-x="1058" 
d="M123 715v26q0 295 414 295q216 0 313.5 -76t97.5 -219v-688q0 -28 -11.5 -40.5t-37.5 -12.5h-154q-26 0 -36 11.5t-13 41.5l-4 43q-135 -112 -303 -112q-143 0 -219 73.5t-76 182.5v92q0 109 81 183.5t226 74.5h283v131q0 59 -34 87t-120 28t-121.5 -25t-35.5 -82v-14
q0 -28 -11.5 -39.5t-37.5 -11.5h-152q-27 0 -38 11.5t-11 39.5zM459 197q107 0 225 88v116h-229q-56 0 -77.5 -24t-21.5 -68v-33q0 -79 103 -79zM418 1243q-19 0 -26.5 -10.5t-12.5 -38.5l-2 -12q-4 -26 -16 -35.5t-37 -9.5h-91q-47 0 -40 59l8 86q7 75 57 116.5t121 41.5
q65 0 121 -27l86 -41q8 -4 22 -10.5t22 -10.5t17.5 -7t16.5 -3q38 0 38 50v10q0 45 56 45h88q26 0 35.5 -15t7.5 -45l-6 -79q-6 -78 -53.5 -119t-114.5 -41q-69 0 -131 27l-88 38q-10 4 -29 13.5t-30 13.5t-19 4z" />
    <glyph glyph-name="adieresis" unicode="&#xe4;" horiz-adv-x="1058" 
d="M123 715v26q0 295 414 295q216 0 313.5 -76t97.5 -219v-688q0 -28 -11.5 -40.5t-37.5 -12.5h-154q-26 0 -36 11.5t-13 41.5l-4 43q-135 -112 -303 -112q-143 0 -219 73.5t-76 182.5v92q0 109 81 183.5t226 74.5h283v131q0 59 -34 87t-120 28t-121.5 -25t-35.5 -82v-14
q0 -28 -11.5 -39.5t-37.5 -11.5h-152q-27 0 -38 11.5t-11 39.5zM459 197q107 0 225 88v116h-229q-56 0 -77.5 -24t-21.5 -68v-33q0 -79 103 -79zM489 1395v-191q0 -28 -10.5 -39.5t-36.5 -11.5h-100q-27 0 -38 11.5t-11 39.5v191q0 28 11 39.5t38 11.5h100q26 0 36.5 -11.5
t10.5 -39.5zM776 1395v-191q0 -28 -10.5 -39.5t-36.5 -11.5h-100q-28 0 -39.5 11.5t-11.5 39.5v191q0 28 11.5 39.5t39.5 11.5h100q26 0 36.5 -11.5t10.5 -39.5z" />
    <glyph glyph-name="aring" unicode="&#xe5;" horiz-adv-x="1058" 
d="M123 715v26q0 295 414 295q216 0 313.5 -76t97.5 -219v-688q0 -28 -11.5 -40.5t-37.5 -12.5h-154q-26 0 -36 11.5t-13 41.5l-4 43q-135 -112 -303 -112q-143 0 -219 73.5t-76 182.5v92q0 109 81 183.5t226 74.5h283v131q0 59 -34 87t-120 28t-121.5 -25t-35.5 -82v-14
q0 -28 -11.5 -39.5t-37.5 -11.5h-152q-27 0 -38 11.5t-11 39.5zM459 197q107 0 225 88v116h-229q-56 0 -77.5 -24t-21.5 -68v-33q0 -79 103 -79zM766 1339v-69q0 -68 -57 -112t-168 -44q-112 0 -170 44t-58 112v69q0 68 58 112t170 44q111 0 168 -44t57 -112zM623 1288v31
q0 61 -82 61q-84 0 -84 -61v-31q0 -61 84 -61q82 0 82 61z" />
    <glyph glyph-name="ae" unicode="&#xe6;" horiz-adv-x="1607" 
d="M1518 735v-233q0 -47 -48 -47h-524v-162q0 -56 37.5 -83.5t122.5 -27.5t122.5 28.5t37.5 84.5v14q0 26 11.5 37.5t39.5 11.5h141q28 0 39.5 -11.5t11.5 -37.5v-24q0 -145 -94.5 -223t-308.5 -78q-275 0 -365 127q-164 -127 -352 -127q-146 0 -221.5 73.5t-75.5 182.5v88
q0 108 82 182t227 74h283v151q0 107 -154 107q-86 0 -121.5 -25t-35.5 -82v-20q0 -27 -11.5 -38t-39.5 -11h-150q-28 0 -39.5 11t-11.5 38v28q0 293 414 293q194 0 276 -92q99 92 295 92q412 0 412 -301zM459 193q99 0 225 94v116h-233q-52 0 -74.5 -25t-22.5 -65v-39
q0 -42 29 -61.5t76 -19.5zM946 723v-90h320v90q0 115 -160 115t-160 -115z" />
    <glyph glyph-name="ccedilla" unicode="&#xe7;" horiz-adv-x="1007" 
d="M516 -92h62q83 0 131.5 -41.5t48.5 -126.5q0 -86 -48.5 -129t-131.5 -43h-244q-28 0 -39.5 11.5t-11.5 39.5v41q0 27 11.5 38t39.5 11h201q38 0 38 31q0 33 -38 33h-154q-84 0 -64 67l45 158q-262 49 -262 289v448q0 143 102 222t320 79q216 0 318 -79t102 -222v-35
q0 -27 -11 -38t-38 -11h-158q-28 0 -39.5 11t-11.5 38v15q0 58 -35.5 83t-122.5 25q-86 0 -121.5 -25t-35.5 -83v-408q0 -58 35.5 -84t121.5 -26t122 26t36 84v31q0 28 11.5 39.5t39.5 11.5h158q26 0 37.5 -11.5t11.5 -39.5v-51q0 -297 -405 -303z" />
    <glyph glyph-name="egrave" unicode="&#xe8;" horiz-adv-x="1024" 
d="M932 735v-237q0 -25 -10.5 -36t-34.5 -11h-525v-152q0 -57 36.5 -85t123.5 -28t123.5 28t36.5 85v10q0 27 12 39t39 12h144q51 0 51 -51v-22q0 -146 -96 -224.5t-312 -78.5q-420 0 -420 303v448q0 143 102 222t320 79q410 0 410 -301zM362 721v-90h320v90q0 113 -160 113
q-85 0 -122.5 -28.5t-37.5 -84.5zM399 1182l-147 217q-15 22 -8.5 36.5t32.5 14.5h179q48 0 71 -51l99 -201q22 -51 -27 -51h-133q-41 0 -66 35z" />
    <glyph glyph-name="eacute" unicode="&#xe9;" horiz-adv-x="1024" 
d="M770 1399l-147 -217q-25 -35 -66 -35h-133q-49 0 -27 51l99 201q23 51 71 51h178q26 0 33 -14.5t-8 -36.5zM932 735v-237q0 -25 -10.5 -36t-34.5 -11h-525v-152q0 -57 36.5 -85t123.5 -28t123.5 28t36.5 85v10q0 27 12 39t39 12h144q51 0 51 -51v-22q0 -146 -96 -224.5
t-312 -78.5q-420 0 -420 303v448q0 143 102 222t320 79q410 0 410 -301zM362 721v-90h320v90q0 113 -160 113q-85 0 -122.5 -28.5t-37.5 -84.5z" />
    <glyph glyph-name="ecircumflex" unicode="&#xea;" horiz-adv-x="1024" 
d="M522 1290l-51 -92q-27 -51 -70 -51h-131q-26 0 -33.5 14.5t7.5 36.5l149 201q35 51 80 51h98q40 0 80 -51l150 -201q15 -22 7 -36.5t-34 -14.5h-131q-44 0 -70 51zM932 735v-237q0 -25 -10.5 -36t-34.5 -11h-525v-152q0 -57 36.5 -85t123.5 -28t123.5 28t36.5 85v10
q0 27 12 39t39 12h144q51 0 51 -51v-22q0 -146 -96 -224.5t-312 -78.5q-420 0 -420 303v448q0 143 102 222t320 79q410 0 410 -301zM362 721v-90h320v90q0 113 -160 113q-85 0 -122.5 -28.5t-37.5 -84.5z" />
    <glyph glyph-name="edieresis" unicode="&#xeb;" horiz-adv-x="1024" 
d="M473 1395v-191q0 -28 -10.5 -39.5t-36.5 -11.5h-100q-28 0 -39 11.5t-11 39.5v191q0 28 11 39.5t39 11.5h100q26 0 36.5 -11.5t10.5 -39.5zM760 1395v-191q0 -28 -10.5 -39.5t-36.5 -11.5h-101q-28 0 -39.5 11.5t-11.5 39.5v191q0 28 11.5 39.5t39.5 11.5h101
q26 0 36.5 -11.5t10.5 -39.5zM932 735v-237q0 -25 -10.5 -36t-34.5 -11h-525v-152q0 -57 36.5 -85t123.5 -28t123.5 28t36.5 85v10q0 27 12 39t39 12h144q51 0 51 -51v-22q0 -146 -96 -224.5t-312 -78.5q-420 0 -420 303v448q0 143 102 222t320 79q410 0 410 -301zM362 721
v-90h320v90q0 113 -160 113q-85 0 -122.5 -28.5t-37.5 -84.5z" />
    <glyph glyph-name="igrave" unicode="&#xec;" horiz-adv-x="512" 
d="M389 969v-918q0 -27 -10.5 -39t-36.5 -12h-170q-27 0 -39 12t-12 39v918q0 27 12 39t39 12h170q26 0 36.5 -12t10.5 -39zM127 1182l-147 217q-15 22 -8.5 36.5t32.5 14.5h178q49 0 72 -51l98 -201q22 -51 -26 -51h-133q-41 0 -66 35z" />
    <glyph glyph-name="iacute" unicode="&#xed;" horiz-adv-x="512" 
d="M526 1399l-147 -217q-25 -35 -66 -35h-133q-48 0 -26 51l98 201q23 51 72 51h178q26 0 32.5 -14.5t-8.5 -36.5zM389 969v-918q0 -27 -10.5 -39t-36.5 -12h-170q-27 0 -39 12t-12 39v918q0 27 12 39t39 12h170q26 0 36.5 -12t10.5 -39z" />
    <glyph glyph-name="icircumflex" unicode="&#xee;" horiz-adv-x="512" 
d="M262 1290l-51 -92q-27 -51 -70 -51h-131q-26 0 -33.5 14.5t7.5 36.5l149 201q35 51 80 51h98q40 0 80 -51l150 -201q15 -22 7 -36.5t-34 -14.5h-131q-44 0 -70 51zM389 969v-918q0 -27 -10.5 -39t-36.5 -12h-170q-27 0 -39 12t-12 39v918q0 27 12 39t39 12h170
q26 0 36.5 -12t10.5 -39z" />
    <glyph glyph-name="idieresis" unicode="&#xef;" horiz-adv-x="512" 
d="M213 1395v-191q0 -28 -10.5 -39.5t-36.5 -11.5h-100q-28 0 -39 11.5t-11 39.5v191q0 28 11 39.5t39 11.5h100q26 0 36.5 -11.5t10.5 -39.5zM500 1395v-191q0 -28 -10.5 -39.5t-36.5 -11.5h-101q-28 0 -39.5 11.5t-11.5 39.5v191q0 28 11.5 39.5t39.5 11.5h101
q26 0 36.5 -11.5t10.5 -39.5zM389 969v-918q0 -27 -10.5 -39t-36.5 -12h-170q-27 0 -39 12t-12 39v918q0 27 12 39t39 12h170q26 0 36.5 -12t10.5 -39z" />
    <glyph glyph-name="eth" unicode="&#xf0;" horiz-adv-x="1163" 
d="M571 1194l91 47q-36 23 -115 23h-199q-53 0 -53 51v86q0 26 12.5 37.5t40.5 11.5h199q218 0 327 -88l91 49q46 26 69 -18l19 -31q25 -39 -21 -66l-80 -45q17 -44 17 -102v-864q0 -142 -104 -221.5t-322 -79.5q-220 0 -331.5 80t-111.5 221v452q0 141 74.5 220t222.5 79
q176 0 320 -110v168q0 11 -6 20l-72 -35q-45 -23 -70 19l-18 30q-24 43 20 66zM717 307v404q-122 94 -236 94q-65 0 -88.5 -29.5t-23.5 -79.5v-389q0 -112 174 -112t174 112z" />
    <glyph glyph-name="ntilde" unicode="&#xf1;" horiz-adv-x="1118" 
d="M172 1020h158q27 0 37 -11t12 -38l4 -49q138 114 328 114q138 0 217.5 -76t79.5 -198v-709q0 -28 -12 -40.5t-40 -12.5h-165q-54 0 -54 53v641q0 58 -23.5 83.5t-86.5 25.5q-118 0 -238 -92v-658q0 -28 -10.5 -40.5t-36.5 -12.5h-170q-27 0 -39 12.5t-12 40.5v918
q0 26 11.5 37.5t39.5 11.5zM432 1260q-19 0 -26.5 -11t-12.5 -39l-2 -12q-4 -26 -16 -35.5t-37 -9.5h-90q-48 0 -41 59l8 86q7 75 57 116.5t121 41.5q67 0 121 -26l86 -41q8 -4 22 -10.5t22 -10.5t17.5 -7t16.5 -3q39 0 39 49v10q0 45 55 45h88q26 0 35.5 -14.5t7.5 -44.5
l-6 -80q-6 -78 -53.5 -119t-114.5 -41q-69 0 -131 27l-88 39q-10 4 -29 13.5t-30 13.5t-19 4z" />
    <glyph glyph-name="ograve" unicode="&#xf2;" horiz-adv-x="1085" 
d="M100 287v448q0 141 111.5 221t331.5 80t331 -80t111 -221v-448q0 -142 -111 -222.5t-331 -80.5t-331.5 80.5t-111.5 222.5zM717 309v404q0 110 -174 110t-174 -110v-404q0 -112 174 -112t174 112zM424 1182l-148 217q-15 22 -8 36.5t33 14.5h178q49 0 72 -51l98 -201
q22 -51 -26 -51h-134q-40 0 -65 35z" />
    <glyph glyph-name="oacute" unicode="&#xf3;" horiz-adv-x="1085" 
d="M807 1399l-148 -217q-25 -35 -65 -35h-133q-49 0 -27 51l98 201q23 51 72 51h178q26 0 33 -14.5t-8 -36.5zM100 287v448q0 141 111.5 221t331.5 80t331 -80t111 -221v-448q0 -142 -111 -222.5t-331 -80.5t-331.5 80.5t-111.5 222.5zM717 309v404q0 110 -174 110
t-174 -110v-404q0 -112 174 -112t174 112z" />
    <glyph glyph-name="ocircumflex" unicode="&#xf4;" horiz-adv-x="1085" 
d="M547 1290l-51 -92q-27 -51 -70 -51h-131q-26 0 -34 14.5t7 36.5l150 201q35 51 80 51h98q40 0 80 -51l149 -201q15 -22 7.5 -36.5t-33.5 -14.5h-131q-44 0 -70 51zM100 287v448q0 141 111.5 221t331.5 80t331 -80t111 -221v-448q0 -142 -111 -222.5t-331 -80.5
t-331.5 80.5t-111.5 222.5zM717 309v404q0 110 -174 110t-174 -110v-404q0 -112 174 -112t174 112z" />
    <glyph glyph-name="otilde" unicode="&#xf5;" horiz-adv-x="1085" 
d="M100 287v448q0 141 111.5 221t331.5 80t331 -80t111 -221v-448q0 -142 -111 -222.5t-331 -80.5t-331.5 80.5t-111.5 222.5zM717 309v404q0 110 -174 110t-174 -110v-404q0 -112 174 -112t174 112zM424 1243q-19 0 -26.5 -10.5t-12.5 -38.5l-2 -12q-4 -26 -16 -35.5
t-37 -9.5h-90q-48 0 -41 59l8 86q7 75 57 116.5t121 41.5q65 0 121 -27l86 -41q8 -4 22 -10.5t22 -10.5t17.5 -7t16.5 -3q39 0 39 50v10q0 45 55 45h88q26 0 35.5 -15t7.5 -45l-6 -79q-6 -78 -53.5 -119t-114.5 -41q-69 0 -131 27l-88 38q-10 4 -29 13.5t-30 13.5t-19 4z
" />
    <glyph glyph-name="odieresis" unicode="&#xf6;" horiz-adv-x="1085" 
d="M502 1395v-191q0 -28 -10.5 -39.5t-36.5 -11.5h-101q-27 0 -38 11.5t-11 39.5v191q0 28 11 39.5t38 11.5h101q26 0 36.5 -11.5t10.5 -39.5zM788 1395v-191q0 -28 -10.5 -39.5t-36.5 -11.5h-100q-28 0 -39.5 11.5t-11.5 39.5v191q0 28 11.5 39.5t39.5 11.5h100
q26 0 36.5 -11.5t10.5 -39.5zM100 287v448q0 141 111.5 221t331.5 80t331 -80t111 -221v-448q0 -142 -111 -222.5t-331 -80.5t-331.5 80.5t-111.5 222.5zM717 309v404q0 110 -174 110t-174 -110v-404q0 -112 174 -112t174 112z" />
    <glyph glyph-name="divide" unicode="&#xf7;" horiz-adv-x="1189" 
d="M172 721h844q27 0 39 -11t12 -38v-123q0 -26 -11.5 -37.5t-39.5 -11.5h-844q-51 0 -51 49v123q0 27 12 38t39 11zM731 330v-166q0 -28 -11 -39.5t-38 -11.5h-174q-28 0 -39.5 11.5t-11.5 39.5v166q0 28 11.5 39.5t39.5 11.5h174q27 0 38 -11.5t11 -39.5zM731 1059v-166
q0 -28 -11 -39.5t-38 -11.5h-174q-28 0 -39.5 11.5t-11.5 39.5v166q0 28 11.5 39.5t39.5 11.5h174q27 0 38 -11.5t11 -39.5z" />
    <glyph glyph-name="oslash" unicode="&#xf8;" horiz-adv-x="1085" 
d="M100 287v448q0 141 111.5 221t331.5 80q114 0 200 -22l13 20q8 16 13 23.5t13.5 18.5t19 15.5t23.5 4.5h58q46 0 12 -62l-37 -69q127 -77 127 -230v-448q0 -142 -111 -222.5t-331 -80.5q-115 0 -205 22l-8 -14q-14 -26 -21 -36.5t-20.5 -18t-34.5 -7.5h-51
q-24 0 -25 21.5t12 40.5l35 63q-125 79 -125 232zM717 309v396l-271 -498q34 -10 97 -10q174 0 174 112zM369 713v-394l266 492q-37 12 -92 12q-174 0 -174 -110z" />
    <glyph glyph-name="ugrave" unicode="&#xf9;" 
d="M725 51l-4 45q-126 -112 -315 -112q-137 0 -216 76t-79 198v711q0 28 11.5 39.5t37.5 11.5h168q27 0 39 -12t12 -39v-643q0 -58 24 -83.5t86 -25.5q114 0 226 90v662q0 28 11 39.5t38 11.5h170q26 0 37.5 -11.5t11.5 -39.5v-918q0 -28 -11.5 -39.5t-37.5 -11.5h-158
q-27 0 -37.5 11t-13.5 40zM426 1182l-147 217q-15 22 -8.5 36.5t32.5 14.5h178q49 0 72 -51l98 -201q22 -51 -26 -51h-133q-41 0 -66 35z" />
    <glyph glyph-name="uacute" unicode="&#xfa;" 
d="M811 1399l-147 -217q-25 -35 -66 -35h-133q-49 0 -27 51l99 201q23 51 71 51h178q26 0 33 -14.5t-8 -36.5zM725 51l-4 45q-126 -112 -315 -112q-137 0 -216 76t-79 198v711q0 28 11.5 39.5t37.5 11.5h168q27 0 39 -12t12 -39v-643q0 -58 24 -83.5t86 -25.5q114 0 226 90
v662q0 28 11 39.5t38 11.5h170q26 0 37.5 -11.5t11.5 -39.5v-918q0 -28 -11.5 -39.5t-37.5 -11.5h-158q-27 0 -37.5 11t-13.5 40z" />
    <glyph glyph-name="ucircumflex" unicode="&#xfb;" 
d="M526 1290l-51 -92q-27 -51 -69 -51h-132q-26 0 -33.5 14.5t7.5 36.5l149 201q35 51 80 51h98q40 0 80 -51l150 -201q15 -22 7 -36.5t-34 -14.5h-131q-43 0 -69 51zM725 51l-4 45q-126 -112 -315 -112q-137 0 -216 76t-79 198v711q0 28 11.5 39.5t37.5 11.5h168
q27 0 39 -12t12 -39v-643q0 -58 24 -83.5t86 -25.5q114 0 226 90v662q0 28 11 39.5t38 11.5h170q26 0 37.5 -11.5t11.5 -39.5v-918q0 -28 -11.5 -39.5t-37.5 -11.5h-158q-27 0 -37.5 11t-13.5 40z" />
    <glyph glyph-name="udieresis" unicode="&#xfc;" 
d="M500 1395v-191q0 -28 -10.5 -39.5t-36.5 -11.5h-101q-27 0 -38 11.5t-11 39.5v191q0 28 11 39.5t38 11.5h101q26 0 36.5 -11.5t10.5 -39.5zM786 1395v-191q0 -28 -10.5 -39.5t-36.5 -11.5h-100q-28 0 -39.5 11.5t-11.5 39.5v191q0 28 11.5 39.5t39.5 11.5h100
q26 0 36.5 -11.5t10.5 -39.5zM725 51l-4 45q-126 -112 -315 -112q-137 0 -216 76t-79 198v711q0 28 11.5 39.5t37.5 11.5h168q27 0 39 -12t12 -39v-643q0 -58 24 -83.5t86 -25.5q114 0 226 90v662q0 28 11 39.5t38 11.5h170q26 0 37.5 -11.5t11.5 -39.5v-918
q0 -28 -11.5 -39.5t-37.5 -11.5h-158q-27 0 -37.5 11t-13.5 40z" />
    <glyph glyph-name="yacute" unicode="&#xfd;" horiz-adv-x="970" 
d="M297 969l154 -469q8 -25 14.5 -56t10 -53t6.5 -42t3 -21q0 1 3 13.5t6.5 29.5t8.5 37.5t12 43t13 40.5l162 477q8 27 19 39t36 12h156q29 0 43.5 -13.5t5.5 -37.5l-452 -1329q-15 -52 -58 -52h-123q-29 0 -42.5 13.5t-6.5 38.5l101 333l-346 996q-9 24 5 37.5t42 13.5
h170q26 0 37 -12t20 -39zM764 1399l-148 -217q-25 -35 -65 -35h-133q-49 0 -27 51l98 201q23 51 72 51h178q26 0 33 -14.5t-8 -36.5z" />
    <glyph glyph-name="thorn" unicode="&#xfe;" 
d="M389 1380v-454q144 110 320 110q150 0 224.5 -79t74.5 -220v-454q0 -141 -74.5 -220t-224.5 -79q-172 0 -320 108v-452q0 -28 -10.5 -40t-36.5 -12h-170q-28 0 -39.5 12t-11.5 40v1740q0 52 51 52h168q27 0 38 -12.5t11 -39.5zM737 324v372q0 50 -23 79.5t-87 29.5
q-116 0 -238 -94v-402q122 -94 238 -94q64 0 87 29.5t23 79.5z" />
    <glyph glyph-name="ydieresis" unicode="&#xff;" horiz-adv-x="970" 
d="M297 969l154 -469q8 -25 14.5 -56t10 -53t6.5 -42t3 -21q0 1 3 13.5t6.5 29.5t8.5 37.5t12 43t13 40.5l162 477q8 27 19 39t36 12h156q29 0 43.5 -13.5t5.5 -37.5l-452 -1329q-15 -52 -58 -52h-123q-29 0 -42.5 13.5t-6.5 38.5l101 333l-346 996q-9 24 5 37.5t42 13.5
h170q26 0 37 -12t20 -39zM446 1395v-191q0 -28 -10.5 -39.5t-36.5 -11.5h-100q-27 0 -38 11.5t-11 39.5v191q0 28 11 39.5t38 11.5h100q26 0 36.5 -11.5t10.5 -39.5zM733 1395v-191q0 -28 -10.5 -39.5t-36.5 -11.5h-100q-28 0 -39.5 11.5t-11.5 39.5v191q0 28 11.5 39.5
t39.5 11.5h100q26 0 36.5 -11.5t10.5 -39.5z" />
    <glyph glyph-name="Amacron" unicode="&#x100;" horiz-adv-x="1132" 
d="M477 1393h178q51 0 66 -52l381 -1290q15 -51 -37 -51h-184q-45 0 -60 51l-71 250h-381l-72 -250q-8 -27 -21.5 -39t-39.5 -12h-166q-54 0 -39 51l383 1290q8 27 22 39.5t41 12.5zM688 520l-67 228q-17 54 -37 191t-23 181q-46 -313 -63 -370l-70 -230h260zM330 1739h473
q27 0 39 -10.5t12 -36.5v-105q0 -27 -12 -39t-39 -12h-473q-27 0 -39 12t-12 39v105q0 26 12 36.5t39 10.5z" />
    <glyph glyph-name="amacron" unicode="&#x101;" horiz-adv-x="1058" 
d="M123 715v26q0 295 414 295q216 0 313.5 -76t97.5 -219v-688q0 -28 -11.5 -40.5t-37.5 -12.5h-154q-26 0 -36 11.5t-13 41.5l-4 43q-135 -112 -303 -112q-143 0 -219 73.5t-76 182.5v92q0 109 81 183.5t226 74.5h283v131q0 59 -34 87t-120 28t-121.5 -25t-35.5 -82v-14
q0 -28 -11.5 -39.5t-37.5 -11.5h-152q-27 0 -38 11.5t-11 39.5zM459 197q107 0 225 88v116h-229q-56 0 -77.5 -24t-21.5 -68v-33q0 -79 103 -79zM293 1374h471q28 0 39.5 -11t11.5 -38v-104q0 -27 -11.5 -38.5t-39.5 -11.5h-471q-53 0 -53 50v104q0 27 12.5 38t40.5 11z" />
    <glyph glyph-name="Abreve" unicode="&#x102;" horiz-adv-x="1132" 
d="M477 1393h178q51 0 66 -52l381 -1290q15 -51 -37 -51h-184q-45 0 -60 51l-71 250h-381l-72 -250q-8 -27 -21.5 -39t-39.5 -12h-166q-54 0 -39 51l383 1290q8 27 22 39.5t41 12.5zM688 520l-67 228q-17 54 -37 191t-23 181q-46 -313 -63 -370l-70 -230h260zM475 1761v-35
q0 -43 20.5 -66.5t71.5 -23.5t71.5 23.5t20.5 66.5v35q0 23 10.5 32t35.5 9h102q25 0 35 -9t10 -32v-28q0 -122 -75 -188t-216 -66q-139 0 -208.5 65.5t-69.5 188.5v28q0 23 10 32t35 9h102q25 0 35 -9t10 -32z" />
    <glyph glyph-name="abreve" unicode="&#x103;" horiz-adv-x="1058" 
d="M123 715v26q0 295 414 295q216 0 313.5 -76t97.5 -219v-688q0 -28 -11.5 -40.5t-37.5 -12.5h-154q-26 0 -36 11.5t-13 41.5l-4 43q-135 -112 -303 -112q-143 0 -219 73.5t-76 182.5v92q0 109 81 183.5t226 74.5h283v131q0 59 -34 87t-120 28t-121.5 -25t-35.5 -82v-14
q0 -28 -11.5 -39.5t-37.5 -11.5h-152q-27 0 -38 11.5t-11 39.5zM459 197q107 0 225 88v116h-229q-56 0 -77.5 -24t-21.5 -68v-33q0 -79 103 -79zM465 1403v-35q0 -90 94 -90q51 0 71.5 23.5t20.5 66.5v35q0 23 10 33t35 10h101q25 0 35 -10t10 -33v-29q0 -122 -75 -188
t-216 -66q-138 0 -207.5 65.5t-69.5 188.5v29q0 23 10 33t35 10h101q25 0 35 -10t10 -33z" />
    <glyph glyph-name="Aogonek" unicode="&#x104;" horiz-adv-x="1134" 
d="M657 1393q49 0 64 -52l383 -1290q15 -51 -39 -51h-72q-94 0 -94 -115q0 -32 18 -48.5t60 -16.5h51q28 0 39.5 -11t11.5 -38v-70q0 -51 -67 -51h-113q-26 0 -51.5 4.5t-53.5 16.5t-49 31.5t-35 51.5t-14 74q0 51 25.5 118.5t91.5 129.5l-65 225h-381l-70 -250
q-8 -27 -21.5 -39t-39.5 -12h-168q-52 0 -37 51l383 1290q15 52 63 52h180zM688 520l-67 228q-16 57 -36.5 195t-23.5 175q-46 -311 -63 -368l-70 -230h260z" />
    <glyph glyph-name="aogonek" unicode="&#x105;" horiz-adv-x="1058" 
d="M123 715v26q0 295 414 295q216 0 313.5 -76t97.5 -219v-688q0 -28 -11.5 -40.5t-37.5 -12.5h-12q-47 -1 -70.5 -33.5t-23.5 -83.5q0 -63 77 -63h29q27 0 39 -11t12 -38v-70q0 -51 -67 -51h-95q-32 0 -64 8.5t-63.5 27.5t-51 56t-19.5 86q0 125 106 227l-4 41
q-135 -112 -303 -112q-143 0 -219 73.5t-76 182.5v92q0 109 81 183.5t226 74.5h283v131q0 59 -34 87t-120 28t-121.5 -25t-35.5 -82v-14q0 -28 -11.5 -39.5t-37.5 -11.5h-152q-27 0 -38 11.5t-11 39.5zM459 197q107 0 225 88v116h-229q-56 0 -77.5 -24t-21.5 -68v-33
q0 -79 103 -79z" />
    <glyph glyph-name="Cacute" unicode="&#x106;" horiz-adv-x="1165" 
d="M1083 444v-127q0 -54 -14 -101t-49 -90.5t-88.5 -74t-137.5 -49t-192 -18.5t-192 18.5t-137.5 49t-88.5 74t-49 90.5t-14 101v758q0 54 14 101t49 90.5t88.5 74.5t137.5 49.5t192 18.5t192 -18.5t137.5 -49.5t88.5 -74.5t49 -90.5t14 -101v-98q0 -28 -10.5 -39.5
t-36.5 -11.5h-170q-28 0 -39.5 11.5t-11.5 39.5v49q0 154 -209 154q-207 0 -207 -154v-659q0 -154 207 -154q209 0 209 154v77q0 28 11.5 40t39.5 12h170q26 0 36.5 -12t10.5 -40zM862 1747l-149 -217q-25 -35 -66 -35h-133q-53 0 -27 51l101 201q23 51 69 51h179
q27 0 34 -14.5t-8 -36.5z" />
    <glyph glyph-name="cacute" unicode="&#x107;" horiz-adv-x="1007" 
d="M780 1399l-147 -217q-25 -35 -66 -35h-133q-48 0 -26 51l98 201q23 51 72 51h178q26 0 32.5 -14.5t-8.5 -36.5zM522 1036q216 0 318 -79t102 -222v-35q0 -27 -11 -38t-38 -11h-158q-28 0 -39.5 11t-11.5 38v15q0 58 -35.5 83t-122.5 25q-86 0 -121.5 -25t-35.5 -83v-408
q0 -58 35.5 -84t121.5 -26t122 26t36 84v31q0 28 11.5 39.5t39.5 11.5h158q26 0 37.5 -11.5t11.5 -39.5v-51q0 -144 -102.5 -223.5t-319.5 -79.5q-420 0 -420 303v448q0 143 102 222t320 79z" />
    <glyph glyph-name="Ccircumflex" unicode="&#x108;" horiz-adv-x="1165" 
d="M1083 444v-127q0 -54 -14 -101t-49 -90.5t-88.5 -74t-137.5 -49t-192 -18.5t-192 18.5t-137.5 49t-88.5 74t-49 90.5t-14 101v758q0 54 14 101t49 90.5t88.5 74.5t137.5 49.5t192 18.5t192 -18.5t137.5 -49.5t88.5 -74.5t49 -90.5t14 -101v-98q0 -28 -10.5 -39.5
t-36.5 -11.5h-170q-28 0 -39.5 11.5t-11.5 39.5v49q0 154 -209 154q-207 0 -207 -154v-659q0 -154 207 -154q209 0 209 154v77q0 28 11.5 40t39.5 12h170q26 0 36.5 -12t10.5 -40zM592 1638l-51 -92q-27 -51 -70 -51h-131q-26 0 -34 14.5t7 36.5l150 201q35 51 80 51h98
q40 0 80 -51l149 -201q15 -22 7.5 -36.5t-33.5 -14.5h-131q-44 0 -70 51z" />
    <glyph glyph-name="ccircumflex" unicode="&#x109;" horiz-adv-x="1007" 
d="M504 1290l-51 -92q-27 -51 -70 -51h-131q-26 0 -34 14.5t7 36.5l150 201q35 51 80 51h98q40 0 80 -51l149 -201q15 -22 7.5 -36.5t-33.5 -14.5h-131q-44 0 -70 51zM522 1036q216 0 318 -79t102 -222v-35q0 -27 -11 -38t-38 -11h-158q-28 0 -39.5 11t-11.5 38v15
q0 58 -35.5 83t-122.5 25q-86 0 -121.5 -25t-35.5 -83v-408q0 -58 35.5 -84t121.5 -26t122 26t36 84v31q0 28 11.5 39.5t39.5 11.5h158q26 0 37.5 -11.5t11.5 -39.5v-51q0 -144 -102.5 -223.5t-319.5 -79.5q-420 0 -420 303v448q0 143 102 222t320 79z" />
    <glyph glyph-name="Cdotaccent" unicode="&#x10a;" horiz-adv-x="1165" 
d="M719 1718v-168q0 -28 -10.5 -38.5t-38.5 -10.5h-174q-28 0 -39 10.5t-11 38.5v168q0 27 11.5 39t38.5 12h174q27 0 38 -12t11 -39zM1083 444v-127q0 -54 -14 -101t-49 -90.5t-88.5 -74t-137.5 -49t-192 -18.5t-192 18.5t-137.5 49t-88.5 74t-49 90.5t-14 101v758
q0 54 14 101t49 90.5t88.5 74.5t137.5 49.5t192 18.5t192 -18.5t137.5 -49.5t88.5 -74.5t49 -90.5t14 -101v-98q0 -28 -10.5 -39.5t-36.5 -11.5h-170q-28 0 -39.5 11.5t-11.5 39.5v49q0 154 -209 154q-207 0 -207 -154v-659q0 -154 207 -154q209 0 209 154v77q0 28 11.5 40
t39.5 12h170q26 0 36.5 -12t10.5 -40z" />
    <glyph glyph-name="cdotaccent" unicode="&#x10b;" horiz-adv-x="1007" 
d="M522 1036q216 0 318 -79t102 -222v-35q0 -27 -11 -38t-38 -11h-158q-28 0 -39.5 11t-11.5 38v15q0 58 -35.5 83t-122.5 25q-86 0 -121.5 -25t-35.5 -83v-408q0 -58 35.5 -84t121.5 -26t122 26t36 84v31q0 28 11.5 39.5t39.5 11.5h158q26 0 37.5 -11.5t11.5 -39.5v-51
q0 -144 -102.5 -223.5t-319.5 -79.5q-420 0 -420 303v448q0 143 102 222t320 79zM639 1386v-165q0 -28 -10.5 -40t-36.5 -12h-176q-27 0 -38 12t-11 40v165q0 28 11 40t38 12h176q26 0 36.5 -12t10.5 -40z" />
    <glyph glyph-name="Ccaron" unicode="&#x10c;" horiz-adv-x="1165" 
d="M1083 444v-127q0 -54 -14 -101t-49 -90.5t-88.5 -74t-137.5 -49t-192 -18.5t-192 18.5t-137.5 49t-88.5 74t-49 90.5t-14 101v758q0 54 14 101t49 90.5t88.5 74.5t137.5 49.5t192 18.5t192 -18.5t137.5 -49.5t88.5 -74.5t49 -90.5t14 -101v-98q0 -28 -10.5 -39.5
t-36.5 -11.5h-170q-28 0 -39.5 11.5t-11.5 39.5v49q0 154 -209 154q-207 0 -207 -154v-659q0 -154 207 -154q209 0 209 154v77q0 28 11.5 40t39.5 12h170q26 0 36.5 -12t10.5 -40zM530 1749l52 -94l51 94q26 49 69 49h132q26 0 33.5 -14.5t-7.5 -34.5l-149 -203
q-40 -51 -80 -51h-99q-17 0 -32.5 8.5t-23.5 17t-23 27.5l-150 201q-15 20 -7 34.5t34 14.5h131q43 0 69 -49z" />
    <glyph glyph-name="ccaron" unicode="&#x10d;" horiz-adv-x="1007" 
d="M453 1401l51 -94l51 94q26 49 70 49h131q26 0 33.5 -14.5t-7.5 -34.5l-149 -203q-40 -51 -80 -51h-98q-17 0 -32.5 8t-24.5 17.5t-23 27.5l-150 201q-15 20 -7 34.5t34 14.5h131q44 0 70 -49zM522 1036q216 0 318 -79t102 -222v-35q0 -27 -11 -38t-38 -11h-158
q-28 0 -39.5 11t-11.5 38v15q0 58 -35.5 83t-122.5 25q-86 0 -121.5 -25t-35.5 -83v-408q0 -58 35.5 -84t121.5 -26t122 26t36 84v31q0 28 11.5 39.5t39.5 11.5h158q26 0 37.5 -11.5t11.5 -39.5v-51q0 -144 -102.5 -223.5t-319.5 -79.5q-420 0 -420 303v448q0 143 102 222
t320 79z" />
    <glyph glyph-name="Dcaron" unicode="&#x10e;" horiz-adv-x="1259" 
d="M639 0h-453q-24 0 -33.5 13t-9.5 40v1286q0 28 11.5 41t38.5 13h446q134 0 234 -27.5t156 -75.5t83 -105.5t27 -125.5v-725q0 -68 -27 -125.5t-83 -105.5t-156 -75.5t-234 -27.5zM639 1163h-219v-934h219q106 0 164.5 39.5t58.5 114.5v627q0 75 -58.5 114t-164.5 39z
M573 1749l52 -94l51 94q26 49 69 49h132q26 0 33.5 -14.5t-7.5 -34.5l-149 -203q-40 -51 -80 -51h-99q-17 0 -32.5 8.5t-23.5 17t-23 27.5l-150 201q-15 20 -7 34.5t34 14.5h131q43 0 69 -49z" />
    <glyph glyph-name="dcaron" unicode="&#x10f;" horiz-adv-x="1316" 
d="M1120 1405v61q0 28 11.5 40t39.5 12h125q27 0 38.5 -12t11.5 -40v-77q0 -123 -93 -273q-21 -36 -67 -26l-94 22q-51 12 -27 68q4 9 14.5 31t13 29t9.5 24.5t8.5 28t4.5 29t4 38t1 45.5zM727 53l-4 45q-144 -114 -326 -114q-148 0 -222.5 79t-74.5 220v454q0 141 74.5 220
t222.5 79q176 0 320 -110v452q0 29 11 41.5t38 12.5h170q49 0 49 -54v-1325q0 -28 -11.5 -40.5t-37.5 -12.5h-158q-27 0 -37.5 12t-13.5 41zM369 696v-370q0 -50 23.5 -79.5t88.5 -29.5q114 0 236 94v398q-122 94 -236 94q-65 0 -88.5 -29.5t-23.5 -77.5z" />
    <glyph glyph-name="Dcroat" unicode="&#x110;" horiz-adv-x="1259" 
d="M639 0h-453q-24 0 -33.5 13t-9.5 40v545h-86q-28 0 -40.5 12t-12.5 39v105q0 26 12.5 36.5t40.5 10.5h86v538q0 28 11.5 41t38.5 13h446q134 0 234 -27.5t156 -75.5t83 -105.5t27 -125.5v-725q0 -68 -27 -125.5t-83 -105.5t-156 -75.5t-234 -27.5zM639 1163h-219v-362
h184q28 0 39.5 -10.5t11.5 -36.5v-105q0 -28 -11.5 -39.5t-39.5 -11.5h-184v-369h219q106 0 164.5 39.5t58.5 114.5v627q0 75 -58.5 114t-164.5 39z" />
    <glyph glyph-name="dcroat" unicode="&#x111;" 
d="M727 53l-4 45q-144 -114 -326 -114q-148 0 -222.5 79t-74.5 220v454q0 141 74.5 220t222.5 79q176 0 320 -110v182h-191q-28 0 -39.5 11.5t-11.5 39.5v88q0 26 11.5 36.5t39.5 10.5h191v84q0 29 11 41.5t38 12.5h170q49 0 49 -54v-84h55q28 0 40 -10.5t12 -36.5v-88
q0 -28 -12 -39.5t-40 -11.5h-55v-1055q0 -28 -11.5 -40.5t-37.5 -12.5h-158q-27 0 -37.5 12t-13.5 41zM369 696v-370q0 -50 23.5 -79.5t88.5 -29.5q114 0 236 94v398q-122 94 -236 94q-65 0 -88.5 -29.5t-23.5 -77.5z" />
    <glyph glyph-name="Emacron" unicode="&#x112;" horiz-adv-x="1048" 
d="M913 0h-720q-27 0 -38.5 12.5t-11.5 40.5v1286q0 28 11.5 41t38.5 13h700q27 0 39 -11.5t12 -38.5v-129q0 -27 -12 -39t-39 -12h-473v-332h438q28 0 40.5 -11t12.5 -38v-123q0 -26 -12.5 -37.5t-40.5 -11.5h-438v-381h493q28 0 40 -11t12 -38v-129q0 -28 -12 -39.5
t-40 -11.5zM291 1739h473q27 0 39 -10.5t12 -36.5v-105q0 -27 -12 -39t-39 -12h-473q-27 0 -39 12t-12 39v105q0 26 12 36.5t39 10.5z" />
    <glyph glyph-name="emacron" unicode="&#x113;" horiz-adv-x="1024" 
d="M932 735v-237q0 -25 -10.5 -36t-34.5 -11h-525v-152q0 -57 36.5 -85t123.5 -28t123.5 28t36.5 85v10q0 27 12 39t39 12h144q51 0 51 -51v-22q0 -146 -96 -224.5t-312 -78.5q-420 0 -420 303v448q0 143 102 222t320 79q410 0 410 -301zM362 721v-90h320v90q0 113 -160 113
q-85 0 -122.5 -28.5t-37.5 -84.5zM276 1374h472q28 0 39.5 -11t11.5 -38v-104q0 -27 -11.5 -38.5t-39.5 -11.5h-472q-53 0 -53 50v104q0 27 12.5 38t40.5 11z" />
    <glyph glyph-name="Ebreve" unicode="&#x114;" horiz-adv-x="1048" 
d="M913 0h-720q-27 0 -38.5 12.5t-11.5 40.5v1286q0 28 11.5 41t38.5 13h700q27 0 39 -11.5t12 -38.5v-129q0 -27 -12 -39t-39 -12h-473v-332h438q28 0 40.5 -11t12.5 -38v-123q0 -26 -12.5 -37.5t-40.5 -11.5h-438v-381h493q28 0 40 -11t12 -38v-129q0 -28 -12 -39.5
t-40 -11.5zM432 1761v-35q0 -43 20.5 -66.5t71.5 -23.5t71.5 23.5t20.5 66.5v35q0 23 10.5 32t35.5 9h102q25 0 35 -9t10 -32v-28q0 -122 -75 -188t-216 -66q-139 0 -208.5 65.5t-69.5 188.5v28q0 23 10 32t35 9h102q25 0 35 -9t10 -32z" />
    <glyph glyph-name="ebreve" unicode="&#x115;" horiz-adv-x="1024" 
d="M932 735v-237q0 -25 -10.5 -36t-34.5 -11h-525v-152q0 -57 36.5 -85t123.5 -28t123.5 28t36.5 85v10q0 27 12 39t39 12h144q51 0 51 -51v-22q0 -146 -96 -224.5t-312 -78.5q-420 0 -420 303v448q0 143 102 222t320 79q410 0 410 -301zM362 721v-90h320v90q0 113 -160 113
q-85 0 -122.5 -28.5t-37.5 -84.5zM418 1403v-35q0 -90 94 -90q51 0 71.5 23.5t20.5 66.5v35q0 23 10 33t35 10h101q25 0 35 -10t10 -33v-29q0 -122 -75 -188t-216 -66q-138 0 -207.5 65.5t-69.5 188.5v29q0 23 10 33t35 10h101q25 0 35 -10t10 -33z" />
    <glyph glyph-name="Edotaccent" unicode="&#x116;" horiz-adv-x="1048" 
d="M674 1718v-168q0 -28 -10.5 -38.5t-38.5 -10.5h-174q-28 0 -39 10.5t-11 38.5v168q0 27 11.5 39t38.5 12h174q27 0 38 -12t11 -39zM913 0h-720q-27 0 -38.5 12.5t-11.5 40.5v1286q0 28 11.5 41t38.5 13h700q27 0 39 -11.5t12 -38.5v-129q0 -27 -12 -39t-39 -12h-473v-332
h438q28 0 40.5 -11t12.5 -38v-123q0 -26 -12.5 -37.5t-40.5 -11.5h-438v-381h493q28 0 40 -11t12 -38v-129q0 -28 -12 -39.5t-40 -11.5z" />
    <glyph glyph-name="edotaccent" unicode="&#x117;" horiz-adv-x="1024" 
d="M932 735v-237q0 -25 -10.5 -36t-34.5 -11h-525v-152q0 -57 36.5 -85t123.5 -28t123.5 28t36.5 85v10q0 27 12 39t39 12h144q51 0 51 -51v-22q0 -146 -96 -224.5t-312 -78.5q-420 0 -420 303v448q0 143 102 222t320 79q410 0 410 -301zM362 721v-90h320v90q0 113 -160 113
q-85 0 -122.5 -28.5t-37.5 -84.5z" />
    <glyph glyph-name="Eogonek" unicode="&#x118;" horiz-adv-x="1048" 
d="M913 0h-59q-48 0 -72 -32t-24 -83q0 -65 80 -65h51q27 0 39 -11t12 -38v-70q0 -51 -68 -51h-114q-26 0 -51.5 4.5t-53.5 16.5t-49 31.5t-35 51.5t-14 74q0 93 51 172h-413q-27 0 -38.5 12.5t-11.5 40.5v1286q0 28 11.5 41t38.5 13h700q27 0 39 -11.5t12 -38.5v-129
q0 -27 -12 -39t-39 -12h-473v-332h438q28 0 40.5 -11t12.5 -38v-123q0 -26 -12.5 -37.5t-40.5 -11.5h-438v-381h493q28 0 40 -11t12 -38v-129q0 -28 -12 -39.5t-40 -11.5z" />
    <glyph glyph-name="eogonek" unicode="&#x119;" horiz-adv-x="1021" 
d="M932 735v-237q0 -25 -10.5 -36t-34.5 -11h-525v-152q0 -57 36.5 -85t123.5 -28t123.5 28t36.5 85v10q0 27 12 39t39 12h144q51 0 51 -51v-22q0 -128 -72 -203q-9 -9 -31 -29t-34.5 -34t-27.5 -35.5t-22.5 -47t-7.5 -55.5q0 -63 78 -63h53q28 0 39.5 -11t11.5 -38v-70
q0 -51 -67 -51h-119q-32 0 -63.5 8t-63 26t-51 54t-19.5 86q0 85 43 162q-8 0 -27 -1t-28 -1q-420 0 -420 303v448q0 143 102 222t320 79q410 0 410 -301zM362 721v-90h320v90q0 113 -160 113q-85 0 -122.5 -28.5t-37.5 -84.5z" />
    <glyph glyph-name="Ecaron" unicode="&#x11a;" horiz-adv-x="1048" 
d="M913 0h-720q-27 0 -38.5 12.5t-11.5 40.5v1286q0 28 11.5 41t38.5 13h700q27 0 39 -11.5t12 -38.5v-129q0 -27 -12 -39t-39 -12h-473v-332h438q28 0 40.5 -11t12.5 -38v-123q0 -26 -12.5 -37.5t-40.5 -11.5h-438v-381h493q28 0 40 -11t12 -38v-129q0 -28 -12 -39.5
t-40 -11.5zM473 1749l51 -94l51 94q26 49 70 49h131q26 0 34 -14.5t-7 -34.5l-150 -203q-40 -51 -80 -51h-98q-17 0 -32.5 8t-24.5 17.5t-23 27.5l-149 201q-15 20 -7.5 34.5t33.5 14.5h131q44 0 70 -49z" />
    <glyph glyph-name="ecaron" unicode="&#x11b;" horiz-adv-x="1024" 
d="M459 1401l51 -94l51 94q26 49 70 49h131q26 0 33.5 -14.5t-7.5 -34.5l-149 -203q-40 -51 -80 -51h-98q-17 0 -32.5 8t-24.5 17.5t-23 27.5l-150 201q-15 20 -7 34.5t34 14.5h131q44 0 70 -49zM932 735v-237q0 -25 -10.5 -36t-34.5 -11h-525v-152q0 -57 36.5 -85
t123.5 -28t123.5 28t36.5 85v10q0 27 12 39t39 12h144q51 0 51 -51v-22q0 -146 -96 -224.5t-312 -78.5q-420 0 -420 303v448q0 143 102 222t320 79q410 0 410 -301zM362 721v-90h320v90q0 113 -160 113q-85 0 -122.5 -28.5t-37.5 -84.5z" />
    <glyph glyph-name="Gcircumflex" unicode="&#x11c;" horiz-adv-x="1189" 
d="M594 1638l-51 -92q-27 -51 -70 -51h-131q-26 0 -34 14.5t7 36.5l150 201q35 51 80 51h98q40 0 80 -51l149 -201q15 -22 7.5 -36.5t-33.5 -14.5h-131q-44 0 -70 51zM614 731h418q27 0 39 -11t12 -38v-365q0 -54 -14 -101t-49 -90.5t-88.5 -74t-137.5 -49t-192 -18.5
t-192 18.5t-137.5 49t-88.5 74t-49 90.5t-14 101v758q0 54 14 101t49 90.5t88.5 74.5t137.5 49.5t192 18.5t192 -18.5t137.5 -49.5t88.5 -74.5t49 -90.5t14 -101v-82q0 -27 -10.5 -39t-36.5 -12h-170q-27 0 -39 12t-12 39v33q0 154 -209 154q-207 0 -207 -154v-659
q0 -154 207 -154q209 0 209 152v137h-201q-28 0 -40.5 11t-12.5 38v131q0 27 12.5 38t40.5 11z" />
    <glyph glyph-name="gcircumflex" unicode="&#x11d;" 
d="M553 1290l-51 -92q-27 -51 -70 -51h-131q-26 0 -34 14.5t7 36.5l150 201q35 51 80 51h98q40 0 80 -51l149 -201q15 -22 7.5 -36.5t-33.5 -14.5h-131q-44 0 -70 51zM397 -16q-148 0 -222.5 79t-74.5 220v454q0 141 74.5 220t222.5 79q185 0 328 -118l4 51q3 29 12.5 40
t36.5 11h158q26 0 37.5 -11.5t11.5 -39.5v-1080q0 -141 -109.5 -221t-328.5 -80h-289q-28 0 -39.5 11t-11.5 39v118q0 28 12 41t39 13h289q87 0 128.5 26.5t41.5 83.5v172q-148 -108 -320 -108zM369 696v-370q0 -50 23.5 -79.5t88.5 -29.5q114 0 236 94v398q-122 94 -236 94
q-65 0 -88.5 -29.5t-23.5 -77.5z" />
    <glyph glyph-name="Gbreve" unicode="&#x11e;" horiz-adv-x="1189" 
d="M614 731h418q27 0 39 -11t12 -38v-365q0 -54 -14 -101t-49 -90.5t-88.5 -74t-137.5 -49t-192 -18.5t-192 18.5t-137.5 49t-88.5 74t-49 90.5t-14 101v758q0 54 14 101t49 90.5t88.5 74.5t137.5 49.5t192 18.5t192 -18.5t137.5 -49.5t88.5 -74.5t49 -90.5t14 -101v-82
q0 -27 -10.5 -39t-36.5 -12h-170q-27 0 -39 12t-12 39v33q0 154 -209 154q-207 0 -207 -154v-659q0 -154 207 -154q209 0 209 152v137h-201q-28 0 -40.5 11t-12.5 38v131q0 27 12.5 38t40.5 11zM502 1761v-35q0 -43 20.5 -66.5t71.5 -23.5t71.5 23.5t20.5 66.5v35
q0 23 10 32t35 9h103q25 0 35 -9t10 -32v-28q0 -122 -75 -188t-216 -66q-139 0 -209 65.5t-70 188.5v28q0 23 10 32t35 9h103q25 0 35 -9t10 -32z" />
    <glyph glyph-name="gbreve" unicode="&#x11f;" 
d="M397 -16q-148 0 -222.5 79t-74.5 220v454q0 141 74.5 220t222.5 79q185 0 328 -118l4 51q3 29 12.5 40t36.5 11h158q26 0 37.5 -11.5t11.5 -39.5v-1080q0 -141 -109.5 -221t-328.5 -80h-289q-28 0 -39.5 11t-11.5 39v118q0 28 12 41t39 13h289q87 0 128.5 26.5t41.5 83.5
v172q-148 -108 -320 -108zM369 696v-370q0 -50 23.5 -79.5t88.5 -29.5q114 0 236 94v398q-122 94 -236 94q-65 0 -88.5 -29.5t-23.5 -77.5zM453 1403v-35q0 -90 94 -90q51 0 71.5 23.5t20.5 66.5v35q0 23 10 33t35 10h100q25 0 35 -10t10 -33v-29q0 -122 -75 -188t-215 -66
q-138 0 -207.5 65.5t-69.5 188.5v29q0 23 10 33t35 10h101q25 0 35 -10t10 -33z" />
    <glyph glyph-name="Gdotaccent" unicode="&#x120;" horiz-adv-x="1189" 
d="M731 1710v-168q0 -28 -10.5 -38.5t-38.5 -10.5h-174q-28 0 -38.5 10.5t-10.5 38.5v168q0 27 11 39t38 12h174q27 0 38 -12t11 -39zM614 723h418q27 0 39 -11t12 -38v-365q0 -54 -14 -101t-49 -90.5t-88.5 -74.5t-137.5 -49.5t-192 -18.5t-192 18.5t-137.5 49.5
t-88.5 74.5t-49 90.5t-14 101v758q0 54 14 101t49 90.5t88.5 74.5t137.5 49.5t192 18.5t192 -18.5t137.5 -49.5t88.5 -74.5t49 -90.5t14 -101v-82q0 -27 -10.5 -39t-36.5 -12h-170q-27 0 -39 12t-12 39v33q0 153 -209 153q-207 0 -207 -153v-660q0 -153 207 -153
q209 0 209 151v138h-201q-28 0 -40.5 11t-12.5 38v131q0 27 12.5 38t40.5 11z" />
    <glyph glyph-name="gdotaccent" unicode="&#x121;" 
d="M397 -16q-148 0 -222.5 79t-74.5 220v454q0 141 74.5 220t222.5 79q185 0 328 -118l4 51q3 29 12.5 40t36.5 11h158q26 0 37.5 -11.5t11.5 -39.5v-1080q0 -141 -109.5 -221t-328.5 -80h-289q-28 0 -39.5 11t-11.5 39v118q0 28 12 41t39 13h289q87 0 128.5 26.5t41.5 83.5
v172q-148 -108 -320 -108zM369 696v-370q0 -50 23.5 -79.5t88.5 -29.5q114 0 236 94v398q-122 94 -236 94q-65 0 -88.5 -29.5t-23.5 -77.5zM684 1386v-165q0 -28 -10.5 -40t-36.5 -12h-176q-27 0 -38 12t-11 40v165q0 28 11 40t38 12h176q26 0 36.5 -12t10.5 -40z" />
    <glyph glyph-name="Gcommaaccent" unicode="&#x122;" horiz-adv-x="1189" 
d="M494 -215v61q0 28 11.5 40t39.5 12h125q27 0 38 -12t11 -40v-77q0 -125 -92 -273q-21 -36 -68 -26l-94 22q-51 12 -27 68q4 9 16.5 35.5t15 33.5l10 28t9 35.5t3.5 38.5t2 54zM614 731h418q27 0 39 -11t12 -38v-365q0 -54 -14 -101t-49 -90.5t-88.5 -74t-137.5 -49
t-192 -18.5t-192 18.5t-137.5 49t-88.5 74t-49 90.5t-14 101v758q0 54 14 101t49 90.5t88.5 74.5t137.5 49.5t192 18.5t192 -18.5t137.5 -49.5t88.5 -74.5t49 -90.5t14 -101v-82q0 -27 -10.5 -39t-36.5 -12h-170q-27 0 -39 12t-12 39v33q0 154 -209 154q-207 0 -207 -154
v-659q0 -154 207 -154q209 0 209 152v137h-201q-28 0 -40.5 11t-12.5 38v131q0 27 12.5 38t40.5 11z" />
    <glyph glyph-name="gcommaaccent" unicode="&#x123;" 
d="M629 1276v-62q0 -28 -11.5 -39.5t-39.5 -11.5h-125q-28 0 -39 11.5t-11 39.5v78q0 123 93 273q21 36 67 26l94 -22q51 -12 27 -68q-4 -9 -14.5 -31t-13 -29t-9.5 -24.5t-8.5 -28t-4.5 -29t-4 -38t-1 -45.5zM397 -16q-148 0 -222.5 79t-74.5 220v454q0 141 74.5 220
t222.5 79q185 0 328 -118l4 51q3 29 12.5 40t36.5 11h158q26 0 37.5 -11.5t11.5 -39.5v-1080q0 -141 -109.5 -221t-328.5 -80h-289q-28 0 -39.5 11t-11.5 39v118q0 28 12 41t39 13h289q87 0 128.5 26.5t41.5 83.5v172q-148 -108 -320 -108zM369 696v-370q0 -50 23.5 -79.5
t88.5 -29.5q114 0 236 94v398q-122 94 -236 94q-65 0 -88.5 -29.5t-23.5 -77.5z" />
    <glyph glyph-name="Hcircumflex" unicode="&#x124;" horiz-adv-x="1280" 
d="M420 1339v-510h442v510q0 29 11 41.5t38 12.5h179q27 0 38 -12.5t11 -41.5v-1286q0 -28 -11 -40.5t-38 -12.5h-179q-27 0 -38 12.5t-11 40.5v547h-442v-547q0 -28 -11 -40.5t-38 -12.5h-178q-27 0 -38.5 12.5t-11.5 40.5v1286q0 28 11.5 41t38.5 13h178q27 0 38 -12.5
t11 -41.5zM639 1638l-51 -92q-27 -51 -70 -51h-131q-26 0 -34 14.5t7 36.5l150 201q35 51 80 51h98q40 0 80 -51l150 -201q15 -22 7 -36.5t-34 -14.5h-131q-44 0 -70 51z" />
    <glyph glyph-name="hcircumflex" unicode="&#x125;" horiz-adv-x="1118" 
d="M389 1378v-448q139 106 322 106q138 0 217.5 -76t79.5 -198v-709q0 -28 -12 -40.5t-40 -12.5h-165q-54 0 -54 53v641q0 58 -23.5 83.5t-86.5 25.5q-118 0 -238 -92v-658q0 -28 -10.5 -40.5t-36.5 -12.5h-170q-27 0 -39 12.5t-12 40.5v1325q0 28 12 41t39 13h170
q26 0 36.5 -13t10.5 -41zM256 1638l-51 -92q-27 -51 -70 -51h-131q-26 0 -34 14.5t7 36.5l150 201q35 51 80 51h98q40 0 80 -51l150 -201q15 -22 7 -36.5t-34 -14.5h-131q-44 0 -70 51z" />
    <glyph glyph-name="Hbar" unicode="&#x126;" horiz-adv-x="1280" 
d="M420 1339v-180h442v180q0 29 11 41.5t38 12.5h179q27 0 38 -12.5t11 -41.5v-180h63q28 0 39.5 -11t11.5 -38v-88q0 -27 -11.5 -38t-39.5 -11h-63v-920q0 -28 -11 -40.5t-38 -12.5h-179q-27 0 -38 12.5t-11 40.5v547h-442v-547q0 -28 -11 -40.5t-38 -12.5h-178
q-27 0 -38.5 12.5t-11.5 40.5v920h-65q-27 0 -39 11t-12 38v88q0 27 12 38t39 11h65v180q0 28 11.5 41t38.5 13h178q27 0 38 -12.5t11 -41.5zM420 829h442v144h-442v-144z" />
    <glyph glyph-name="hbar" unicode="&#x127;" horiz-adv-x="1118" 
d="M389 1378v-84h186q28 0 40 -11t12 -38v-88q0 -27 -12 -38t-40 -11h-186v-178q139 106 322 106q138 0 217.5 -76t79.5 -198v-709q0 -28 -12 -40.5t-40 -12.5h-165q-54 0 -54 53v641q0 58 -23.5 83.5t-86.5 25.5q-118 0 -238 -92v-658q0 -28 -10.5 -40.5t-36.5 -12.5h-170
q-27 0 -39 12.5t-12 40.5v1055h-60q-28 0 -39.5 11t-11.5 38v88q0 27 11.5 38t39.5 11h60v84q0 28 12 41t39 13h170q26 0 36.5 -13t10.5 -41z" />
    <glyph glyph-name="Itilde" unicode="&#x128;" horiz-adv-x="561" 
d="M420 1339v-1286q0 -28 -11 -40.5t-38 -12.5h-178q-27 0 -38.5 12.5t-11.5 40.5v1286q0 28 11.5 41t38.5 13h178q27 0 38 -12.5t11 -41.5zM158 1610q-39 0 -39 -51v-11q0 -26 -13.5 -35.5t-42.5 -9.5h-88q-49 0 -43 60l9 84q7 75 57.5 117t122.5 42q61 0 119 -26l88 -43
q6 -3 20.5 -10.5t22 -11t17 -6.5t15.5 -3q19 0 26.5 10.5t12.5 38.5l2 12q4 25 17 35t39 10h88q46 0 43 -59l-6 -80q-6 -78 -53.5 -119t-116.5 -41q-65 0 -131 27l-88 39q-8 4 -22 10.5t-22 10.5t-17.5 7t-16.5 3z" />
    <glyph glyph-name="itilde" unicode="&#x129;" horiz-adv-x="512" 
d="M389 969v-918q0 -27 -10.5 -39t-36.5 -12h-170q-27 0 -39 12t-12 39v918q0 27 12 39t39 12h170q26 0 36.5 -12t10.5 -39zM133 1243q-19 0 -26.5 -10.5t-12.5 -38.5l-2 -12q-4 -26 -16 -35.5t-37 -9.5h-90q-48 0 -41 59l8 86q7 75 57 116.5t121 41.5q65 0 121 -27l86 -41
q8 -4 22 -10.5t22 -10.5t17.5 -7t16.5 -3q39 0 39 50v10q0 45 55 45h88q26 0 35.5 -15t7.5 -45l-6 -79q-6 -78 -53.5 -119t-114.5 -41q-69 0 -131 27l-88 38q-10 4 -29 13.5t-30 13.5t-19 4z" />
    <glyph glyph-name="Imacron" unicode="&#x12a;" horiz-adv-x="561" 
d="M420 1339v-1286q0 -28 -11 -40.5t-38 -12.5h-178q-27 0 -38.5 12.5t-11.5 40.5v1286q0 28 11.5 41t38.5 13h178q27 0 38 -12.5t11 -41.5zM45 1739h473q27 0 39 -10.5t12 -36.5v-105q0 -27 -12 -39t-39 -12h-473q-27 0 -39 12t-12 39v105q0 26 12 36.5t39 10.5z" />
    <glyph glyph-name="imacron" unicode="&#x12b;" horiz-adv-x="512" 
d="M389 969v-918q0 -27 -10.5 -39t-36.5 -12h-170q-27 0 -39 12t-12 39v918q0 27 12 39t39 12h170q26 0 36.5 -12t10.5 -39zM20 1374h472q28 0 39.5 -11t11.5 -38v-104q0 -27 -11.5 -38.5t-39.5 -11.5h-472q-53 0 -53 50v104q0 27 12.5 38t40.5 11z" />
    <glyph glyph-name="Ibreve" unicode="&#x12c;" horiz-adv-x="561" 
d="M420 1339v-1286q0 -28 -11 -40.5t-38 -12.5h-178q-27 0 -38.5 12.5t-11.5 40.5v1286q0 28 11.5 41t38.5 13h178q27 0 38 -12.5t11 -41.5zM188 1761v-35q0 -43 21 -66.5t72 -23.5t71.5 23.5t20.5 66.5v35q0 23 10 32t35 9h102q25 0 35 -9t10 -32v-28q0 -122 -75 -188
t-216 -66q-139 0 -208.5 65.5t-69.5 188.5v28q0 23 10 32t35 9h102q25 0 35 -9t10 -32z" />
    <glyph glyph-name="ibreve" unicode="&#x12d;" horiz-adv-x="512" 
d="M389 969v-918q0 -27 -10.5 -39t-36.5 -12h-170q-27 0 -39 12t-12 39v918q0 27 12 39t39 12h170q26 0 36.5 -12t10.5 -39zM162 1403v-35q0 -90 94 -90q51 0 71.5 23.5t20.5 66.5v35q0 23 10 33t35 10h101q25 0 35 -10t10 -33v-29q0 -122 -75 -188t-216 -66
q-138 0 -207.5 65.5t-69.5 188.5v29q0 23 10 33t35 10h101q25 0 35 -10t10 -33z" />
    <glyph glyph-name="Iogonek" unicode="&#x12e;" horiz-adv-x="561" 
d="M420 1339v-1286q0 -28 -11 -40.5t-38 -12.5h-56q-43 0 -65.5 -33t-22.5 -82q0 -32 18 -48.5t60 -16.5h51q28 0 40 -11t12 -38v-70q0 -51 -68 -51h-113q-33 0 -65 8t-64.5 26t-52.5 55.5t-20 88.5q0 142 118 244v1267q0 28 11.5 41t38.5 13h178q27 0 38 -12.5t11 -41.5z
" />
    <glyph glyph-name="iogonek" unicode="&#x12f;" horiz-adv-x="512" 
d="M319 -350h-114q-26 0 -51.5 4.5t-53.5 16.5t-49 31.5t-35 51.5t-14 74q0 32 7 65.5t35.5 85.5t76.5 93v897q0 28 11.5 39.5t39.5 11.5h170q26 0 36.5 -11.5t10.5 -39.5v-916q0 -28 -10.5 -40.5t-36.5 -12.5h-43q-48 -1 -71 -32.5t-23 -82.5q0 -65 80 -65h51q27 0 39 -11
t12 -38v-70q0 -26 -19.5 -38.5t-48.5 -12.5zM389 1378v-176q0 -27 -10.5 -38t-36.5 -11h-170q-28 0 -39.5 11.5t-11.5 37.5v176q0 28 12 41t39 13h170q26 0 36.5 -13t10.5 -41z" />
    <glyph glyph-name="Idotaccent" unicode="&#x130;" horiz-adv-x="561" 
d="M420 1339v-1286q0 -28 -11 -40.5t-38 -12.5h-178q-27 0 -38.5 12.5t-11.5 40.5v1286q0 28 11.5 41t38.5 13h178q27 0 38 -12.5t11 -41.5zM418 1718v-168q0 -28 -10.5 -38.5t-38.5 -10.5h-174q-28 0 -39 10.5t-11 38.5v168q0 27 11.5 39t38.5 12h174q27 0 38 -12t11 -39z
" />
    <glyph glyph-name="dotlessi" unicode="&#x131;" horiz-adv-x="512" 
d="M389 969v-918q0 -27 -10.5 -39t-36.5 -12h-170q-27 0 -39 12t-12 39v918q0 27 12 39t39 12h170q26 0 36.5 -12t10.5 -39z" />
    <glyph glyph-name="IJ" unicode="&#x132;" horiz-adv-x="1615" 
d="M420 1339v-1286q0 -28 -11 -40.5t-38 -12.5h-178q-27 0 -38.5 12.5t-11.5 40.5v1286q0 28 11.5 41t38.5 13h178q27 0 38 -12.5t11 -41.5zM866 440v-73q0 -154 176 -154q88 0 126 37.5t38 116.5v972q0 54 49 54h179q27 0 38 -12.5t11 -41.5v-1022q0 -69 -21 -125.5
t-69 -105t-137 -75.5t-214 -27q-100 0 -178.5 18.5t-128.5 49t-82.5 74t-45.5 90.5t-13 101v123q0 28 11.5 40t39.5 12h172q27 0 38 -12t11 -40z" />
    <glyph glyph-name="ij" unicode="&#x133;" horiz-adv-x="1021" 
d="M389 969v-916q0 -28 -10.5 -40.5t-36.5 -12.5h-170q-27 0 -39 12.5t-12 40.5v916q0 28 11.5 39.5t39.5 11.5h170q26 0 36.5 -11.5t10.5 -39.5zM389 1378v-176q0 -27 -10.5 -38t-36.5 -11h-170q-28 0 -39.5 11.5t-11.5 37.5v176q0 28 12 41t39 13h170q26 0 36.5 -13
t10.5 -41zM899 1378v-176q0 -27 -10.5 -38t-36.5 -11h-172q-26 0 -37.5 11.5t-11.5 37.5v176q0 54 49 54h172q26 0 36.5 -13t10.5 -41zM899 969v-1080q0 -141 -109.5 -221t-328.5 -80h-19q-28 0 -39.5 11t-11.5 39v118q0 28 12 41t39 13h19q87 0 128.5 26.5t41.5 83.5v1049
q0 28 11 39.5t38 11.5h170q26 0 37.5 -11.5t11.5 -39.5z" />
    <glyph glyph-name="Jcircumflex" unicode="&#x134;" horiz-adv-x="1054" 
d="M305 440v-73q0 -154 176 -154q88 0 126 37.5t38 116.5v972q0 54 49 54h178q27 0 38.5 -13t11.5 -41v-1022q0 -69 -21 -125.5t-69 -105t-137 -75.5t-214 -27q-100 0 -178.5 18.5t-128.5 49t-82.5 74t-45.5 90.5t-13 101v123q0 28 11.5 40t39.5 12h172q27 0 38 -12t11 -40z
M772 1638l-51 -92q-27 -51 -70 -51h-131q-26 0 -33.5 14.5t7.5 36.5l149 201q35 51 80 51h98q40 0 80 -51l150 -201q15 -22 7 -36.5t-34 -14.5h-131q-44 0 -70 51z" />
    <glyph glyph-name="jcircumflex" unicode="&#x135;" horiz-adv-x="512" 
d="M389 969v-1080q0 -141 -109.5 -221t-328.5 -80h-19q-28 0 -39.5 11t-11.5 39v116q0 28 12 40.5t39 12.5h19q170 0 170 111v1051q0 27 11 39t38 12h170q27 0 38 -12t11 -39zM256 1290l-51 -92q-27 -51 -70 -51h-131q-26 0 -34 14.5t7 36.5l150 201q35 51 80 51h98
q40 0 80 -51l150 -201q15 -22 7 -36.5t-34 -14.5h-131q-44 0 -70 51z" />
    <glyph glyph-name="Kcommaaccent" unicode="&#x136;" horiz-adv-x="1196" 
d="M485 -215v61q0 28 12 40t40 12h125q27 0 38 -12t11 -40v-77q0 -123 -93 -273q-21 -36 -67 -26l-94 22q-51 12 -27 68q4 9 14.5 31t13 29t9.5 24.5t8.5 28t4.5 29t4 38t1 45.5zM686 709l481 -658q15 -19 8 -35t-34 -16h-228q-16 0 -30.5 8.5t-22.5 17.5t-20 25l-385 537
h-35v-537q0 -27 -11 -39t-38 -12h-178q-27 0 -38.5 12t-11.5 39v1290q0 27 11.5 39.5t38.5 12.5h178q27 0 38 -12.5t11 -39.5v-550h33l364 550q32 52 82 52h191q27 0 33 -16t-9 -36z" />
    <glyph glyph-name="kcommaaccent" unicode="&#x137;" horiz-adv-x="1013" 
d="M420 -215v61q0 28 11.5 40t39.5 12h125q27 0 38 -12t11 -40v-77q0 -125 -92 -273q-21 -36 -68 -26l-94 22q-50 11 -26 68q4 9 14.5 31t13 29t9.5 24.5t8.5 28t4.5 29t4 38t1 45.5zM647 580l359 -529q13 -19 6.5 -35t-31.5 -16h-186q-40 0 -74 51l-287 418h-45v-418
q0 -27 -10.5 -39t-36.5 -12h-170q-27 0 -39 12t-12 39v1329q0 52 51 52h170q26 0 36.5 -12.5t10.5 -39.5v-708h45l254 297q15 17 24 25.5t25.5 17t32.5 8.5h184q26 0 33 -16t-8 -35z" />
    <glyph glyph-name="kgreenlandic" unicode="&#x138;" horiz-adv-x="1013" 
d="M647 578l359 -527q13 -19 6.5 -35t-31.5 -16h-186q-40 0 -74 51l-287 416h-45v-416q0 -27 -10.5 -39t-36.5 -12h-170q-27 0 -39 12t-12 39v918q0 27 12 39t39 12h170q26 0 36.5 -12t10.5 -39v-299h45l254 299q14 17 23.5 26t25.5 17t33 8h184q26 0 33 -16t-8 -35z" />
    <glyph glyph-name="Lacute" unicode="&#x139;" horiz-adv-x="976" 
d="M551 1747l-150 -217q-25 -35 -65 -35h-133q-53 0 -27 51l100 201q23 51 70 51h178q27 0 34.5 -14.5t-7.5 -36.5zM420 1339v-1110h457q27 0 39 -11t12 -38v-129q0 -27 -12 -39t-39 -12h-691q-43 0 -43 53v1286q0 28 11.5 41t38.5 13h178q27 0 38 -12.5t11 -41.5z" />
    <glyph glyph-name="lacute" unicode="&#x13a;" horiz-adv-x="512" 
d="M530 1747l-149 -217q-25 -35 -66 -35h-133q-52 0 -26 51l100 201q23 51 70 51h178q27 0 34 -14.5t-8 -36.5zM389 1378v-1325q0 -28 -10.5 -40.5t-36.5 -12.5h-170q-27 0 -39 12.5t-12 40.5v1325q0 28 12 41t39 13h170q26 0 36.5 -13t10.5 -41z" />
    <glyph glyph-name="Lcommaaccent" unicode="&#x13b;" horiz-adv-x="976" 
d="M391 -215v61q0 28 11.5 40t39.5 12h125q27 0 38 -12t11 -40v-77q0 -125 -92 -273q-21 -36 -67 -26l-95 22q-50 11 -26 68q4 9 14.5 31t13 29t9.5 24.5t8.5 28t4.5 29t4 38t1 45.5zM420 1339v-1110h457q27 0 39 -11t12 -38v-129q0 -27 -12 -39t-39 -12h-691q-43 0 -43 53
v1286q0 28 11.5 41t38.5 13h178q27 0 38 -12.5t11 -41.5z" />
    <glyph glyph-name="lcommaaccent" unicode="&#x13c;" horiz-adv-x="512" 
d="M143 -217v61q0 28 12 40t40 12h124q27 0 38.5 -12t11.5 -40v-77q0 -123 -93 -273q-21 -36 -67 -26l-94 22q-51 12 -27 68q4 9 14.5 31t13 29t9.5 24.5t8.5 28t4.5 29t4 38t1 45.5zM389 1378v-1325q0 -28 -10.5 -40.5t-36.5 -12.5h-170q-27 0 -39 12.5t-12 40.5v1325
q0 28 12 41t39 13h170q26 0 36.5 -13t10.5 -41z" />
    <glyph glyph-name="Lcaron" unicode="&#x13d;" horiz-adv-x="976" 
d="M655 1399v61q0 28 12 39.5t40 11.5h124q28 0 39 -11.5t11 -39.5v-78q0 -122 -93 -272q-22 -37 -67 -27l-94 23q-51 12 -27 68q4 9 14.5 31t13 29t9.5 24.5t8.5 28t4.5 29t4 38t1 45.5zM420 1339v-1110h457q27 0 39 -11t12 -38v-129q0 -27 -12 -39t-39 -12h-691
q-43 0 -43 53v1286q0 28 11.5 41t38.5 13h178q27 0 38 -12.5t11 -41.5z" />
    <glyph glyph-name="lcaron" unicode="&#x13e;" horiz-adv-x="722" 
d="M526 1405v61q0 28 12 40t40 12h124q27 0 38.5 -12t11.5 -40v-77q0 -123 -93 -273q-21 -36 -67 -26l-94 22q-51 12 -27 68q4 9 14.5 31t13 29t9.5 24.5t8.5 28t4.5 29t4 38t1 45.5zM389 1378v-1325q0 -28 -10.5 -40.5t-36.5 -12.5h-170q-27 0 -39 12.5t-12 40.5v1325
q0 28 12 41t39 13h170q26 0 36.5 -13t10.5 -41z" />
    <glyph glyph-name="Ldot" unicode="&#x13f;" horiz-adv-x="976" 
d="M420 1339v-1110h457q27 0 39 -11t12 -38v-129q0 -27 -12 -39t-39 -12h-691q-43 0 -43 53v1286q0 28 11.5 41t38.5 13h178q27 0 38 -12.5t11 -41.5zM895 805v-166q0 -28 -11 -39.5t-38 -11.5h-174q-28 0 -39.5 11.5t-11.5 39.5v166q0 28 11.5 39.5t39.5 11.5h174
q27 0 38 -11.5t11 -39.5z" />
    <glyph glyph-name="ldot" unicode="&#x140;" horiz-adv-x="782" 
d="M389 1378v-1325q0 -28 -10.5 -40.5t-36.5 -12.5h-170q-27 0 -39 12.5t-12 40.5v1325q0 28 12 41t39 13h170q26 0 36.5 -13t10.5 -41zM772 805v-166q0 -28 -11 -39.5t-38 -11.5h-174q-28 0 -39.5 11.5t-11.5 39.5v166q0 28 11.5 39.5t39.5 11.5h174q27 0 38 -11.5
t11 -39.5z" />
    <glyph glyph-name="Lslash" unicode="&#x141;" horiz-adv-x="976" 
d="M420 1339v-493l82 33q48 20 67 -29l25 -57q18 -44 -29 -64l-145 -59v-441h457q27 0 39 -11t12 -38v-129q0 -27 -12 -39t-39 -12h-691q-43 0 -43 53v506l-55 -22q-25 -10 -40 -4t-25 30l-25 60q-17 46 29 63l116 47v606q0 28 11.5 41t38.5 13h178q27 0 38 -12.5t11 -41.5z
" />
    <glyph glyph-name="lslash" unicode="&#x142;" horiz-adv-x="573" 
d="M418 1378v-530l76 31q46 17 65 -29l27 -57q19 -43 -31 -64l-137 -55v-621q0 -28 -10.5 -40.5t-36.5 -12.5h-170q-27 0 -39 12.5t-12 40.5v512l-72 -28q-47 -18 -66 26l-24 60q-17 46 28 63l134 53v639q0 28 12 41t39 13h170q26 0 36.5 -13t10.5 -41z" />
    <glyph glyph-name="Nacute" unicode="&#x143;" horiz-adv-x="1280" 
d="M1139 1341v-1290q0 -27 -11 -39t-38 -12h-162q-33 0 -47 25l-396 677q-69 114 -82 164v-815q0 -27 -11 -39t-38 -12h-161q-27 0 -38.5 12t-11.5 39v1290q0 27 11.5 39.5t38.5 12.5h161q31 0 43 -21l412 -706q11 -20 24 -45.5t22 -45t16 -36t8 -17.5v819q0 27 11 39.5
t38 12.5h162q27 0 38 -12.5t11 -39.5zM918 1747l-150 -217q-25 -35 -66 -35h-133q-52 0 -26 51l100 201q23 51 70 51h178q27 0 34.5 -14.5t-7.5 -36.5z" />
    <glyph glyph-name="nacute" unicode="&#x144;" horiz-adv-x="1118" 
d="M829 1399l-147 -217q-25 -35 -66 -35h-133q-48 0 -26 51l98 201q23 51 72 51h178q26 0 32.5 -14.5t-8.5 -36.5zM172 1020h158q27 0 37 -11t12 -38l4 -49q138 114 328 114q138 0 217.5 -76t79.5 -198v-709q0 -28 -12 -40.5t-40 -12.5h-165q-54 0 -54 53v641
q0 58 -23.5 83.5t-86.5 25.5q-118 0 -238 -92v-658q0 -28 -10.5 -40.5t-36.5 -12.5h-170q-27 0 -39 12.5t-12 40.5v918q0 26 11.5 37.5t39.5 11.5z" />
    <glyph glyph-name="Ncommaaccent" unicode="&#x145;" horiz-adv-x="1280" 
d="M1139 1341v-1290q0 -27 -11 -39t-38 -12h-162q-33 0 -47 25l-396 677q-69 114 -82 164v-815q0 -27 -11 -39t-38 -12h-161q-27 0 -38.5 12t-11.5 39v1290q0 27 11.5 39.5t38.5 12.5h161q31 0 43 -21l412 -706q11 -20 24 -45.5t22 -45t16 -36t8 -17.5v819q0 27 11 39.5
t38 12.5h162q27 0 38 -12.5t11 -39.5zM543 -217v61q0 28 11.5 40t39.5 12h125q27 0 38 -12t11 -40v-77q0 -125 -92 -273q-21 -36 -68 -26l-94 22q-51 12 -27 68q4 9 16.5 35.5t15 33.5l10 28t9 35.5t3.5 38.5t2 54z" />
    <glyph glyph-name="ncommaaccent" unicode="&#x146;" horiz-adv-x="1118" 
d="M451 -215v61q0 28 11.5 40t39.5 12h125q27 0 38 -12t11 -40v-77q0 -125 -92 -273q-21 -36 -68 -26l-94 22q-51 12 -27 68q4 9 16.5 35.5t15 33.5l10 28t9 35.5t3.5 38.5t2 54zM172 1020h158q27 0 37 -11t12 -38l4 -49q138 114 328 114q138 0 217.5 -76t79.5 -198v-709
q0 -28 -12 -40.5t-40 -12.5h-165q-54 0 -54 53v641q0 58 -23.5 83.5t-86.5 25.5q-118 0 -238 -92v-658q0 -28 -10.5 -40.5t-36.5 -12.5h-170q-27 0 -39 12.5t-12 40.5v918q0 26 11.5 37.5t39.5 11.5z" />
    <glyph glyph-name="Ncaron" unicode="&#x147;" horiz-adv-x="1280" 
d="M1139 1341v-1290q0 -27 -11 -39t-38 -12h-162q-33 0 -47 25l-396 677q-69 114 -82 164v-815q0 -27 -11 -39t-38 -12h-161q-27 0 -38.5 12t-11.5 39v1290q0 27 11.5 39.5t38.5 12.5h161q31 0 43 -21l412 -706q16 -26 33.5 -62t27.5 -59l9 -23v819q0 27 11 39.5t38 12.5
h162q27 0 38 -12.5t11 -39.5zM588 1749l51 -94l51 94q26 49 70 49h131q26 0 34 -14.5t-7 -34.5l-150 -203q-40 -51 -80 -51h-98q-17 0 -32.5 8t-24.5 17.5t-23 27.5l-150 201q-15 20 -7 34.5t34 14.5h131q44 0 70 -49z" />
    <glyph glyph-name="ncaron" unicode="&#x148;" horiz-adv-x="1118" 
d="M506 1401l51 -94l51 94q26 49 70 49h131q26 0 34 -14.5t-7 -34.5l-150 -203q-40 -51 -80 -51h-98q-17 0 -32.5 8t-24.5 17.5t-23 27.5l-149 201q-15 20 -7.5 34.5t33.5 14.5h131q44 0 70 -49zM172 1020h158q27 0 37 -11t12 -38l4 -49q138 114 328 114q138 0 217.5 -76
t79.5 -198v-709q0 -28 -12 -40.5t-40 -12.5h-165q-54 0 -54 53v641q0 58 -23.5 83.5t-86.5 25.5q-118 0 -238 -92v-658q0 -28 -10.5 -40.5t-36.5 -12.5h-170q-27 0 -39 12.5t-12 40.5v918q0 26 11.5 37.5t39.5 11.5z" />
    <glyph glyph-name="napostrophe" unicode="&#x149;" horiz-adv-x="1118" 
d="M106 1405v61q0 28 12 40t40 12h125q27 0 38 -12t11 -40v-77q0 -125 -92 -273q-21 -36 -68 -26l-94 22q-51 12 -27 68q4 9 14.5 31t13 29t9.5 24.5t8.5 28t4.5 29t4 38t1 45.5zM172 1020h158q27 0 37 -11t12 -38l4 -49q138 114 328 114q138 0 217.5 -76t79.5 -198v-709
q0 -28 -12 -40.5t-40 -12.5h-165q-54 0 -54 53v641q0 58 -23.5 83.5t-86.5 25.5q-118 0 -238 -92v-658q0 -28 -10.5 -40.5t-36.5 -12.5h-170q-27 0 -39 12.5t-12 40.5v918q0 26 11.5 37.5t39.5 11.5z" />
    <glyph glyph-name="Eng" unicode="&#x14a;" horiz-adv-x="1280" 
d="M1139 1341v-1452q0 -142 -106.5 -221.5t-325.5 -79.5h-19q-28 0 -39.5 11t-11.5 39v116q0 28 12 40.5t39 12.5h19q88 0 130 27t42 84v111l-394 673q-25 41 -45 81t-27.5 59.5t-9.5 25.5v-817q0 -27 -11 -39t-38 -12h-161q-27 0 -38.5 12t-11.5 39v1290q0 27 11.5 39.5
t38.5 12.5h161q31 0 43 -21l412 -706q16 -26 33.5 -62t27.5 -59l9 -23v819q0 27 11 39.5t38 12.5h162q27 0 38 -12.5t11 -39.5z" />
    <glyph glyph-name="eng" unicode="&#x14b;" horiz-adv-x="1118" 
d="M172 1020h158q26 0 36.5 -11t12.5 -38l4 -49q138 114 328 114q138 0 217.5 -76t79.5 -198v-873q0 -141 -110.5 -221t-330.5 -80h-18q-28 0 -39.5 11t-11.5 39v116q0 28 12 40.5t39 12.5h18q88 0 129 27t41 84v778q0 57 -24 83t-86 26q-118 0 -238 -92v-662
q0 -27 -10.5 -39t-36.5 -12h-170q-27 0 -39 12t-12 39v920q0 26 11.5 37.5t39.5 11.5z" />
    <glyph glyph-name="Omacron" unicode="&#x14c;" horiz-adv-x="1239" 
d="M121 317v758q0 68 26.5 125.5t82 105.5t155 75.5t233.5 27.5t233.5 -27.5t155.5 -75.5t82.5 -105.5t26.5 -125.5v-758q0 -68 -26.5 -125.5t-82.5 -105t-155.5 -75t-233.5 -27.5t-233.5 27.5t-155 75t-82 105t-26.5 125.5zM840 367v659q0 75 -58.5 114.5t-163.5 39.5
q-104 0 -161.5 -39.5t-57.5 -114.5v-659q0 -75 57.5 -114.5t161.5 -39.5q105 0 163.5 39.5t58.5 114.5zM383 1739h473q27 0 39 -10.5t12 -36.5v-105q0 -27 -12 -39t-39 -12h-473q-27 0 -39 12t-12 39v105q0 26 12 36.5t39 10.5z" />
    <glyph glyph-name="omacron" unicode="&#x14d;" horiz-adv-x="1085" 
d="M307 1374h471q28 0 39.5 -11t11.5 -38v-104q0 -27 -11.5 -38.5t-39.5 -11.5h-471q-53 0 -53 50v104q0 27 12.5 38t40.5 11zM100 287v448q0 141 111.5 221t331.5 80t331 -80t111 -221v-448q0 -142 -111 -222.5t-331 -80.5t-331.5 80.5t-111.5 222.5zM717 309v404
q0 110 -174 110t-174 -110v-404q0 -112 174 -112t174 112z" />
    <glyph glyph-name="Obreve" unicode="&#x14e;" horiz-adv-x="1239" 
d="M121 317v758q0 68 26.5 125.5t82 105.5t155 75.5t233.5 27.5t233.5 -27.5t155.5 -75.5t82.5 -105.5t26.5 -125.5v-758q0 -68 -26.5 -125.5t-82.5 -105t-155.5 -75t-233.5 -27.5t-233.5 27.5t-155 75t-82 105t-26.5 125.5zM840 367v659q0 75 -58.5 114.5t-163.5 39.5
q-104 0 -161.5 -39.5t-57.5 -114.5v-659q0 -75 57.5 -114.5t161.5 -39.5q105 0 163.5 39.5t58.5 114.5zM526 1761v-35q0 -43 20.5 -66.5t71.5 -23.5t72 23.5t21 66.5v35q0 23 10 32t35 9h102q25 0 35 -9t10 -32v-28q0 -122 -75 -188t-216 -66q-139 0 -208.5 65.5
t-69.5 188.5v28q0 23 10 32t35 9h102q25 0 35 -9t10 -32z" />
    <glyph glyph-name="obreve" unicode="&#x14f;" horiz-adv-x="1085" 
d="M100 287v448q0 141 111.5 221t331.5 80t331 -80t111 -221v-448q0 -142 -111 -222.5t-331 -80.5t-331.5 80.5t-111.5 222.5zM717 309v404q0 110 -174 110t-174 -110v-404q0 -112 174 -112t174 112zM446 1403v-35q0 -90 95 -90q51 0 71.5 23.5t20.5 66.5v35q0 23 10 33
t35 10h100q25 0 35 -10t10 -33v-29q0 -122 -75 -188t-216 -66q-138 0 -207 65.5t-69 188.5v29q0 23 10 33t35 10h100q25 0 35 -10t10 -33z" />
    <glyph glyph-name="Ohungarumlaut" unicode="&#x150;" horiz-adv-x="1239" 
d="M1010 1747l-142 -203q-31 -49 -75 -49h-125q-26 0 -33.5 14t6.5 37l117 201q28 51 78 51h149q27 0 33.5 -14.5t-8.5 -36.5zM682 1747l-113 -201q-14 -27 -27.5 -39t-39.5 -12h-125q-26 0 -35.5 14t0.5 37l86 201q22 51 70 51h149q28 0 37.5 -14.5t-2.5 -36.5zM121 317
v758q0 68 26.5 125.5t82 105.5t155 75.5t233.5 27.5t233.5 -27.5t155.5 -75.5t82.5 -105.5t26.5 -125.5v-758q0 -68 -26.5 -125.5t-82.5 -105t-155.5 -75t-233.5 -27.5t-233.5 27.5t-155 75t-82 105t-26.5 125.5zM840 367v659q0 75 -58.5 114.5t-163.5 39.5
q-104 0 -161.5 -39.5t-57.5 -114.5v-659q0 -75 57.5 -114.5t161.5 -39.5q105 0 163.5 39.5t58.5 114.5z" />
    <glyph glyph-name="ohungarumlaut" unicode="&#x151;" horiz-adv-x="1085" 
d="M958 1399l-143 -203q-34 -49 -76 -49h-125q-26 0 -33 14t7 37l117 201q28 51 77 51h150q27 0 33.5 -15.5t-7.5 -35.5zM629 1399l-113 -201q-14 -27 -27.5 -39t-39.5 -12h-125q-26 0 -35 14t0 37l86 201q22 51 69 51h150q27 0 36.5 -15.5t-1.5 -35.5zM100 287v448
q0 141 111.5 221t331.5 80t331 -80t111 -221v-448q0 -142 -111 -222.5t-331 -80.5t-331.5 80.5t-111.5 222.5zM717 309v404q0 110 -174 110t-174 -110v-404q0 -112 174 -112t174 112z" />
    <glyph glyph-name="OE" unicode="&#x152;" horiz-adv-x="1744" 
d="M121 317v758q0 68 26.5 125.5t82 105.5t155 75.5t233.5 27.5q122 0 224 -45q10 29 49 29h698q28 0 40.5 -11.5t12.5 -38.5v-129q0 -26 -12.5 -37.5t-40.5 -11.5h-473v-334h440q27 0 39.5 -11t12.5 -38v-120q0 -27 -12.5 -38.5t-39.5 -11.5h-440v-385h496q28 0 39.5 -11
t11.5 -38v-129q0 -26 -11.5 -37.5t-39.5 -11.5h-723q-41 0 -47 29q-95 -45 -224 -45q-134 0 -233.5 27.5t-155 75t-82 105t-26.5 125.5zM840 356v672q0 75 -58.5 114.5t-163.5 39.5t-163 -39.5t-58 -114.5v-663q0 -75 58 -114.5t163 -39.5q102 0 160.5 37t61.5 108z" />
    <glyph glyph-name="oe" unicode="&#x153;" horiz-adv-x="1640" 
d="M100 285v450q0 141 111.5 221t331.5 80q197 0 291 -69q104 69 305 69q411 0 411 -301v-233q0 -25 -11 -36t-36 -11h-524v-160q0 -56 37.5 -84.5t122.5 -28.5t122 28.5t37 84.5v14q0 26 12 37.5t40 11.5h141q28 0 39.5 -11.5t11.5 -37.5v-24q0 -145 -94.5 -223t-308.5 -78
q-199 0 -305 67q-95 -67 -291 -67q-220 0 -331.5 80t-111.5 221zM717 307v406q0 112 -174 112t-174 -112v-406q0 -112 174 -112t174 112zM979 723v-90h319v90q0 56 -37 85.5t-122 29.5q-160 0 -160 -115z" />
    <glyph glyph-name="Racute" unicode="&#x154;" horiz-adv-x="1228" 
d="M420 530v-477q0 -28 -11 -40.5t-38 -12.5h-178q-27 0 -38.5 12.5t-11.5 40.5v1286q0 28 11.5 41t38.5 13h430q134 0 233 -27.5t154.5 -75.5t81.5 -105.5t26 -125.5v-195q0 -98 -54 -175.5t-171 -119.5l221 -516q10 -24 -4 -38.5t-43 -14.5h-180q-14 0 -23.5 7.5t-14 16
t-13.5 29.5l-201 477h-215zM623 1163h-203v-403h203q105 0 163 39t58 114v97q0 75 -58 114t-163 39zM809 1747l-150 -217q-25 -35 -65 -35h-133q-53 0 -27 51l101 201q23 51 69 51h178q27 0 34.5 -14.5t-7.5 -36.5z" />
    <glyph glyph-name="racute" unicode="&#x155;" horiz-adv-x="759" 
d="M608 1399l-147 -217q-25 -35 -66 -35h-133q-48 0 -26 51l98 201q23 51 72 51h178q26 0 32.5 -14.5t-8.5 -36.5zM684 1036q28 0 40.5 -11.5t12.5 -37.5v-131q0 -27 -12.5 -39t-40.5 -14q-175 -12 -295 -121v-629q0 -28 -10.5 -40.5t-36.5 -12.5h-170q-27 0 -39 12.5
t-12 40.5v918q0 26 11.5 37.5t39.5 11.5h158q27 0 37 -11t12 -38l6 -72q127 137 299 137z" />
    <glyph glyph-name="Rcommaaccent" unicode="&#x156;" horiz-adv-x="1228" 
d="M420 530v-477q0 -28 -11 -40.5t-38 -12.5h-178q-27 0 -38.5 12.5t-11.5 40.5v1286q0 28 11.5 41t38.5 13h430q134 0 233 -27.5t154.5 -75.5t81.5 -105.5t26 -125.5v-195q0 -98 -54 -175.5t-171 -119.5l221 -516q10 -24 -4 -38.5t-43 -14.5h-180q-14 0 -23.5 7.5t-14 16
t-13.5 29.5l-201 477h-215zM623 1163h-203v-403h203q105 0 163 39t58 114v97q0 75 -58 114t-163 39zM502 -215v61q0 28 11.5 40t39.5 12h125q27 0 38 -12t11 -40v-77q0 -125 -92 -273q-21 -36 -68 -26l-94 22q-51 12 -27 68q4 9 16.5 35.5t15 33.5l10 28t9 35.5t3.5 38.5
t2 54z" />
    <glyph glyph-name="rcommaaccent" unicode="&#x157;" horiz-adv-x="759" 
d="M145 -215v61q0 28 12 40t40 12h125q27 0 38 -12t11 -40v-77q0 -125 -92 -273q-21 -36 -68 -26l-94 22q-51 12 -27 68q4 9 14.5 31t13 29t9.5 24.5t8.5 28t4.5 29t4 38t1 45.5zM684 1036q28 0 40.5 -11.5t12.5 -37.5v-131q0 -27 -12.5 -39t-40.5 -14q-175 -12 -295 -121
v-629q0 -28 -10.5 -40.5t-36.5 -12.5h-170q-27 0 -39 12.5t-12 40.5v918q0 26 11.5 37.5t39.5 11.5h158q27 0 37 -11t12 -38l6 -72q127 137 299 137z" />
    <glyph glyph-name="Rcaron" unicode="&#x158;" horiz-adv-x="1228" 
d="M420 530v-477q0 -28 -11 -40.5t-38 -12.5h-178q-27 0 -38.5 12.5t-11.5 40.5v1286q0 28 11.5 41t38.5 13h430q134 0 233 -27.5t154.5 -75.5t81.5 -105.5t26 -125.5v-195q0 -98 -54 -175.5t-171 -119.5l221 -516q10 -24 -4 -38.5t-43 -14.5h-180q-14 0 -23.5 7.5t-14 16
t-13.5 29.5l-201 477h-215zM623 1163h-203v-403h203q105 0 163 39t58 114v97q0 75 -58 114t-163 39zM543 1749l51 -94l51 94q26 49 70 49h131q26 0 33.5 -14.5t-7.5 -34.5l-149 -203q-40 -51 -80 -51h-98q-17 0 -32.5 8t-24.5 17.5t-23 27.5l-150 201q-15 20 -7 34.5
t34 14.5h131q44 0 70 -49z" />
    <glyph glyph-name="rcaron" unicode="&#x159;" horiz-adv-x="759" 
d="M328 1401l51 -94l51 94q26 49 70 49h131q26 0 33.5 -14.5t-7.5 -34.5l-149 -203q-40 -51 -80 -51h-98q-17 0 -32.5 8t-24.5 17.5t-23 27.5l-150 201q-15 20 -7 34.5t34 14.5h131q44 0 70 -49zM684 1036q28 0 40.5 -11.5t12.5 -37.5v-131q0 -27 -12.5 -39t-40.5 -14
q-175 -12 -295 -121v-629q0 -28 -10.5 -40.5t-36.5 -12.5h-170q-27 0 -39 12.5t-12 40.5v918q0 26 11.5 37.5t39.5 11.5h158q27 0 37 -11t12 -38l6 -72q127 137 299 137z" />
    <glyph glyph-name="Sacute" unicode="&#x15a;" horiz-adv-x="1171" 
d="M797 991v47q0 148 -199 148q-201 0 -201 -148v-30q0 -80 84 -111l357 -127q111 -39 176 -112.5t65 -182.5v-158q0 -54 -15 -101t-51 -90.5t-90.5 -74t-139 -49t-191.5 -18.5q-132 0 -230 27.5t-153 75t-81 105t-26 125.5v129q0 54 50 54h172q27 0 38 -12.5t11 -41.5v-92
q0 -147 217 -147t217 147v66q0 30 -12.5 53t-41.5 41.5t-52 29t-68 27.5l-318 119q-77 29 -131.5 102t-54.5 162v121q0 69 23 125.5t74 105t145 76t223 27.5t224 -27.5t147.5 -75.5t77 -105.5t24.5 -125.5v-84q0 -27 -12 -39t-39 -12h-172q-26 0 -36.5 12t-10.5 39z
M854 1747l-149 -217q-25 -35 -66 -35h-133q-53 0 -27 51l101 201q23 51 69 51h178q27 0 34.5 -14.5t-7.5 -36.5z" />
    <glyph glyph-name="sacute" unicode="&#x15b;" horiz-adv-x="966" 
d="M760 1399l-148 -217q-25 -35 -65 -35h-133q-49 0 -27 51l98 201q23 51 72 51h178q26 0 33 -14.5t-8 -36.5zM643 725v39q0 84 -149 84q-148 0 -148 -84v-23q0 -49 64 -71l295 -105q196 -69 196 -213v-104q0 -51 -23.5 -97t-71.5 -84t-130 -60.5t-189 -22.5t-188.5 22.5
t-128 61t-69.5 84t-23 96.5v47q0 25 10.5 36t36.5 11h151q26 0 37 -11t11 -36v-35q0 -86 163 -86q166 0 166 86v35q0 25 -20.5 42t-71.5 36l-297 108q-63 24 -112.5 84.5t-49.5 132.5v66q0 52 20.5 98t64 86.5t123 64t186.5 23.5q106 0 185 -23.5t122 -64t63.5 -86.5
t20.5 -98v-39q0 -27 -10 -37t-37 -10h-152q-25 0 -35 10.5t-10 36.5z" />
    <glyph glyph-name="Scircumflex" unicode="&#x15c;" horiz-adv-x="1171" 
d="M797 991v47q0 148 -199 148q-201 0 -201 -148v-30q0 -80 84 -111l357 -127q111 -39 176 -112.5t65 -182.5v-158q0 -54 -15 -101t-51 -90.5t-90.5 -74t-139 -49t-191.5 -18.5q-132 0 -230 27.5t-153 75t-81 105t-26 125.5v129q0 54 50 54h172q27 0 38 -12.5t11 -41.5v-92
q0 -147 217 -147t217 147v66q0 30 -12.5 53t-41.5 41.5t-52 29t-68 27.5l-318 119q-77 29 -131.5 102t-54.5 162v121q0 69 23 125.5t74 105t145 76t223 27.5t224 -27.5t147.5 -75.5t77 -105.5t24.5 -125.5v-84q0 -27 -12 -39t-39 -12h-172q-26 0 -36.5 12t-10.5 39z
M584 1638l-52 -92q-27 -51 -69 -51h-131q-26 0 -34 14.5t7 36.5l150 201q35 51 80 51h98q40 0 80 -51l149 -201q15 -22 7.5 -36.5t-33.5 -14.5h-131q-44 0 -70 51z" />
    <glyph glyph-name="scircumflex" unicode="&#x15d;" horiz-adv-x="966" 
d="M483 1290l-51 -92q-27 -51 -70 -51h-131q-26 0 -33.5 14.5t7.5 36.5l149 201q35 51 80 51h98q40 0 80 -51l150 -201q15 -22 7 -36.5t-34 -14.5h-131q-43 0 -69 51zM643 725v39q0 84 -149 84q-148 0 -148 -84v-23q0 -49 64 -71l295 -105q196 -69 196 -213v-104
q0 -51 -23.5 -97t-71.5 -84t-130 -60.5t-189 -22.5t-188.5 22.5t-128 61t-69.5 84t-23 96.5v47q0 25 10.5 36t36.5 11h151q26 0 37 -11t11 -36v-35q0 -86 163 -86q166 0 166 86v35q0 25 -20.5 42t-71.5 36l-297 108q-63 24 -112.5 84.5t-49.5 132.5v66q0 52 20.5 98t64 86.5
t123 64t186.5 23.5q106 0 185 -23.5t122 -64t63.5 -86.5t20.5 -98v-39q0 -27 -10 -37t-37 -10h-152q-25 0 -35 10.5t-10 36.5z" />
    <glyph glyph-name="Scedilla" unicode="&#x15e;" horiz-adv-x="1171" 
d="M649 -92h62q83 0 131.5 -41.5t48.5 -126.5q0 -86 -48.5 -129t-131.5 -43h-244q-28 0 -39.5 11.5t-11.5 39.5v41q0 27 11.5 38t39.5 11h201q39 0 39 31q0 33 -39 33h-154q-83 0 -63 67l41 150q-203 18 -296.5 108t-93.5 219v129q0 54 50 54h172q27 0 38 -12.5t11 -41.5
v-92q0 -147 217 -147t217 147v66q0 30 -12.5 53t-41.5 41.5t-52 29t-68 27.5l-318 119q-77 29 -131.5 102t-54.5 162v121q0 69 23 125.5t74 105t145 76t223 27.5t224 -27.5t147.5 -75.5t77 -105.5t24.5 -125.5v-84q0 -27 -12 -39t-39 -12h-172q-26 0 -36.5 12t-10.5 39v47
q0 148 -199 148q-201 0 -201 -148v-30q0 -80 84 -111l357 -127q111 -39 176 -112.5t65 -182.5v-158q0 -63 -21.5 -116.5t-68 -100t-128 -76t-191.5 -36.5z" />
    <glyph glyph-name="scedilla" unicode="&#x15f;" horiz-adv-x="966" 
d="M510 -92h61q83 0 132 -42t49 -126q0 -86 -49 -129t-132 -43h-243q-28 0 -40 11.5t-12 39.5v41q0 27 12 38t40 11h200q39 0 39 31q0 33 -39 33h-153q-84 0 -64 67l43 154q-140 23 -208 93t-68 161v47q0 25 10.5 36t36.5 11h151q26 0 37 -11t11 -36v-35q0 -86 163 -86
q166 0 166 86v35q0 25 -20.5 42t-71.5 36l-297 108q-63 24 -112.5 84.5t-49.5 132.5v66q0 52 20.5 98t64 86.5t123 64t186.5 23.5q106 0 185 -23.5t122 -64t63.5 -86.5t20.5 -98v-39q0 -27 -10 -37t-37 -10h-152q-25 0 -35 10.5t-10 36.5v39q0 84 -149 84q-148 0 -148 -84
v-23q0 -49 64 -71l295 -105q196 -69 196 -213v-104q0 -103 -93 -178.5t-278 -83.5z" />
    <glyph glyph-name="Scaron" unicode="&#x160;" horiz-adv-x="1171" 
d="M797 991v47q0 148 -199 148q-201 0 -201 -148v-30q0 -80 84 -111l357 -127q111 -39 176 -112.5t65 -182.5v-158q0 -54 -15 -101t-51 -90.5t-90.5 -74t-139 -49t-191.5 -18.5q-132 0 -230 27.5t-153 75t-81 105t-26 125.5v129q0 54 50 54h172q27 0 38 -12.5t11 -41.5v-92
q0 -147 217 -147t217 147v66q0 30 -12.5 53t-41.5 41.5t-52 29t-68 27.5l-318 119q-77 29 -131.5 102t-54.5 162v121q0 69 23 125.5t74 105t145 76t223 27.5t224 -27.5t147.5 -75.5t77 -105.5t24.5 -125.5v-84q0 -27 -12 -39t-39 -12h-172q-26 0 -36.5 12t-10.5 39z
M537 1749l51 -94l51 94q26 49 70 49h131q26 0 33.5 -14.5t-7.5 -34.5l-149 -203q-40 -51 -80 -51h-98q-17 0 -32.5 8t-24.5 17.5t-23 27.5l-150 201q-15 20 -7 34.5t34 14.5h131q44 0 70 -49z" />
    <glyph glyph-name="scaron" unicode="&#x161;" horiz-adv-x="966" 
d="M440 1401l52 -94l51 94q26 49 69 49h131q26 0 34 -14.5t-7 -34.5l-149 -203q-40 -51 -80 -51h-99q-17 0 -32.5 8t-24.5 17.5t-23 27.5l-149 201q-15 20 -7 34.5t34 14.5h131q43 0 69 -49zM643 725v39q0 84 -149 84q-148 0 -148 -84v-23q0 -49 64 -71l295 -105
q196 -69 196 -213v-104q0 -51 -23.5 -97t-71.5 -84t-130 -60.5t-189 -22.5t-188.5 22.5t-128 61t-69.5 84t-23 96.5v47q0 25 10.5 36t36.5 11h151q26 0 37 -11t11 -36v-35q0 -86 163 -86q166 0 166 86v35q0 25 -20.5 42t-71.5 36l-297 108q-63 24 -112.5 84.5t-49.5 132.5
v66q0 52 20.5 98t64 86.5t123 64t186.5 23.5q106 0 185 -23.5t122 -64t63.5 -86.5t20.5 -98v-39q0 -27 -10 -37t-37 -10h-152q-25 0 -35 10.5t-10 36.5z" />
    <glyph glyph-name="Tcommaaccent" unicode="&#x162;" horiz-adv-x="1007" 
d="M391 -215v61q0 28 11.5 40t39.5 12h125q27 0 38 -12t11 -40v-77q0 -125 -92 -273q-21 -36 -67 -26l-95 22q-50 11 -26 68q4 9 14.5 31t13 29t9.5 24.5t8.5 28t4.5 29t4 38t1 45.5zM74 1393h860q27 0 39 -11.5t12 -38.5v-129q0 -27 -12 -39t-39 -12h-291v-1110
q0 -28 -11 -40.5t-38 -12.5h-178q-27 0 -39 12.5t-12 40.5v1110h-291q-28 0 -39.5 11.5t-11.5 39.5v129q0 28 11.5 39t39.5 11z" />
    <glyph glyph-name="tcommaaccent" unicode="&#x163;" horiz-adv-x="743" 
d="M221 -217v61q0 28 11.5 40t39.5 12h125q27 0 38 -12t11 -40v-77q0 -125 -92 -273q-21 -36 -67 -26l-94 22q-51 12 -27 68q4 9 14.5 31t13 29t9.5 24.5t8.5 28t4.5 29t4 38t1 45.5zM451 1016h186q27 0 39 -10.5t12 -36.5v-115q0 -27 -12 -39t-39 -12h-186v-471
q0 -57 38.5 -84t124.5 -27h45q28 0 40 -11.5t12 -39.5v-119q0 -28 -12 -39.5t-40 -11.5h-86q-148 0 -235.5 35t-122.5 99.5t-35 168.5v500h-100q-26 0 -37.5 11.5t-11.5 39.5v102q0 26 11 36.5t38 13.5l94 10h6v196q0 28 11.5 40t39.5 12h170q27 0 38.5 -12t11.5 -40v-196z
" />
    <glyph glyph-name="Tcaron" unicode="&#x164;" horiz-adv-x="1007" 
d="M74 1393h860q27 0 39 -11.5t12 -38.5v-129q0 -27 -12 -39t-39 -12h-291v-1110q0 -28 -11 -40.5t-38 -12.5h-178q-27 0 -39 12.5t-12 40.5v1110h-291q-28 0 -39.5 11.5t-11.5 39.5v129q0 28 11.5 39t39.5 11zM453 1749l51 -94l51 94q26 49 70 49h131q26 0 33.5 -14.5
t-7.5 -34.5l-149 -203q-40 -51 -80 -51h-98q-17 0 -32.5 8t-24.5 17.5t-23 27.5l-150 201q-15 20 -7 34.5t34 14.5h131q44 0 70 -49z" />
    <glyph glyph-name="tcaron" unicode="&#x165;" horiz-adv-x="825" 
d="M588 1401v61q0 28 11.5 39.5t39.5 11.5h125q27 0 38 -11.5t11 -39.5v-78q0 -124 -92 -272q-22 -37 -68 -27l-94 23q-51 12 -27 68q4 9 16.5 35.5t15 33.5l10 28t9 35.5t3.5 38.5t2 54zM451 1016h186q27 0 39 -10.5t12 -36.5v-115q0 -27 -12 -39t-39 -12h-186v-471
q0 -57 38.5 -84t124.5 -27h45q28 0 40 -11.5t12 -39.5v-119q0 -28 -12 -39.5t-40 -11.5h-86q-148 0 -235.5 35t-122.5 99.5t-35 168.5v500h-100q-26 0 -37.5 11.5t-11.5 39.5v102q0 26 11 36.5t38 13.5l94 10h6v196q0 28 11.5 40t39.5 12h170q27 0 38.5 -12t11.5 -40v-196z
" />
    <glyph glyph-name="Tbar" unicode="&#x166;" horiz-adv-x="1007" 
d="M74 1393h860q27 0 39 -11.5t12 -38.5v-129q0 -27 -12 -39t-39 -12h-291v-297h217q27 0 39 -10.5t12 -36.5v-88q0 -27 -12 -39t-39 -12h-217v-627q0 -28 -11 -40.5t-38 -12.5h-178q-27 0 -39 12.5t-12 40.5v627h-211q-28 0 -40 11.5t-12 39.5v88q0 26 12 36.5t40 10.5h211
v297h-291q-28 0 -39.5 11.5t-11.5 39.5v129q0 28 11.5 39t39.5 11z" />
    <glyph glyph-name="tbar" unicode="&#x167;" horiz-adv-x="743" 
d="M451 1016h186q27 0 39 -10.5t12 -36.5v-115q0 -27 -12 -39t-39 -12h-186v-137h186q27 0 39 -11t12 -37v-88q0 -27 -12 -39t-39 -12h-186v-147q0 -57 38.5 -84t124.5 -27h45q28 0 40 -11.5t12 -39.5v-119q0 -28 -12 -39.5t-40 -11.5h-86q-148 0 -235.5 35t-122.5 99.5
t-35 168.5v176h-98q-27 0 -39 12t-12 39v88q0 26 12 37t39 11h98v137h-100q-26 0 -37.5 11.5t-11.5 39.5v102q0 26 11 36.5t38 13.5l94 10h6v196q0 28 11.5 40t39.5 12h170q27 0 38.5 -12t11.5 -40v-196z" />
    <glyph glyph-name="Utilde" unicode="&#x168;" horiz-adv-x="1259" 
d="M410 1339v-972q0 -75 57.5 -114.5t161.5 -39.5q105 0 164 39.5t59 114.5v972q0 29 11 41.5t38 12.5h178q27 0 37 -12.5t10 -41.5v-1022q0 -68 -26.5 -125.5t-82 -105t-155 -75t-233.5 -27.5t-233.5 27.5t-155.5 75t-82.5 105t-26.5 125.5v1022q0 28 12 41t39 13h178
q50 0 50 -54zM506 1610q-39 0 -39 -51v-11q0 -26 -13.5 -35.5t-41.5 -9.5h-88q-49 0 -43 60l8 84q7 75 57.5 117t122.5 42q61 0 119 -26l88 -43q64 -31 76 -31q19 0 26.5 10.5t12.5 38.5l2 12q4 26 16.5 35.5t38.5 9.5h88q46 0 43 -59l-6 -80q-6 -78 -53.5 -119t-116.5 -41
q-65 0 -131 27l-88 39q-8 4 -22 10.5t-22 10.5t-17.5 7t-16.5 3z" />
    <glyph glyph-name="utilde" unicode="&#x169;" 
d="M725 51l-4 45q-126 -112 -315 -112q-137 0 -216 76t-79 198v711q0 28 11.5 39.5t37.5 11.5h168q27 0 39 -12t12 -39v-643q0 -58 24 -83.5t86 -25.5q114 0 226 90v662q0 28 11 39.5t38 11.5h170q26 0 37.5 -11.5t11.5 -39.5v-918q0 -28 -11.5 -39.5t-37.5 -11.5h-158
q-27 0 -37.5 11t-13.5 40zM430 1243q-19 0 -26.5 -10.5t-12.5 -38.5l-2 -12q-4 -26 -16 -35.5t-37 -9.5h-90q-48 0 -41 59l8 86q7 75 57 116.5t121 41.5q65 0 121 -27l86 -41q8 -4 22 -10.5t22 -10.5t17.5 -7t16.5 -3q39 0 39 50v10q0 45 55 45h88q26 0 35.5 -15t7.5 -45
l-6 -79q-6 -78 -53.5 -119t-114.5 -41q-69 0 -131 27l-88 38q-10 4 -29 13.5t-30 13.5t-19 4z" />
    <glyph glyph-name="Umacron" unicode="&#x16a;" horiz-adv-x="1259" 
d="M410 1339v-972q0 -75 57.5 -114.5t161.5 -39.5q105 0 164 39.5t59 114.5v972q0 29 11 41.5t38 12.5h178q27 0 37 -12.5t10 -41.5v-1022q0 -68 -26.5 -125.5t-82 -105t-155 -75t-233.5 -27.5t-233.5 27.5t-155.5 75t-82.5 105t-26.5 125.5v1022q0 28 12 41t39 13h178
q50 0 50 -54zM393 1739h473q27 0 39.5 -10.5t12.5 -36.5v-105q0 -51 -52 -51h-473q-27 0 -39 12t-12 39v105q0 26 12 36.5t39 10.5z" />
    <glyph glyph-name="umacron" unicode="&#x16b;" 
d="M725 51l-4 45q-126 -112 -315 -112q-137 0 -216 76t-79 198v711q0 28 11.5 39.5t37.5 11.5h168q27 0 39 -12t12 -39v-643q0 -58 24 -83.5t86 -25.5q114 0 226 90v662q0 28 11 39.5t38 11.5h170q26 0 37.5 -11.5t11.5 -39.5v-918q0 -28 -11.5 -39.5t-37.5 -11.5h-158
q-27 0 -37.5 11t-13.5 40zM317 1374h471q28 0 40 -11t12 -38v-104q0 -26 -12 -38t-40 -12h-471q-53 0 -53 50v104q0 27 12.5 38t40.5 11z" />
    <glyph glyph-name="Ubreve" unicode="&#x16c;" horiz-adv-x="1259" 
d="M410 1339v-972q0 -75 57.5 -114.5t161.5 -39.5q105 0 164 39.5t59 114.5v972q0 29 11 41.5t38 12.5h178q27 0 37 -12.5t10 -41.5v-1022q0 -68 -26.5 -125.5t-82 -105t-155 -75t-233.5 -27.5t-233.5 27.5t-155.5 75t-82.5 105t-26.5 125.5v1022q0 28 12 41t39 13h178
q50 0 50 -54zM537 1761v-35q0 -43 20.5 -66.5t71.5 -23.5t71.5 23.5t20.5 66.5v35q0 23 10 32t35 9h102q25 0 35 -9t10 -32v-28q0 -122 -75 -188t-215 -66q-139 0 -209 65.5t-70 188.5v28q0 23 10 32t35 9h103q25 0 35 -9t10 -32z" />
    <glyph glyph-name="ubreve" unicode="&#x16d;" 
d="M725 51l-4 45q-126 -112 -315 -112q-137 0 -216 76t-79 198v711q0 28 11.5 39.5t37.5 11.5h168q27 0 39 -12t12 -39v-643q0 -58 24 -83.5t86 -25.5q114 0 226 90v662q0 28 11 39.5t38 11.5h170q26 0 37.5 -11.5t11.5 -39.5v-918q0 -28 -11.5 -39.5t-37.5 -11.5h-158
q-27 0 -37.5 11t-13.5 40zM442 1403v-35q0 -90 95 -90q51 0 71.5 23.5t20.5 66.5v35q0 23 10 33t35 10h100q25 0 35 -10t10 -33v-29q0 -122 -75 -188t-216 -66q-138 0 -207 65.5t-69 188.5v29q0 23 10 33t35 10h100q25 0 35 -10t10 -33z" />
    <glyph glyph-name="Uring" unicode="&#x16e;" horiz-adv-x="1259" 
d="M858 1681v-59q0 -68 -58 -114t-171 -46t-171.5 46t-58.5 114v59q0 68 58.5 114t171.5 46t171 -46t58 -114zM711 1640v25q0 61 -82 61t-82 -61v-25q0 -63 82 -63t82 63zM410 1339v-972q0 -75 57.5 -114.5t161.5 -39.5q105 0 164 39.5t59 114.5v972q0 29 11 41.5t38 12.5
h178q27 0 37 -12.5t10 -41.5v-1022q0 -68 -26.5 -125.5t-82 -105t-155 -75t-233.5 -27.5t-233.5 27.5t-155.5 75t-82.5 105t-26.5 125.5v1022q0 28 12 41t39 13h178q50 0 50 -54z" />
    <glyph glyph-name="uring" unicode="&#x16f;" 
d="M776 1339v-69q0 -68 -57 -112t-168 -44q-112 0 -169.5 44t-57.5 112v69q0 68 57.5 112t169.5 44q111 0 168 -44t57 -112zM633 1288v31q0 61 -82 61q-84 0 -84 -61v-31q0 -61 84 -61q82 0 82 61zM725 51l-4 45q-126 -112 -315 -112q-137 0 -216 76t-79 198v711
q0 28 11.5 39.5t37.5 11.5h168q27 0 39 -12t12 -39v-643q0 -58 24 -83.5t86 -25.5q114 0 226 90v662q0 28 11 39.5t38 11.5h170q26 0 37.5 -11.5t11.5 -39.5v-918q0 -28 -11.5 -39.5t-37.5 -11.5h-158q-27 0 -37.5 11t-13.5 40z" />
    <glyph glyph-name="Uhungarumlaut" unicode="&#x170;" horiz-adv-x="1259" 
d="M1044 1747l-141 -203q-31 -49 -76 -49h-125q-26 0 -33 14t7 37l117 201q28 51 77 51h150q27 0 33.5 -14.5t-9.5 -36.5zM717 1747l-113 -201q-14 -27 -27.5 -39t-39.5 -12h-125q-26 0 -35.5 14t0.5 37l86 201q22 51 69 51h150q28 0 37.5 -14.5t-2.5 -36.5zM410 1339v-972
q0 -75 57.5 -114.5t161.5 -39.5q105 0 164 39.5t59 114.5v972q0 29 11 41.5t38 12.5h178q27 0 37 -12.5t10 -41.5v-1022q0 -68 -26.5 -125.5t-82 -105t-155 -75t-233.5 -27.5t-233.5 27.5t-155.5 75t-82.5 105t-26.5 125.5v1022q0 28 12 41t39 13h178q50 0 50 -54z" />
    <glyph glyph-name="uhungarumlaut" unicode="&#x171;" 
d="M725 51l-4 45q-126 -112 -315 -112q-137 0 -216 76t-79 198v711q0 28 11.5 39.5t37.5 11.5h168q27 0 39 -12t12 -39v-643q0 -58 24 -83.5t86 -25.5q114 0 226 90v662q0 28 11 39.5t38 11.5h170q26 0 37.5 -11.5t11.5 -39.5v-918q0 -28 -11.5 -39.5t-37.5 -11.5h-158
q-27 0 -37.5 11t-13.5 40zM963 1399l-144 -203q-34 -49 -76 -49h-125q-26 0 -33 14t7 37l117 201q28 51 77 51h150q27 0 34 -15.5t-7 -35.5zM633 1399l-113 -201q-14 -27 -27.5 -39t-39.5 -12h-125q-26 0 -35 14t0 37l86 201q22 51 70 51h149q27 0 36.5 -15.5t-1.5 -35.5z
" />
    <glyph glyph-name="Uogonek" unicode="&#x172;" horiz-adv-x="1259" 
d="M410 1339v-972q0 -75 57.5 -114.5t161.5 -39.5q105 0 164 39.5t59 114.5v972q0 29 11 41.5t38 12.5h178q27 0 37 -12.5t10 -41.5v-1022q0 -126 -79 -202q-7 -7 -34 -33.5t-35.5 -35.5t-27.5 -32.5t-26 -39.5t-14 -40.5t-7 -50.5q0 -63 78 -63h51q28 0 40.5 -11t12.5 -38
v-70q0 -51 -69 -51h-119q-32 0 -63.5 8t-63 26.5t-51 55t-19.5 86.5q0 87 48 164q-56 -6 -119 -6q-134 0 -233.5 27.5t-155.5 75t-82.5 105t-26.5 125.5v1022q0 28 12 41t39 13h178q50 0 50 -54z" />
    <glyph glyph-name="uogonek" unicode="&#x173;" horiz-adv-x="1103" 
d="M920 -350h-95q-32 0 -64 8.5t-63.5 27.5t-51 56t-19.5 86q0 121 98 217l-4 51q-126 -112 -315 -112q-137 0 -216 76t-79 198v711q0 28 11.5 39.5t37.5 11.5h168q27 0 39 -12t12 -39v-643q0 -58 24 -83.5t86 -25.5q114 0 226 90v662q0 28 11 39.5t38 11.5h170
q26 0 37.5 -11.5t11.5 -39.5v-918q0 -28 -11.5 -39.5t-37.5 -11.5h-14q-43 -3 -67 -37.5t-24 -79.5q0 -63 78 -63h29q27 0 39 -11t12 -38v-70q0 -26 -19 -38.5t-48 -12.5z" />
    <glyph glyph-name="Wcircumflex" unicode="&#x174;" horiz-adv-x="1716" 
d="M1016 1341l172 -696q20 -89 33 -203q19 136 36 201l177 698q13 52 59 52h156q52 0 39 -52l-326 -1290q-12 -51 -64 -51h-174q-45 0 -57 51l-180 713q-8 30 -17.5 92.5t-11.5 89.5q-17 -124 -29 -182l-180 -713q-12 -51 -63 -51h-174q-46 0 -58 51l-325 1290q-13 52 39 52
h182q46 0 59 -52l172 -698q26 -113 33 -170q0 28 37 170l176 698q13 52 61 52h166q49 0 62 -52zM862 1638l-51 -92q-27 -51 -70 -51h-131q-26 0 -33.5 14.5t7.5 36.5l149 201q35 51 80 51h98q40 0 80 -51l150 -201q15 -22 7 -36.5t-34 -14.5h-131q-44 0 -70 51z" />
    <glyph glyph-name="wcircumflex" unicode="&#x175;" horiz-adv-x="1466" 
d="M735 1290l-51 -92q-27 -51 -70 -51h-131q-26 0 -33.5 14.5t7.5 36.5l149 201q35 51 80 51h98q40 0 80 -51l150 -201q15 -22 7 -36.5t-34 -14.5h-131q-44 0 -70 51zM1444 969l-262 -922q-8 -28 -17.5 -37.5t-34.5 -9.5h-202q-26 0 -36.5 10.5t-17.5 36.5l-114 485
q-19 78 -19 109q0 -1 -4 -18.5t-10 -42.5t-12 -48l-142 -485q-7 -26 -16.5 -36.5t-34.5 -10.5h-198q-26 0 -37 10.5t-17 36.5l-247 922q-7 25 6.5 38t42.5 13h161q26 0 38.5 -12.5t19.5 -38.5l141 -537q4 -19 8 -42t6 -38.5t3 -17.5q0 14 24 98l150 537q7 26 18.5 38.5
t36.5 12.5h164q47 0 57 -51l125 -537l8.5 -42.5t6.5 -36.5t3 -17q0 6 23 96l139 537q7 26 19.5 38.5t38.5 12.5h135q28 0 41 -13t6 -38z" />
    <glyph glyph-name="Ycircumflex" unicode="&#x176;" horiz-adv-x="1116" 
d="M330 1341l194 -467q26 -70 35 -108q16 65 37 108l217 467q11 26 23 39t36 13h177q27 0 37 -13.5t-1 -38.5l-387 -809v-481q0 -27 -11 -39t-38 -12h-178q-27 0 -39 12t-12 39v449l-389 841q-11 23 -1 37.5t36 14.5h202q42 0 62 -52zM557 1638l-51 -92q-27 -51 -70 -51
h-131q-26 0 -33.5 14.5t7.5 36.5l149 201q35 51 80 51h98q40 0 80 -51l150 -201q15 -22 7 -36.5t-34 -14.5h-131q-44 0 -70 51z" />
    <glyph glyph-name="ycircumflex" unicode="&#x177;" horiz-adv-x="970" 
d="M297 969l154 -469q8 -25 14.5 -56t10 -53t6.5 -42t3 -21q0 1 3 13.5t6.5 29.5t8.5 37.5t12 43t13 40.5l162 477q8 27 19 39t36 12h156q29 0 43.5 -13.5t5.5 -37.5l-452 -1329q-15 -52 -58 -52h-123q-29 0 -42.5 13.5t-6.5 38.5l101 333l-346 996q-9 24 5 37.5t42 13.5
h170q26 0 37 -12t20 -39zM485 1290l-51 -92q-27 -51 -69 -51h-132q-26 0 -33.5 14.5t7.5 36.5l149 201q35 51 80 51h99q39 0 79 -51l150 -201q15 -22 7 -36.5t-34 -14.5h-131q-43 0 -69 51z" />
    <glyph glyph-name="Ydieresis" unicode="&#x178;" horiz-adv-x="1116" 
d="M330 1341l194 -467l35 -106q2 12 14 48.5t23 57.5l217 467q11 26 23 39t36 13h177q27 0 37 -13.5t-1 -38.5l-387 -809v-481q0 -27 -11 -39t-38 -12h-178q-27 0 -39 12t-12 39v449l-389 841q-11 23 -1 37.5t36 14.5h202q42 0 62 -52zM514 1741v-191q0 -28 -11 -39.5
t-38 -11.5h-100q-27 0 -38.5 11.5t-11.5 39.5v191q0 53 50 53h100q27 0 38 -12.5t11 -40.5zM799 1741v-191q0 -28 -10.5 -39.5t-36.5 -11.5h-101q-27 0 -38 11.5t-11 39.5v191q0 28 11 40.5t38 12.5h101q26 0 36.5 -12.5t10.5 -40.5z" />
    <glyph glyph-name="Zacute" unicode="&#x179;" horiz-adv-x="1017" 
d="M154 1393h729q28 0 40.5 -11.5t12.5 -38.5v-126q0 -21 -12 -41l-525 -947h521q27 0 39 -11t12 -38v-129q0 -27 -12 -39t-39 -12h-801q-28 0 -39.5 11.5t-11.5 39.5v129q0 19 8 35l526 948h-448q-52 0 -52 51v129q0 27 12.5 38.5t39.5 11.5zM797 1747l-150 -217
q-25 -35 -65 -35h-133q-53 0 -27 51l100 201q23 51 70 51h178q27 0 34.5 -14.5t-7.5 -36.5z" />
    <glyph glyph-name="zacute" unicode="&#x17a;" horiz-adv-x="913" 
d="M719 1399l-148 -217q-25 -35 -65 -35h-133q-49 0 -27 51l98 201q23 51 72 51h178q26 0 33 -14.5t-8 -36.5zM152 1020h620q28 0 39.5 -11t11.5 -38v-119q0 -23 -16 -45l-414 -588h416q28 0 39.5 -11t11.5 -38v-121q0 -26 -11.5 -37.5t-39.5 -11.5h-692q-51 0 -51 49v121
q0 23 16 45l410 586h-340q-54 0 -54 49v121q0 27 12.5 38t41.5 11z" />
    <glyph glyph-name="Zdotaccent" unicode="&#x17b;" horiz-adv-x="1017" 
d="M645 1718v-168q0 -28 -10.5 -38.5t-38.5 -10.5h-174q-28 0 -38.5 10.5t-10.5 38.5v168q0 27 11 39t38 12h174q27 0 38 -12t11 -39zM154 1393h729q28 0 40.5 -11.5t12.5 -38.5v-126q0 -21 -12 -41l-525 -947h521q27 0 39 -11t12 -38v-129q0 -27 -12 -39t-39 -12h-801
q-28 0 -39.5 11.5t-11.5 39.5v129q0 19 8 35l526 948h-448q-52 0 -52 51v129q0 27 12.5 38.5t39.5 11.5z" />
    <glyph glyph-name="zdotaccent" unicode="&#x17c;" horiz-adv-x="913" 
d="M152 1020h620q28 0 39.5 -11t11.5 -38v-119q0 -23 -16 -45l-414 -588h416q28 0 39.5 -11t11.5 -38v-121q0 -26 -11.5 -37.5t-39.5 -11.5h-692q-51 0 -51 49v121q0 23 16 45l410 586h-340q-54 0 -54 49v121q0 27 12.5 38t41.5 11zM596 1386v-165q0 -28 -10.5 -40
t-36.5 -12h-176q-27 0 -38 12t-11 40v165q0 28 11 40t38 12h176q26 0 36.5 -12t10.5 -40z" />
    <glyph glyph-name="Zcaron" unicode="&#x17d;" horiz-adv-x="1017" 
d="M465 1757l51 -94l51 94q26 49 70 49h131q26 0 34 -14.5t-7 -34.5l-150 -203q-40 -51 -80 -51h-98q-17 0 -32.5 8t-24.5 17.5t-23 27.5l-149 201q-15 20 -7.5 34.5t33.5 14.5h131q44 0 70 -49zM154 1393h729q28 0 40.5 -11.5t12.5 -38.5v-126q0 -21 -12 -41l-525 -947h521
q27 0 39 -11t12 -38v-129q0 -27 -12 -39t-39 -12h-801q-28 0 -39.5 11.5t-11.5 39.5v129q0 19 8 35l526 948h-448q-52 0 -52 51v129q0 27 12.5 38.5t39.5 11.5z" />
    <glyph glyph-name="zcaron" unicode="&#x17e;" horiz-adv-x="913" 
d="M416 1401l51 -94l51 94q26 49 70 49h131q26 0 33.5 -14.5t-7.5 -34.5l-149 -203q-40 -51 -80 -51h-98q-17 0 -32.5 8t-24.5 17.5t-23 27.5l-150 201q-15 20 -7 34.5t34 14.5h131q44 0 70 -49zM152 1020h620q28 0 39.5 -11t11.5 -38v-119q0 -23 -16 -45l-414 -588h416
q28 0 39.5 -11t11.5 -38v-121q0 -26 -11.5 -37.5t-39.5 -11.5h-692q-51 0 -51 49v121q0 23 16 45l410 586h-340q-54 0 -54 49v121q0 27 12.5 38t41.5 11z" />
    <glyph glyph-name="longs" unicode="&#x17f;" horiz-adv-x="714" 
d="M193 1016h8v123q0 141 109.5 221t328.5 80h18q28 0 40 -11.5t12 -39.5v-117q0 -51 -52 -51h-18q-87 0 -128.5 -27.5t-41.5 -85.5v-1057q0 -27 -11 -39t-38 -12h-170q-27 0 -38 12t-11 39v754h-111q-28 0 -39.5 11.5t-11.5 39.5v100q0 26 11.5 36.5t39.5 13.5z" />
    <glyph glyph-name="florin" unicode="&#x192;" horiz-adv-x="1179" 
d="M1012 1229h-41q-88 0 -132.5 -27t-50.5 -84l-26 -229h147q28 0 40 -11t12 -38v-115q0 -26 -12 -37.5t-40 -11.5h-168l-88 -807q-16 -141 -133.5 -221t-335.5 -80h-18q-27 0 -39 11t-12 38v119q0 27 12 39t39 12h41q86 0 130 27.5t50 85.5l84 776h-125q-26 0 -37.5 11.5
t-11.5 37.5v113q0 28 11.5 39.5t37.5 11.5h148l26 258q14 142 132.5 222.5t338.5 80.5h21q27 0 39 -12t12 -39v-119q0 -27 -12 -39t-39 -12z" />
    <glyph glyph-name="Aringacute" unicode="&#x1fa;" horiz-adv-x="1134" 
d="M477 1393h178q51 0 66 -52l381 -1290q15 -51 -37 -51h-184q-45 0 -60 51l-71 250h-381l-72 -250q-8 -27 -21.5 -39t-39.5 -12h-166q-54 0 -39 51l383 1290q8 27 22 39.5t41 12.5zM795 1681v-59q0 -68 -58.5 -114t-171.5 -46t-171 46t-58 114v59q0 52 33.5 92t101.5 58
l47 92q23 51 72 51h178q28 0 35 -14.5t-10 -36.5l-86 -111q88 -46 88 -131zM688 520l-67 228q-17 54 -37 191t-23 181q-46 -313 -63 -370l-70 -230h260zM647 1640v25q0 61 -82 61t-82 -61v-25q0 -63 82 -63t82 63z" />
    <glyph glyph-name="aringacute" unicode="&#x1fb;" horiz-adv-x="1058" 
d="M123 715v26q0 295 414 295q216 0 313.5 -76t97.5 -219v-688q0 -28 -11.5 -40.5t-37.5 -12.5h-154q-26 0 -36 11.5t-13 41.5l-4 43q-135 -112 -303 -112q-143 0 -219 73.5t-76 182.5v92q0 109 81 183.5t226 74.5h283v131q0 59 -34 87t-120 28t-121.5 -25t-35.5 -82v-14
q0 -28 -11.5 -39.5t-37.5 -11.5h-152q-27 0 -38 11.5t-11 39.5zM764 1339v-69q0 -68 -57 -112t-168 -44q-112 0 -170 44t-58 112v69q0 51 35 90t103 56l71 147q23 51 72 51h178q26 0 33 -14.5t-8 -36.5l-113 -166q82 -43 82 -127zM459 197q107 0 225 88v116h-229
q-56 0 -77.5 -24t-21.5 -68v-33q0 -79 103 -79zM621 1288v31q0 55 -72 61h-23q-71 -6 -71 -61v-31q0 -61 84 -61q82 0 82 61z" />
    <glyph glyph-name="AEacute" unicode="&#x1fc;" horiz-adv-x="1710" 
d="M874 1393h680q28 0 40 -11.5t12 -38.5v-124q0 -27 -12 -38.5t-40 -11.5h-473v-340h439q28 0 40.5 -11t12.5 -38v-116q0 -28 -12.5 -40t-40.5 -12h-439v-389h496q27 0 39 -10.5t12 -36.5v-127q0 -49 -51 -49h-707q-27 0 -39 12t-12 39v250h-375l-145 -250
q-9 -16 -15.5 -25t-18 -17.5t-25.5 -8.5h-168q-27 0 -38.5 14t1.5 37l768 1292q31 50 71 50zM750 819l-175 -299h244v432q-42 -86 -69 -133zM1272 1747l-150 -217q-25 -35 -65 -35h-133q-53 0 -27 51l100 201q23 51 70 51h178q27 0 34.5 -14.5t-7.5 -36.5z" />
    <glyph glyph-name="aeacute" unicode="&#x1fd;" horiz-adv-x="1607" 
d="M1067 1399l-147 -217q-25 -35 -66 -35h-133q-49 0 -27 51l99 201q23 51 71 51h178q26 0 33 -14.5t-8 -36.5zM1518 735v-233q0 -47 -48 -47h-524v-162q0 -56 37.5 -83.5t122.5 -27.5t122.5 28.5t37.5 84.5v14q0 26 11.5 37.5t39.5 11.5h141q28 0 39.5 -11.5t11.5 -37.5
v-24q0 -145 -94.5 -223t-308.5 -78q-275 0 -365 127q-164 -127 -352 -127q-146 0 -221.5 73.5t-75.5 182.5v88q0 108 82 182t227 74h283v151q0 107 -154 107q-86 0 -121.5 -25t-35.5 -82v-20q0 -27 -11.5 -38t-39.5 -11h-150q-28 0 -39.5 11t-11.5 38v28q0 293 414 293
q194 0 276 -92q99 92 295 92q412 0 412 -301zM459 193q99 0 225 94v116h-233q-52 0 -74.5 -25t-22.5 -65v-39q0 -42 29 -61.5t76 -19.5zM946 723v-90h320v90q0 115 -160 115t-160 -115z" />
    <glyph glyph-name="Oslashacute" unicode="&#x1fe;" horiz-adv-x="1239" 
d="M121 315v758q0 68 26.5 125.5t82 105.5t155 75.5t233.5 27.5q158 0 273 -41l18 35q7 14 12 22.5t13.5 18.5t19.5 15t25 5h57q44 0 15 -61l-50 -94q115 -86 115 -234v-758q0 -68 -26.5 -125.5t-82.5 -105t-155.5 -75t-233.5 -27.5q-158 0 -276 41l-16 -33q-15 -32 -31 -47
t-43 -15h-53q-22 0 -26 18.5t9 43.5l47 94q-108 84 -108 231zM840 365v624l-381 -741q55 -37 159 -37q105 0 163.5 39.5t58.5 114.5zM399 1024v-612l377 731q-59 35 -158 35q-104 0 -161.5 -39.5t-57.5 -114.5zM881 1747l-150 -217q-25 -35 -65 -35h-134q-52 0 -26 51
l100 201q23 51 70 51h178q27 0 34.5 -14.5t-7.5 -36.5z" />
    <glyph glyph-name="oslashacute" unicode="&#x1ff;" horiz-adv-x="1085" 
d="M100 287v448q0 141 111.5 221t331.5 80q114 0 200 -22l13 20q8 16 13 23.5t13.5 18.5t19 15.5t23.5 4.5h58q46 0 12 -62l-37 -69q127 -77 127 -230v-448q0 -142 -111 -222.5t-331 -80.5q-115 0 -205 22l-8 -14q-14 -26 -21 -36.5t-20.5 -18t-34.5 -7.5h-51
q-24 0 -25 21.5t12 40.5l35 63q-125 79 -125 232zM717 309v396l-271 -498q34 -10 97 -10q174 0 174 112zM369 713v-394l266 492q-37 12 -92 12q-174 0 -174 -110zM803 1399l-148 -217q-25 -35 -65 -35h-133q-49 0 -27 51l98 201q23 51 72 51h178q26 0 33 -14.5t-8 -36.5z
" />
    <glyph glyph-name="Scommaaccent" unicode="&#x218;" horiz-adv-x="1171" 
d="M483 -215v61q0 28 12 40t40 12h124q27 0 38.5 -12t11.5 -40v-77q0 -123 -93 -273q-21 -36 -67 -26l-94 22q-51 12 -27 68q4 9 14.5 31t13 29t9.5 24.5t8.5 28t4.5 29t4 38t1 45.5zM797 991v47q0 148 -199 148q-201 0 -201 -148v-30q0 -80 84 -111l357 -127
q111 -39 176 -112.5t65 -182.5v-158q0 -54 -15 -101t-51 -90.5t-90.5 -74t-139 -49t-191.5 -18.5q-132 0 -230 27.5t-153 75t-81 105t-26 125.5v129q0 54 50 54h172q27 0 38 -12.5t11 -41.5v-92q0 -147 217 -147t217 147v66q0 30 -12.5 53t-41.5 41.5t-52 29t-68 27.5
l-318 119q-77 29 -131.5 102t-54.5 162v121q0 69 23 125.5t74 105t145 76t223 27.5t224 -27.5t147.5 -75.5t77 -105.5t24.5 -125.5v-84q0 -27 -12 -39t-39 -12h-172q-26 0 -36.5 12t-10.5 39z" />
    <glyph glyph-name="scommaaccent" unicode="&#x219;" horiz-adv-x="966" 
d="M393 -217v61q0 28 11.5 40t39.5 12h125q27 0 38 -12t11 -40v-77q0 -125 -92 -273q-21 -36 -67 -26l-94 22q-51 12 -27 68q4 9 14.5 31t13 29t9.5 24.5t8.5 28t4.5 29t4 38t1 45.5zM643 725v39q0 84 -149 84q-148 0 -148 -84v-23q0 -49 64 -71l295 -105q196 -69 196 -213
v-104q0 -51 -23.5 -97t-71.5 -84t-130 -60.5t-189 -22.5t-188.5 22.5t-128 61t-69.5 84t-23 96.5v47q0 25 10.5 36t36.5 11h151q26 0 37 -11t11 -36v-35q0 -86 163 -86q166 0 166 86v35q0 25 -20.5 42t-71.5 36l-297 108q-63 24 -112.5 84.5t-49.5 132.5v66q0 52 20.5 98
t64 86.5t123 64t186.5 23.5q106 0 185 -23.5t122 -64t63.5 -86.5t20.5 -98v-39q0 -27 -10 -37t-37 -10h-152q-25 0 -35 10.5t-10 36.5z" />
    <glyph glyph-name="dotlessj" unicode="&#x237;" horiz-adv-x="512" 
d="M389 969v-1080q0 -141 -109.5 -221t-328.5 -80h-19q-28 0 -39.5 11t-11.5 39v116q0 28 12 40.5t39 12.5h19q170 0 170 111v1051q0 27 11 39t38 12h170q27 0 38 -12t11 -39z" />
    <glyph glyph-name="circumflex" unicode="&#x2c6;" horiz-adv-x="724" 
d="M362 1290l-51 -92q-27 -51 -69 -51h-131q-26 0 -34 14.5t7 36.5l149 201q35 51 80 51h99q40 0 80 -51l149 -201q15 -22 7 -36.5t-34 -14.5h-131q-43 0 -69 51z" />
    <glyph glyph-name="caron" unicode="&#x2c7;" horiz-adv-x="724" 
d="M311 1401l51 -94l52 94q26 49 69 49h131q26 0 34 -14.5t-7 -34.5l-149 -203q-40 -51 -80 -51h-99q-17 0 -32.5 8t-24.5 17.5t-23 27.5l-149 201q-15 20 -7 34.5t34 14.5h131q43 0 69 -49z" />
    <glyph glyph-name="breve" unicode="&#x2d8;" horiz-adv-x="854" 
d="M334 1403v-35q0 -90 94 -90q51 0 71.5 23.5t20.5 66.5v35q0 23 10 33t35 10h101q25 0 35 -10t10 -33v-29q0 -122 -75 -188t-216 -66q-138 0 -207.5 65.5t-69.5 188.5v29q0 23 10 33t35 10h101q25 0 35 -10t10 -33z" />
    <glyph glyph-name="dotaccent" unicode="&#x2d9;" horiz-adv-x="509" 
d="M391 1386v-165q0 -28 -10.5 -40t-36.5 -12h-176q-27 0 -38 12t-11 40v165q0 28 11 40t38 12h176q26 0 36.5 -12t10.5 -40z" />
    <glyph glyph-name="ring" unicode="&#x2da;" horiz-adv-x="731" 
d="M592 1339v-69q0 -68 -57 -112t-168 -44q-112 0 -170 44t-58 112v69q0 68 58 112t170 44q111 0 168 -44t57 -112zM449 1288v31q0 61 -82 61q-84 0 -84 -61v-31q0 -61 84 -61q82 0 82 61z" />
    <glyph glyph-name="ogonek" unicode="&#x2db;" horiz-adv-x="475" 
d="M371 -350h-119q-94 0 -154.5 47.5t-60.5 132.5q0 113 106 233q39 44 82 37l78 -12q31 -5 39 -21.5t-14 -33.5q-92 -69 -92 -150q0 -38 25 -50.5t71 -12.5h39q28 0 39.5 -11t11.5 -38v-70q0 -28 -11.5 -39.5t-39.5 -11.5z" />
    <glyph glyph-name="tilde" unicode="&#x2dc;" horiz-adv-x="835" 
d="M293 1243q-19 0 -26.5 -10.5t-12.5 -38.5l-2 -12q-4 -26 -16 -35.5t-37 -9.5h-90q-48 0 -41 59l8 86q7 75 57 116.5t121 41.5q65 0 121 -27l86 -41q8 -4 22 -10.5t22 -10.5t17.5 -7t16.5 -3q39 0 39 50v10q0 45 55 45h88q26 0 35.5 -15t7.5 -45l-6 -79q-6 -78 -53.5 -119
t-114.5 -41q-69 0 -131 27l-88 38q-10 4 -29 13.5t-30 13.5t-19 4z" />
    <glyph glyph-name="hungarumlaut" unicode="&#x2dd;" horiz-adv-x="827" 
d="M748 1399l-144 -203q-34 -49 -76 -49h-125q-26 0 -33 14t7 37l117 201q28 51 77 51h150q27 0 34 -15.5t-7 -35.5zM418 1399l-113 -201q-14 -27 -27.5 -39t-39.5 -12h-125q-26 0 -35 14t0 37l86 201q22 51 69 51h150q27 0 36.5 -15.5t-1.5 -35.5z" />
    <glyph glyph-name="Delta" unicode="&#x394;" horiz-adv-x="819" 
d="M223 895h373q49 0 49 -51v-371q0 -28 -11.5 -39.5t-37.5 -11.5h-373q-26 0 -37.5 11.5t-11.5 39.5v371q0 51 49 51z" />
    <glyph glyph-name="Omega" unicode="&#x3a9;" horiz-adv-x="819" 
d="M131 655q0 116 81.5 198.5t195.5 82.5t196 -83t82 -198q0 -114 -82 -195t-196 -81t-195.5 81t-81.5 195zM172 655q0 -100 68 -167.5t168 -67.5q99 0 168 68t69 167t-69.5 169.5t-167.5 70.5q-99 0 -167.5 -70.5t-68.5 -169.5z" />
    <glyph glyph-name="mu" unicode="&#x3bc;" horiz-adv-x="1103" 
d="M725 51l-4 45q-126 -112 -307 -112q-28 0 -49 6l14 -350q2 -28 -9.5 -40t-39.5 -12h-170q-26 0 -37.5 12t-11.5 40v1329q0 28 11.5 39.5t37.5 11.5h168q27 0 39 -12t12 -39v-643q0 -58 24 -83.5t86 -25.5q114 0 226 90v662q0 28 11 39.5t38 11.5h170q26 0 37.5 -11.5
t11.5 -39.5v-918q0 -28 -11.5 -39.5t-37.5 -11.5h-158q-27 0 -37.5 11t-13.5 40z" />
    <glyph glyph-name="pi" unicode="&#x3c0;" horiz-adv-x="819" 
d="M127 926h561q25 0 29.5 -24.5t-10.5 -47.5l-263 -424q-14 -22 -35.5 -22t-33.5 22l-262 424q-10 16 -13 32t3.5 28t23.5 12z" />
    <glyph glyph-name="uni10D0" unicode="&#x10d0;" horiz-adv-x="878" 
d="M459 1386v-45q0 -61 35.5 -128.5t86 -131.5t101 -133t86 -157t35.5 -179l-2 -305q-1 -64 -5 -106.5t-17 -81.5t-35 -61.5t-58.5 -40t-87.5 -24.5t-123 -7h-84q-88 0 -143 9.5t-99 37.5t-63.5 81t-19.5 138v274q0 21 12 34t35 13h120q48 0 48 -47v-217q0 -92 19 -120.5
t95 -28.5h74q68 0 92.5 27t24.5 110l2 315q0 73 -26 142t-64 120t-82.5 107.5t-82.5 106.5t-63.5 116t-25.5 135v47q0 21 12.5 34.5t34.5 13.5h121q47 0 47 -48z" />
    <glyph glyph-name="uni10D1" unicode="&#x10d1;" horiz-adv-x="921" 
d="M422 1386v-34q0 -50 20 -79.5t48 -44.5t56 -34t48 -62.5t20 -113.5q59 -3 102.5 -22.5t68 -47t39 -68t18.5 -76.5t4 -81v-406q0 -75 -4 -123.5t-18 -88t-35 -60.5t-59.5 -35.5t-86 -19t-121.5 -4.5h-116q-66 0 -108.5 3.5t-83 15.5t-63 34t-41 59t-25.5 90.5t-7 128.5
v410q0 169 73.5 233t256.5 64q0 40 -11.5 67.5t-29.5 42t-40.5 26t-44.5 24t-40 29.5t-29.5 49.5t-11.5 78.5v45q0 21 12.5 34.5t34.5 13.5h127q47 0 47 -48zM301 709v-396q5 -96 29 -122.5t108 -26.5h43q93 0 118.5 28t25.5 132v370q0 49 -3.5 73.5t-19 43.5t-43.5 25
t-80 6h-35q-93 0 -118 -25.5t-25 -107.5z" />
    <glyph glyph-name="uni10D2" unicode="&#x10d2;" horiz-adv-x="935" 
d="M111 1184v18q0 48 14 88.5t46 77.5t94 58.5t149 21.5q170 0 239.5 -64.5t69.5 -230.5v-156q80 -26 107.5 -93t27.5 -193v-375q0 -112 -14.5 -178.5t-54.5 -106t-99 -52.5t-160 -13h-122q-75 0 -129 9t-90 29.5t-58 45t-33 66.5t-14.5 82t-3.5 101v404q0 79 16 134
t42.5 87.5t72.5 50.5t92.5 23.5t116.5 5.5h92v172q0 46 -17.5 65t-78.5 19q-50 0 -67 -21.5t-17 -54.5v-20q0 -21 -12 -34t-35 -13h-127q-47 0 -47 47zM301 698v-381q0 -91 23.5 -120t95.5 -29h98q74 0 96.5 32t22.5 128v366q0 92 -29 120t-114 28h-50q-48 0 -76.5 -7.5
t-43 -27t-19 -43.5t-4.5 -66z" />
    <glyph glyph-name="uni10D3" unicode="&#x10d3;" horiz-adv-x="894" 
d="M727 0h-332q-96 0 -151.5 11.5t-95 46t-54 95.5t-14.5 164v813q0 100 15.5 162t54 97t92 47t141.5 12h135q77 0 132 -15t88 -40.5t51.5 -69t25 -90t6.5 -113.5v-418q0 -67 -7.5 -110.5t-28.5 -81t-61 -58t-104 -31.5t-159 -11h-23q-99 0 -143 28v-106q0 -72 12 -106
t33.5 -43t69.5 -9l317 2q21 0 34 -12t13 -35v-82q0 -47 -47 -47zM295 1124v-401q0 -47 3.5 -70.5t19 -41t42.5 -22.5t78 -5h23q31 0 54.5 3.5t39 8t26 16.5t16 20.5t8 29t3 33.5t0.5 42v381q0 97 -26 127.5t-88 30.5h-86q-35 0 -52.5 -3.5t-33.5 -18t-21.5 -45.5t-5.5 -85z
" />
    <glyph glyph-name="uni10D4" unicode="&#x10d4;" horiz-adv-x="927" 
d="M291 526v-198q0 -98 22 -130t93 -32h114q64 0 85.5 32t21.5 117v815q0 81 -26 107.5t-116 26.5h-55q-64 0 -91 -31.5t-30 -104.5v-59q0 -47 -47 -47h-123q-23 0 -35 13t-12 34v47q0 104 19.5 170t63.5 101.5t101 48t146 12.5h74q113 0 181.5 -15t107.5 -54.5t52 -94
t13 -145.5v-840q0 -92 -18.5 -153.5t-58.5 -96.5t-94 -49t-134 -14h-139q-70 0 -115 4t-86 16.5t-63.5 34t-39.5 58.5t-23.5 88.5t-6.5 125.5l-2 213q0 21 12 34t35 13h127q47 0 47 -47z" />
    <glyph glyph-name="uni10D5" unicode="&#x10d5;" horiz-adv-x="944" 
d="M850 1139v-148q0 -56 -34 -104.5t-95 -81.5v-10q67 -10 108 -76t41 -125v-295q0 -92 -18.5 -153.5t-58.5 -96.5t-94 -49t-134 -14h-155q-70 0 -115 4t-86 16.5t-63.5 34t-39.5 58.5t-23.5 88.5t-6.5 125.5l-2 213q0 21 12 34t35 13h125q47 0 47 -47l2 -198q0 -98 22 -130
t93 -32h131q64 0 85 32t21 117v244q0 93 -24 121.5t-105 28.5h-33q-34 0 -34 32v121q0 27 34 27q90 0 116 20.5t26 79.5v141q0 81 -26 107.5t-116 26.5h-57q-64 0 -91 -31.5t-30 -104.5v-59q0 -47 -47 -47h-123q-23 0 -35 13t-12 34v47q0 104 19.5 170t63.5 101.5t101 48
t146 12.5h76q113 0 181.5 -15t107.5 -54.5t52 -94t13 -145.5z" />
    <glyph glyph-name="uni10D6" unicode="&#x10d6;" horiz-adv-x="927" 
d="M313 1448h84q71 0 122.5 -21.5t79 -59t40 -80t12.5 -91.5q0 -132 -63 -180q266 -32 266 -303v-402q0 -54 -1.5 -89.5t-7.5 -71.5t-15.5 -57.5t-27 -42t-40.5 -31t-58 -19t-77.5 -11.5t-100.5 -3h-92q-72 0 -119.5 5t-86 20.5t-60 38.5t-36 63.5t-19 91t-4.5 125.5v368
q0 53 23 120t61 95q-154 74 -154 254q0 152 69 216.5t205 64.5zM242 1200v-84q0 -70 53 -108q40 13 137 16q14 26 16.5 41.5t2.5 54.5v80q0 55 -21.5 76.5t-79.5 21.5q-59 0 -83.5 -22t-24.5 -76zM324 698v-379q0 -34 3 -59t7 -42.5t14.5 -28.5t18 -17t27 -8.5t31.5 -3
t40 -0.5h33q48 0 70 2.5t40.5 15.5t23.5 37.5t5 71.5v426q0 83 -24 110t-107 27h-51q-83 0 -107 -30.5t-24 -121.5z" />
    <glyph glyph-name="uni10D7" unicode="&#x10d7;" horiz-adv-x="1300" 
d="M1049 0q-23 0 -35.5 13t-12.5 34v1106q0 59 -23 85t-91 26q-57 0 -75.5 -38.5t-18.5 -113.5v-790q0 -98 -13.5 -158t-51.5 -102t-104.5 -59t-174.5 -17h-37q-99 0 -165 19t-102.5 59t-51.5 92t-15 127v864q0 69 20 122.5t52.5 86.5t79.5 54.5t96 29.5t106 8
q68 0 142.5 -33t103.5 -88h10q62 121 207 121h39q160 0 224.5 -71t64.5 -249v-1081q0 -47 -47 -47h-127zM301 1141v-854q0 -121 127 -121q141 0 141 113v880q0 55 -32 80t-109 25q-66 0 -96.5 -25t-30.5 -98z" />
    <glyph glyph-name="uni10D8" unicode="&#x10d8;" horiz-adv-x="907" 
d="M131 0q-23 0 -35 13t-12 34v1081q0 174 64.5 247t240.5 73h135q81 0 138 -17.5t89 -44.5t50 -73t23 -89.5t5 -107.5v-1069q0 -47 -47 -47h-120q-23 0 -35.5 13t-12.5 34v1081q0 83 -25 114.5t-100 31.5h-65q-78 0 -101.5 -31.5t-23.5 -126.5v-1069q0 -47 -47 -47h-121z
" />
    <glyph glyph-name="uni10D9" unicode="&#x10d9;" horiz-adv-x="909" 
d="M657 1434h129q48 0 48 -48v-223q0 -121 -119 -223v-10q54 -14 86.5 -65.5t32.5 -98.5v-442q0 -104 -14.5 -167.5t-53.5 -103t-99 -53.5t-159 -14h-129q-97 0 -156 13.5t-98.5 51.5t-54.5 101t-15 165v209q0 21 12 34t35 13h127q47 0 47 -47v-198q0 -99 25 -130.5
t109 -31.5h53q45 0 68.5 4t44 18.5t27.5 44.5t7 82v402q0 45 -3.5 66.5t-19 36.5t-41.5 18.5t-77 3.5h-92q-47 0 -47 47v88q0 23 13 35t34 12h90q50 0 78 6.5t42.5 26t18.5 44.5t4 73v212q0 21 12.5 34.5t34.5 13.5z" />
    <glyph glyph-name="uni10DA" unicode="&#x10da;" horiz-adv-x="925" 
d="M797 133v-86q0 -47 -47 -47h-340q-89 0 -148 12.5t-96 35t-56 65.5t-25.5 91.5t-6.5 125.5v784q0 106 16.5 171t57 101.5t95.5 49t146 12.5h139q60 0 100.5 -4.5t79 -17.5t62 -36.5t41.5 -61.5t25.5 -93t7.5 -131v-606q0 -21 -12 -34t-35 -13h-125q-47 0 -47 47v622
q0 85 -22.5 116.5t-96.5 31.5h-90q-76 0 -98.5 -33.5t-22.5 -126.5v-772q0 -48 3.5 -73.5t16 -46.5t38 -28.5t69.5 -7.5h324q21 0 34 -12t13 -35z" />
    <glyph glyph-name="uni10DB" unicode="&#x10db;" horiz-adv-x="921" 
d="M123 1120q-23 0 -35 13t-12 34q-2 145 72 213t243 68h137q94 0 157 -23.5t97.5 -72.5t48 -111t13.5 -151v-795q0 -94 -16 -152.5t-55.5 -94t-99 -49t-155.5 -13.5h-117q-62 0 -102 3.5t-80.5 15t-64 33.5t-43 58t-27.5 89.5t-8 127.5v416q0 91 16.5 147t59.5 89.5t107 46
t169 12.5h61q70 0 134 -41v143q0 82 -27 110t-88 28h-96q-121 0 -121 -97q0 -47 -47 -47h-121zM297 700v-376q0 -39 3 -66t12 -44.5t17.5 -27t29 -14t36 -5.5t47.5 -1h37q89 0 116.5 30t27.5 140v369q0 81 -27 109t-113 28h-47q-50 0 -78.5 -7t-41.5 -27.5t-16 -41.5t-3 -66
z" />
    <glyph glyph-name="uni10DC" unicode="&#x10dc;" horiz-adv-x="888" 
d="M764 1311q0 -23 -13 -35t-34 -12h-332q-57 0 -72.5 -32t-15.5 -118v-127q56 37 152 37h69q59 0 103.5 -7t76.5 -18.5t53.5 -33t34.5 -44t20 -58t9 -68t2 -80.5v-408q0 -100 -12.5 -159t-49.5 -97t-95.5 -51.5t-157.5 -13.5h-105q-98 0 -157.5 14.5t-95.5 52.5t-49 94.5
t-13 149.5v852q0 164 67 224.5t236 60.5h332q47 0 47 -48v-75zM297 713v-406q0 -92 24 -119.5t109 -27.5h35q45 0 68 4t40.5 19.5t23 43.5t5.5 78v412q0 78 -26 105.5t-99 27.5h-55q-31 0 -52.5 -3t-35.5 -12.5t-21.5 -18t-11 -28t-4 -33t-0.5 -42.5z" />
    <glyph glyph-name="uni10DD" unicode="&#x10dd;" horiz-adv-x="1245" 
d="M686 410h-131q-23 0 -35 13t-12 34v657q0 87 -19 118.5t-73 31.5q-60 0 -88.5 -24.5t-28.5 -104.5v-1088q0 -47 -47 -47h-123q-23 0 -35 13t-12 34v1096q0 77 18 133.5t46 89t71.5 51.5t85 25t96.5 6q84 0 132.5 -27t82.5 -80h11q28 46 84 76.5t114 30.5q36 0 57.5 -0.5
t55 -3.5t53.5 -9t47 -17t43 -26.5t34 -40t27.5 -55.5t16 -73t6.5 -93v-1083q0 -47 -47 -47h-125q-23 0 -35 13t-12 34v21l2 1034q0 47 -4.5 77t-11.5 47.5t-24 25.5t-33 10t-48 2q-56 0 -74 -34.5t-18 -111.5v-661q0 -47 -47 -47z" />
    <glyph glyph-name="uni10DE" unicode="&#x10de;" horiz-adv-x="923" 
d="M494 1386v-26q0 -37 25.5 -70.5t63.5 -58t82 -53t82 -55.5t63.5 -66.5t25.5 -83.5v-78q0 -143 -109 -193v-10q55 -22 92 -83.5t37 -110.5v-199q0 -92 -18.5 -153.5t-58.5 -96.5t-94 -49t-134 -14h-156q-70 0 -115 4t-86 16.5t-63.5 34t-39.5 59t-23 88.5t-7 125l-2 213
q0 21 12 34t35 13h125q48 0 48 -47l2 -198q0 -11 -0.5 -35t0 -31.5t1 -25t3 -22t6 -15.5t9.5 -13.5t14.5 -8.5t20 -7t26.5 -2.5t34 -1.5h131q64 0 85.5 32t21.5 117v148q0 93 -24 121t-105 28h-33q-17 0 -26 9.5t-9 23.5v121q0 27 35 27q90 0 115.5 20.5t25.5 79.5v68
q0 31 -18.5 55.5t-48 42t-65.5 35t-72 39.5t-65.5 50t-48 73.5t-18.5 103.5v26q0 21 12.5 34.5t35.5 13.5h120q50 0 50 -48z" />
    <glyph glyph-name="uni10DF" unicode="&#x10df;" horiz-adv-x="946" 
d="M104 928h60q64 0 85 32t21 117v94l-88 -22q-23 -3 -38 5.5t-15 31.5v78q0 49 47 61l442 111h181q63 0 63 -62v-1075q0 -92 -18.5 -153.5t-58.5 -96.5t-94 -49t-134 -14h-139q-70 0 -115 4t-86 16.5t-63.5 34t-39.5 58.5t-23.5 88.5t-6.5 125.5l-2 213q0 21 12 34t35 13
h127q47 0 47 -47v-198q0 -98 22 -130t93 -32h114q64 0 85.5 32t21.5 117v953l-174 -41v-162q0 -124 -28 -190.5t-85.5 -91.5t-163.5 -25h-59h-25q-21 0 -34 12t-13 35v76q0 47 47 47z" />
    <glyph glyph-name="uni10E0" unicode="&#x10e0;" horiz-adv-x="1243" 
d="M1042 1386v-79q0 -23 -13 -35t-34 -12h-524q-170 0 -170 -181v-104q60 49 137 49q134 0 189 -98h10q22 44 77 71t113 27q37 0 58 -0.5t54.5 -3.5t53.5 -8.5t47 -16.5t43 -27t34 -40t27.5 -55t16 -73t6.5 -93v-660q0 -47 -47 -47h-125q-23 0 -35 13t-12 34v21l2 610
q0 47 -4.5 77t-11.5 47.5t-24 25.5t-33 10t-48 2q-56 0 -74 -34.5t-18 -111.5v-340q0 -47 -47 -47h-131q-23 0 -35 13t-12 34v336q0 87 -19 118.5t-73 31.5q-60 0 -88.5 -24.5t-28.5 -104.5v-664q0 -47 -47 -47h-123q-23 0 -35 13t-12 34v1047q0 164 96 252t275 88h538
q47 0 47 -48z" />
    <glyph glyph-name="uni10E1" unicode="&#x10e1;" horiz-adv-x="907" 
d="M397 -14q-91 0 -146 12.5t-95.5 48.5t-57 101.5t-16.5 170.5v1067q0 48 47 48h127q22 0 34.5 -13.5t12.5 -34.5v-1060q0 -93 22.5 -126.5t98.5 -33.5h70q74 0 96 31t22 116v643q0 48 47 48h125q22 0 34.5 -13.5t12.5 -34.5v-626q0 -76 -7.5 -131t-25.5 -93t-41 -61.5
t-61.5 -36.5t-79 -17.5t-100.5 -4.5h-119z" />
    <glyph glyph-name="uni10E2" unicode="&#x10e2;" horiz-adv-x="1163" 
d="M686 1438v-19h33q178 0 272 -87.5t94 -252.5v-753q0 -164 -95.5 -252t-274.5 -88h-252q-179 0 -275 88t-96 252v753q0 164 96 252t275 88h39v19q0 39 47 39h90q27 0 37 -9t10 -30zM307 1065v-725q0 -180 170 -180h223q170 0 170 180v725q0 96 -40.5 138t-118.5 42l-37 6
q10 -65 10 -155l6 -432q0 -52 -47 -52h-98q-22 0 -34.5 15t-12.5 37l6 430q0 105 8 157l-35 -6q-170 0 -170 -180z" />
    <glyph glyph-name="uni10E3" unicode="&#x10e3;" horiz-adv-x="983" 
d="M25 1296v90q0 23 13 35.5t34 12.5h90q65 0 119 -29.5t79 -77.5h9q29 52 84.5 86.5t132.5 34.5q55 0 96.5 -6t85 -25t71.5 -51.5t46 -89t18 -133.5v-844q0 -92 -18.5 -153.5t-58.5 -96.5t-94 -49t-134 -14h-156q-70 0 -115 4t-85.5 16.5t-63 34t-40 58.5t-23.5 88.5
t-6 125.5v213q0 21 12 34t35 13h125q47 0 47 -47v-198q0 -98 21.5 -130t92.5 -32h131q64 0 85.5 32t21.5 117v820q0 80 -26 104.5t-85 24.5q-54 0 -73 -31.5t-19 -118.5v-248q0 -21 -12 -34t-35 -13h-131q-47 0 -47 47v238q0 77 -18 111t-74 34h-88q-47 0 -47 47z" />
    <glyph glyph-name="uni10E4" unicode="&#x10e4;" horiz-adv-x="1234" 
d="M940 989v162q0 66 -28 92.5t-85 26.5q-62 0 -93.5 -26.5t-31.5 -92.5v-250q0 -48 -7 -85.5t-29 -77t-59 -65.5t-100.5 -42.5t-150.5 -16.5q-162 0 -245.5 77.5t-83.5 215.5v248q0 76 18 131t47.5 87t76 50.5t93.5 24.5t111 6q82 0 144 -36t87 -87h10q28 57 88.5 90
t139.5 33q161 0 241 -67t80 -216v-180q0 -58 -37.5 -109.5t-95.5 -78.5v-10q57 -17 95 -80.5t38 -118.5v-258q0 -178 -93 -264t-253 -86h-196q-82 0 -138.5 8.5t-104 30.5t-75 61t-42.5 100t-15 148l-2 90q0 21 12 34t35 13h125q47 0 47 -47l2 -90q0 -95 37.5 -131.5
t118.5 -36.5h172q71 0 109 38.5t38 131.5v223q0 86 -20.5 118t-79.5 32q-17 0 -26 9t-9 23v121q0 27 35 27q100 0 100 100zM248 1151v-227q0 -80 28 -104.5t95 -24.5q69 0 96 22.5t27 95.5v236q0 69 -27.5 95t-95.5 26q-64 0 -93.5 -26t-29.5 -93z" />
    <glyph glyph-name="uni10E5" unicode="&#x10e5;" horiz-adv-x="933" 
d="M117 807v80q0 166 78 230.5t260 64.5q98 0 174 -72v276q0 48 47 48h127q22 0 34.5 -13.5t12.5 -34.5v-1087q0 -92 -18.5 -153.5t-58.5 -96.5t-94 -49t-134 -14h-139q-70 0 -115 4t-86 16.5t-63.5 34t-39.5 58.5t-23.5 88.5t-6.5 125.5l-2 213q0 21 12 34t35 13h127
q47 0 47 -47v-198q0 -98 22 -130t93 -32h114q64 0 85.5 32t21.5 117v537q0 82 -33.5 114.5t-130.5 32.5q-48 0 -75.5 -7t-41.5 -26.5t-18 -43.5t-4 -70v-45q0 -47 -48 -47h-112q-23 0 -35 13t-12 34z" />
    <glyph glyph-name="uni10E6" unicode="&#x10e6;" horiz-adv-x="1245" 
d="M1040 127v-80q0 -47 -47 -47h-538q-179 0 -275 88t-96 252v803q0 77 18 133.5t46 89t71.5 51.5t85 25t96.5 6q84 0 133 -31t84 -90h11q28 52 83.5 86.5t112.5 34.5q36 0 57.5 -0.5t55 -3.5t53.5 -9t47 -17t43 -26.5t34 -40t27.5 -55.5t16 -73t6.5 -93v-673q0 -47 -47 -47
h-125q-23 0 -35 13t-12 34v20l2 625q0 47 -4.5 77t-11.5 47.5t-24 25.5t-33 10t-48 2q-56 0 -74 -34.5t-18 -111.5v-354q0 -47 -47 -47h-131q-23 0 -35 13t-12 34v350q0 87 -19 118.5t-73 31.5q-60 0 -88.5 -24.5t-28.5 -104.5v-781q0 -180 168 -180h524q21 0 34 -12t13 -35
z" />
    <glyph glyph-name="uni10E7" unicode="&#x10e7;" horiz-adv-x="935" 
d="M526 166q64 0 85.5 32t21.5 117v332q-57 -33 -135 -33h-45q-77 0 -127 3.5t-96 15t-72 31.5t-45.5 54t-27 81.5t-7.5 115.5v471q0 21 12.5 34.5t34.5 13.5h129q47 0 47 -48v-438q0 -96 26.5 -123.5t125.5 -27.5h28q97 0 124.5 25.5t27.5 109.5v454q0 21 12.5 34.5
t34.5 13.5h129q47 0 47 -48v-22v-1065q0 -92 -18.5 -153.5t-58.5 -96.5t-94 -49t-134 -14h-139q-70 0 -115 4t-86 16.5t-63.5 34t-39.5 58.5t-23.5 88.5t-6.5 125.5l-2 111q0 21 12 34t35 13h127q47 0 47 -47v-96q0 -98 22 -130t93 -32h114z" />
    <glyph glyph-name="uni10E8" unicode="&#x10e8;" horiz-adv-x="940" 
d="M51 1296v90q0 23 13 35.5t34 12.5h62q69 0 123.5 -27t74.5 -76h11q53 117 194 117q73 0 123.5 -13t92 -47t61.5 -98.5t20 -161.5v-802q0 -109 -14.5 -174t-54.5 -102.5t-97.5 -50.5t-154.5 -13h-138q-95 0 -154 13.5t-99 49t-55 96t-13 156.5v399q0 67 9 116t31 83
t50 54.5t75 31.5t96 15t122 4h12q115 0 162 -37v153q0 86 -18.5 115t-71.5 29q-46 0 -64 -23t-18 -80v-18q0 -21 -12 -34t-35 -13h-121q-47 0 -47 47v22q0 48 -17.5 66t-74.5 18h-60q-47 0 -47 47zM301 674v-346q0 -103 23 -132.5t98 -29.5h94q77 0 99 31.5t22 128.5v352
q0 91 -28.5 117t-123.5 26h-30q-52 0 -80 -5t-44.5 -23.5t-22 -43.5t-7.5 -75z" />
    <glyph glyph-name="uni10E9" unicode="&#x10e9;" horiz-adv-x="913" 
d="M410 1448h24q79 0 138 -19t93 -48.5t55 -73t27.5 -84t6.5 -88.5v-80q0 -77 -36.5 -152t-82.5 -119q209 -40 209 -286v-426q0 -18 -2.5 -30.5t-10.5 -20.5t-13 -12.5t-19 -6.5t-19.5 -2.5t-23.5 0t-23 0.5t-23.5 -0.5t-24.5 0t-19.5 2.5t-19 6.5t-13 12.5t-10 20.5
t-2.5 30.5v415q0 125 -127 125h-68q-119 0 -119 -125v-417q0 -15 -3 -26t-6.5 -18.5t-12 -12.5t-13.5 -8t-18 -4t-18 -1h-20.5h-20.5h-20.5h-21t-18 1t-18 4t-14 8t-12 12.5t-6.5 18.5t-3 26v1073q0 171 73.5 238t254.5 67zM307 1128v-366q23 20 69.5 32.5t96.5 12.5
q35 46 50.5 93.5t15.5 117.5v119q0 61 -27 89.5t-92 28.5q-66 0 -89.5 -26.5t-23.5 -100.5z" />
    <glyph glyph-name="uni10EA" unicode="&#x10ea;" horiz-adv-x="962" 
d="M684 1434h129q47 0 47 -48v-223q0 -86 -21 -138.5t-75 -88.5v-6q53 -17 85 -69t32 -95v-442q0 -104 -14.5 -167.5t-53.5 -103t-99 -53.5t-159 -14h-149q-97 0 -156 13.5t-98.5 51.5t-54.5 101t-15 165v1069q0 21 12.5 34.5t34.5 13.5h127q47 0 47 -48v-1058
q0 -100 24.5 -131t108.5 -31h74q45 0 68.5 4t44 18.5t27.5 44.5t7 82v398q0 79 -28 102t-113 23h-12q-47 0 -47 47v92q0 23 13 35t34 12h10q80 0 101.5 29.5t21.5 120.5v212q0 21 12.5 34.5t34.5 13.5z" />
    <glyph glyph-name="uni10EB" unicode="&#x10eb;" horiz-adv-x="915" 
d="M657 1434h129q23 0 35.5 -13.5t12.5 -34.5v-1073q0 -50 -1.5 -83.5t-6.5 -68.5t-14.5 -57t-26 -44t-39.5 -34t-56 -22t-75.5 -14t-98.5 -4h-135q-101 0 -162 16t-95.5 57t-46 99t-11.5 155v416q0 41 1.5 68t6.5 58.5t15.5 51.5t27.5 41.5t43 34t61.5 23.5t83.5 15.5
t109 4.5h69q70 0 127 -31v391q0 48 47 48zM287 702v-389q0 -90 24 -118.5t109 -28.5h49q42 0 66 4.5t40.5 12.5t23.5 30.5t9 47.5t2 75l2 369q0 89 -27.5 114t-119.5 25h-29q-95 0 -122 -24.5t-27 -117.5z" />
    <glyph glyph-name="uni10EC" unicode="&#x10ec;" horiz-adv-x="931" 
d="M893 1386v-90q0 -47 -47 -47h-60q-57 0 -74.5 -18t-17.5 -66v-22q0 -47 -47 -47h-121q-23 0 -35 13t-12 34v18q0 58 -17.5 80.5t-64.5 22.5q-53 0 -71.5 -29t-18.5 -115v-153q47 37 162 37h12q73 0 122 -4t96 -15t75 -31.5t50 -54.5t31 -83t9 -116v-399q2 -96 -13 -156.5
t-55 -96t-99 -49t-154 -13.5h-137q-65 0 -110 5.5t-82.5 19.5t-61 38t-39.5 62.5t-22.5 90t-6.5 124.5v802q0 97 21.5 162t63.5 98.5t92 46.5t120 13q85 0 128.5 -28.5t76.5 -88.5h8q25 52 76 77.5t114 25.5h62q21 0 34 -12.5t13 -35.5zM643 328v346q-2 50 -7.5 75t-22 43.5
t-44.5 23.5t-80 5h-30q-95 0 -123.5 -26t-28.5 -117v-352q0 -97 22 -128.5t99 -31.5h94q75 0 98 29.5t23 132.5z" />
    <glyph glyph-name="uni10ED" unicode="&#x10ed;" horiz-adv-x="989" 
d="M961 743v-77q0 -48 -48 -48h-82v-319q0 -92 -18.5 -153.5t-58.5 -96.5t-94 -49t-134 -14h-139q-70 0 -115 4t-86 16.5t-63.5 34t-39.5 58.5t-23.5 88.5t-6.5 125.5l-2 111q0 21 12 34t35 13h127q47 0 47 -47v-96q0 -98 22 -130t93 -32h115q64 0 85 32t21 117v310l-86 -11
h-104q-88 0 -144 12.5t-96.5 45t-58 89.5t-17.5 146q0 147 74.5 214t243.5 67h100l88 -10v215q4 41 47 41h129q47 0 47 -48v-202h82q21 0 34.5 -12.5t13.5 -34.5v-78q0 -47 -48 -47h-82v-221h82q21 0 34.5 -12.5t13.5 -35.5zM608 1008h-162q-31 0 -46 -1t-35 -6t-28.5 -15
t-15 -29t-6.5 -48q0 -24 3.5 -42.5t7.5 -30.5t14.5 -20t18 -12.5t25.5 -6t28 -2t34 -0.5h162v213z" />
    <glyph glyph-name="uni10EE" unicode="&#x10ee;" horiz-adv-x="921" 
d="M129 1434h129q47 0 47 -48v-391q57 31 127 31h70q61 0 109 -4.5t83.5 -15.5t61.5 -23.5t43 -34t27.5 -41.5t15.5 -51.5t6.5 -58.5t1.5 -68v-416q0 -97 -11.5 -155t-46 -99t-95.5 -57t-162 -16h-136q-56 0 -98.5 4t-75.5 14t-56 22t-39 34t-25.5 44t-14.5 57.5t-6.5 68.5
t-1.5 83v1073q0 21 12.5 34.5t34.5 13.5zM629 313v389q0 93 -27.5 117.5t-122.5 24.5h-28q-92 0 -120 -25t-28 -114l2 -369q0 -50 2 -75t9 -47.5t23.5 -30.5t40.5 -12.5t66 -4.5h50q85 0 109 28.5t24 118.5z" />
    <glyph glyph-name="uni10EF" unicode="&#x10ef;" horiz-adv-x="907" 
d="M827 1141v-88q0 -47 -47 -47h-235v-209h8q118 0 183 -28.5t88.5 -82t23.5 -147.5v-215q0 -104 -14.5 -167.5t-53.5 -103t-99 -53.5t-159 -14h-129q-97 0 -156 13.5t-98 51.5t-54 101t-15 165v107q0 21 12 34t35 13h127q47 0 47 -47v-96q0 -100 24.5 -131t108.5 -31h53
q45 0 68.5 4t44 18.5t28 44.5t7.5 82v174q0 83 -23 104t-119 21h-112q-47 0 -47 48v344h-234q-47 0 -47 47v88q0 23 13 35t34 12h234v198q0 48 47 48h127q22 0 34.5 -13.5t12.5 -34.5v-198h235q21 0 34 -12t13 -35z" />
    <glyph glyph-name="uni10F0" unicode="&#x10f0;" horiz-adv-x="899" 
d="M371 1386q10 -22 48.5 -28t141.5 -6q69 0 121.5 -20t81.5 -52.5t43 -68t14 -70.5v-64q0 -42 -32.5 -80.5t-81.5 -66.5v-8q62 -27 92 -67.5t30 -104.5v-54q0 -47 -34.5 -85.5t-83.5 -63.5v-12q66 -24 97.5 -79t31.5 -114v-102q0 -82 -52.5 -140.5t-135.5 -86t-185 -27.5
h-80q-194 0 -264 71.5t-70 270.5l-2 96q0 21 12 34t35 13h127q47 0 47 -47v-82q0 -101 22.5 -138.5t92.5 -37.5h88q75 0 110.5 33.5t35.5 105.5q0 143 -127 146h-62q-47 0 -47 47v86q0 23 13 35t34 12h19q102 0 136 20t34 78q0 73 -31.5 91t-134.5 18h-23q-47 0 -47 47v86
q0 23 13 35t34 12h62q68 2 95 23t27 75q0 45 -32 63.5t-97 18.5q-76 0 -130.5 7.5t-101.5 27t-71 58t-24 95.5q0 21 12.5 34.5t34.5 13.5h104q25 0 37 -11.5t23 -36.5z" />
    <glyph glyph-name="Wgrave" unicode="&#x1e80;" horiz-adv-x="1716" 
d="M1016 1341l172 -696q20 -89 33 -203q19 136 36 201l177 698q13 52 59 52h156q52 0 39 -52l-326 -1290q-12 -51 -64 -51h-174q-45 0 -57 51l-180 713q-8 30 -17.5 92.5t-11.5 89.5q-17 -124 -29 -182l-180 -713q-12 -51 -63 -51h-174q-46 0 -58 51l-325 1290q-13 52 39 52
h182q46 0 59 -52l172 -698q8 -34 16 -77t13 -69l4 -26q10 68 37 172l176 698q13 52 61 52h166q49 0 62 -52zM729 1530l-147 215q-15 23 -8 38t34 15h178q47 0 70 -51l98 -201q22 -51 -24 -51h-133q-42 0 -68 35z" />
    <glyph glyph-name="wgrave" unicode="&#x1e81;" horiz-adv-x="1466" 
d="M1444 969l-262 -922q-8 -28 -17.5 -37.5t-34.5 -9.5h-202q-26 0 -36.5 10.5t-17.5 36.5l-114 485q-19 78 -19 109q0 -1 -4 -18.5t-10 -42.5t-12 -48l-142 -485q-7 -26 -16.5 -36.5t-34.5 -10.5h-198q-26 0 -37 10.5t-17 36.5l-247 922q-7 25 6.5 38t42.5 13h161
q26 0 38.5 -12.5t19.5 -38.5l141 -537q4 -19 8 -42t6 -38.5t3 -17.5q0 14 24 98l150 537q7 26 18.5 38.5t36.5 12.5h164q47 0 57 -51l125 -537l8.5 -42.5t6.5 -36.5t3 -17q0 6 23 96l139 537q7 26 19.5 38.5t38.5 12.5h135q28 0 41 -13t6 -38zM623 1182l-148 217
q-15 22 -8 36.5t33 14.5h178q49 0 72 -51l98 -201q22 -51 -27 -51h-133q-40 0 -65 35z" />
    <glyph glyph-name="Wacute" unicode="&#x1e82;" horiz-adv-x="1716" 
d="M1016 1341l172 -696q20 -89 33 -203q19 136 36 201l177 698q13 52 59 52h156q52 0 39 -52l-326 -1290q-12 -51 -64 -51h-174q-45 0 -57 51l-180 713q-8 30 -17.5 92.5t-11.5 89.5q-17 -124 -29 -182l-180 -713q-12 -51 -63 -51h-174q-46 0 -58 51l-325 1290q-13 52 39 52
h182q46 0 59 -52l172 -698q8 -34 16 -77t13 -69l4 -26q10 68 37 172l176 698q13 52 61 52h166q49 0 62 -52zM1147 1747l-150 -217q-25 -35 -65 -35h-133q-53 0 -27 51l100 201q23 51 70 51h178q27 0 34.5 -14.5t-7.5 -36.5z" />
    <glyph glyph-name="wacute" unicode="&#x1e83;" horiz-adv-x="1466" 
d="M1034 1399l-147 -217q-25 -35 -66 -35h-133q-48 0 -26 51l98 201q23 51 71 51h179q26 0 32.5 -14.5t-8.5 -36.5zM1444 969l-262 -922q-8 -28 -17.5 -37.5t-34.5 -9.5h-202q-26 0 -36.5 10.5t-17.5 36.5l-114 485q-19 78 -19 109q0 -1 -4 -18.5t-10 -42.5t-12 -48
l-142 -485q-7 -26 -16.5 -36.5t-34.5 -10.5h-198q-26 0 -37 10.5t-17 36.5l-247 922q-7 25 6.5 38t42.5 13h161q26 0 38.5 -12.5t19.5 -38.5l141 -537q4 -19 8 -42t6 -38.5t3 -17.5q0 14 24 98l150 537q7 26 18.5 38.5t36.5 12.5h164q47 0 57 -51l125 -537l8.5 -42.5
t6.5 -36.5t3 -17q0 6 23 96l139 537q7 26 19.5 38.5t38.5 12.5h135q28 0 41 -13t6 -38z" />
    <glyph glyph-name="Wdieresis" unicode="&#x1e84;" horiz-adv-x="1716" 
d="M1016 1341l172 -696q20 -89 33 -203q19 136 36 201l177 698q13 52 59 52h156q52 0 39 -52l-326 -1290q-12 -51 -64 -51h-174q-45 0 -57 51l-180 713q-8 30 -17.5 92.5t-11.5 89.5q-17 -124 -29 -182l-180 -713q-12 -51 -63 -51h-174q-46 0 -58 51l-325 1290q-13 52 39 52
h182q46 0 59 -52l172 -698q26 -113 33 -170q0 28 37 170l176 698q13 52 61 52h166q49 0 62 -52zM813 1741v-191q0 -28 -11 -39.5t-38 -11.5h-100q-26 0 -38 11.5t-12 39.5v191q0 53 50 53h100q27 0 38 -12.5t11 -40.5zM1098 1741v-191q0 -28 -10.5 -39.5t-36.5 -11.5h-101
q-27 0 -38 11.5t-11 39.5v191q0 28 11 40.5t38 12.5h101q26 0 36.5 -12.5t10.5 -40.5z" />
    <glyph glyph-name="wdieresis" unicode="&#x1e85;" horiz-adv-x="1466" 
d="M702 1395v-191q0 -28 -10.5 -39.5t-36.5 -11.5h-100q-27 0 -38 11.5t-11 39.5v191q0 28 11 39.5t38 11.5h100q26 0 36.5 -11.5t10.5 -39.5zM989 1395v-191q0 -28 -10.5 -39.5t-36.5 -11.5h-100q-28 0 -39.5 11.5t-11.5 39.5v191q0 28 11.5 39.5t39.5 11.5h100
q26 0 36.5 -11.5t10.5 -39.5zM1444 969l-262 -922q-8 -28 -17.5 -37.5t-34.5 -9.5h-202q-26 0 -36.5 10.5t-17.5 36.5l-114 485q-19 78 -19 109q0 -1 -4 -18.5t-10 -42.5t-12 -48l-142 -485q-7 -26 -16.5 -36.5t-34.5 -10.5h-198q-26 0 -37 10.5t-17 36.5l-247 922
q-7 25 6.5 38t42.5 13h161q26 0 38.5 -12.5t19.5 -38.5l141 -537q4 -19 8 -42t6 -38.5t3 -17.5q0 14 24 98l150 537q7 26 18.5 38.5t36.5 12.5h164q47 0 57 -51l125 -537l8.5 -42.5t6.5 -36.5t3 -17q0 6 23 96l139 537q7 26 19.5 38.5t38.5 12.5h135q28 0 41 -13t6 -38z" />
    <glyph glyph-name="Ygrave" unicode="&#x1ef2;" horiz-adv-x="1116" 
d="M330 1341l194 -467q26 -70 35 -108q16 65 37 108l217 467q11 26 23 39t36 13h177q27 0 37 -13.5t-1 -38.5l-387 -809v-481q0 -27 -11 -39t-38 -12h-178q-27 0 -39 12t-12 39v449l-389 841q-11 23 -1 37.5t36 14.5h202q42 0 62 -52zM438 1530l-147 215q-15 23 -8 38t34 15
h179q46 0 69 -51l99 -201q22 -51 -25 -51h-133q-42 0 -68 35z" />
    <glyph glyph-name="ygrave" unicode="&#x1ef3;" horiz-adv-x="970" 
d="M297 969l154 -469q8 -25 14.5 -56t10 -53t6.5 -42t3 -21q0 1 3 13.5t6.5 29.5t8.5 37.5t12 43t13 40.5l162 477q8 27 19 39t36 12h156q29 0 43.5 -13.5t5.5 -37.5l-452 -1329q-15 -52 -58 -52h-123q-29 0 -42.5 13.5t-6.5 38.5l101 333l-346 996q-9 24 5 37.5t42 13.5
h170q26 0 37 -12t20 -39zM369 1182l-148 217q-15 22 -8 36.5t33 14.5h178q49 0 72 -51l98 -201q22 -51 -27 -51h-133q-40 0 -65 35z" />
    <glyph glyph-name="endash" unicode="&#x2013;" horiz-adv-x="1091" 
d="M172 700h748q27 0 39 -11t12 -38v-121q0 -49 -51 -49h-748q-51 0 -51 49v121q0 27 12 38t39 11z" />
    <glyph glyph-name="emdash" unicode="&#x2014;" horiz-adv-x="1726" 
d="M172 700h1382q28 0 40 -11t12 -38v-121q0 -26 -12 -37.5t-40 -11.5h-1382q-51 0 -51 49v121q0 27 12 38t39 11z" />
    <glyph glyph-name="quoteleft" unicode="&#x2018;" horiz-adv-x="544" 
d="M383 1223v-138q0 -28 -11 -39.5t-38 -11.5h-176q-26 0 -36.5 11.5t-10.5 39.5v152q0 233 295 303q27 6 40.5 -0.5t22.5 -32.5l41 -114q17 -49 -33 -64q-54 -18 -74 -42t-20 -64z" />
    <glyph glyph-name="quoteright" unicode="&#x2019;" horiz-adv-x="544" 
d="M162 1352v137q0 28 11 39.5t38 11.5h176q26 0 36.5 -11.5t10.5 -39.5v-152q0 -233 -295 -303q-27 -6 -40.5 0.5t-22.5 32.5l-41 115q-16 48 33 63q54 18 74 42.5t20 64.5z" />
    <glyph glyph-name="quotesinglbase" unicode="&#x201a;" horiz-adv-x="544" 
d="M162 80v137q0 28 11 39.5t38 11.5h176q26 0 36.5 -11.5t10.5 -39.5v-151q0 -234 -295 -304q-27 -6 -40.5 0.5t-22.5 32.5l-41 115q-16 48 33 63q54 18 74 42.5t20 64.5z" />
    <glyph glyph-name="quotedblleft" unicode="&#x201c;" horiz-adv-x="991" 
d="M829 1223v-138q0 -28 -11 -39.5t-38 -11.5h-176q-26 0 -36.5 11.5t-10.5 39.5v152q0 233 295 303q27 6 40.5 -0.5t22.5 -32.5l41 -114q17 -49 -32 -64q-54 -18 -74.5 -42t-20.5 -64zM383 1223v-138q0 -28 -11 -39.5t-38 -11.5h-176q-26 0 -36.5 11.5t-10.5 39.5v152
q0 233 295 303q27 6 40.5 -0.5t22.5 -32.5l41 -114q17 -49 -33 -64q-54 -18 -74 -42t-20 -64z" />
    <glyph glyph-name="quotedblright" unicode="&#x201d;" horiz-adv-x="991" 
d="M608 1352v137q0 28 11 39.5t38 11.5h177q26 0 36.5 -11.5t10.5 -39.5v-152q0 -233 -295 -303q-27 -6 -41 0.5t-23 32.5l-41 115q-16 48 33 63q54 18 74 42.5t20 64.5zM162 1352v137q0 28 11 39.5t38 11.5h176q26 0 36.5 -11.5t10.5 -39.5v-152q0 -233 -295 -303
q-27 -6 -40.5 0.5t-22.5 32.5l-41 115q-16 48 33 63q54 18 74 42.5t20 64.5z" />
    <glyph glyph-name="quotedblbase" unicode="&#x201e;" horiz-adv-x="991" 
d="M608 80v137q0 28 11 39.5t38 11.5h177q26 0 36.5 -11.5t10.5 -39.5v-151q0 -234 -295 -304q-27 -6 -41 0.5t-23 32.5l-41 115q-16 48 33 63q54 18 74 42.5t20 64.5zM162 80v137q0 28 11 39.5t38 11.5h176q26 0 36.5 -11.5t10.5 -39.5v-151q0 -234 -295 -304
q-27 -6 -40.5 0.5t-22.5 32.5l-41 115q-16 48 33 63q54 18 74 42.5t20 64.5z" />
    <glyph glyph-name="dagger" unicode="&#x2020;" horiz-adv-x="1388" 
d="M829 1378v-1325q0 -28 -10.5 -40.5t-36.5 -12.5h-172q-26 0 -37.5 12.5t-11.5 40.5v1325q0 54 49 54h172q26 0 36.5 -13t10.5 -41zM195 1053h260q27 0 39 -10.5t12 -36.5v-123q0 -52 -51 -52h-260q-28 0 -40 12t-12 40v123q0 26 12 36.5t40 10.5zM938 1053h258
q27 0 39 -10.5t12 -36.5v-123q0 -52 -51 -52h-258q-28 0 -40.5 12t-12.5 40v123q0 26 12.5 36.5t40.5 10.5z" />
    <glyph glyph-name="daggerdbl" unicode="&#x2021;" horiz-adv-x="1388" 
d="M829 1378v-1325q0 -28 -10.5 -40.5t-36.5 -12.5h-172q-26 0 -37.5 12.5t-11.5 40.5v1325q0 54 49 54h172q26 0 36.5 -13t10.5 -41zM195 1053h260q27 0 39 -10.5t12 -36.5v-123q0 -52 -51 -52h-260q-28 0 -40 12t-12 40v123q0 26 12 36.5t40 10.5zM938 1053h258
q27 0 39 -10.5t12 -36.5v-123q0 -52 -51 -52h-258q-28 0 -40.5 12t-12.5 40v123q0 26 12.5 36.5t40.5 10.5zM195 594h260q27 0 39 -11t12 -38v-121q0 -27 -12 -39t-39 -12h-260q-28 0 -40 11.5t-12 39.5v121q0 27 12 38t40 11zM938 594h258q27 0 39 -11t12 -38v-121
q0 -27 -12 -39t-39 -12h-258q-28 0 -40.5 12t-12.5 39v121q0 27 12.5 38t40.5 11z" />
    <glyph glyph-name="bullet" unicode="&#x2022;" horiz-adv-x="559" 
d="M416 705v-297q0 -28 -10.5 -40t-36.5 -12h-176q-26 0 -38 12t-12 40v297q0 53 50 53h176q26 0 36.5 -12.5t10.5 -40.5z" />
    <glyph glyph-name="ellipsis" unicode="&#x2026;" horiz-adv-x="1525" 
d="M393 217v-166q0 -28 -11 -39.5t-38 -11.5h-174q-28 0 -39.5 11.5t-11.5 39.5v166q0 28 11.5 39.5t39.5 11.5h174q27 0 38 -11.5t11 -39.5zM1407 217v-166q0 -28 -11 -39.5t-38 -11.5h-174q-28 0 -39.5 11.5t-11.5 39.5v166q0 28 11.5 39.5t39.5 11.5h174q27 0 38 -11.5
t11 -39.5zM901 217v-166q0 -28 -11 -39.5t-38 -11.5h-174q-28 0 -39.5 11.5t-11.5 39.5v166q0 28 11.5 39.5t39.5 11.5h174q27 0 38 -11.5t11 -39.5z" />
    <glyph glyph-name="perthousand" unicode="&#x2030;" horiz-adv-x="2527" 
d="M137 979v201q0 109 78 169t242 60q319 0 319 -229v-201q0 -229 -319 -229q-164 0 -242 60t-78 169zM557 987v184q0 62 -100 62q-101 0 -101 -62v-184q0 -63 101 -63q100 0 100 63zM1421 219v184q0 62 -98 62q-100 0 -100 -62v-184q0 -63 100 -63q49 0 73.5 14.5
t24.5 48.5zM1004 209v201q0 229 319 229t319 -229v-201q0 -229 -319 -229t-319 229zM2171 219v184q0 62 -100 62q-99 0 -99 -62v-184q0 -63 99 -63q100 0 100 63zM1751 209v201q0 229 322 229q317 0 317 -229v-201q0 -229 -317 -229q-322 0 -322 229zM1341 1339l-655 -1286
q-14 -28 -30.5 -40.5t-43.5 -12.5h-143q-22 0 -28 18t3 35l658 1286q26 54 74 54h141q24 0 30 -16t-6 -38z" />
    <glyph glyph-name="guilsinglleft" unicode="&#x2039;" horiz-adv-x="743" 
d="M559 653l-217 -151l217 -150q17 -12 26.5 -19.5t18 -21.5t8.5 -30v-170q0 -26 -17 -36t-36 3l-381 272q-47 33 -47 70v166q0 22 12 36.5t35 30.5l381 275q20 14 36.5 3.5t16.5 -36.5v-170q0 -22 -13 -38t-40 -34z" />
    <glyph glyph-name="guilsinglright" unicode="&#x203a;" horiz-adv-x="743" 
d="M401 502l-217 151q-27 18 -40 34t-13 38v170q0 26 16.5 36.5t36.5 -3.5l381 -275q15 -10 23 -17.5t16 -21t8 -28.5v-166q0 -37 -47 -70l-381 -272q-19 -13 -36 -3t-17 36v170q0 16 8.5 30t18 21.5t26.5 19.5z" />
    <glyph glyph-name="fraction" unicode="&#x2044;" horiz-adv-x="925" 
d="M909 1339l-655 -1286q-14 -28 -30.5 -40.5t-43.5 -12.5h-143q-22 0 -28 18t3 35l658 1286q26 54 73 54h142q24 0 30 -16t-6 -38z" />
    <glyph glyph-name="Euro" unicode="&#x20ac;" horiz-adv-x="1351" 
d="M188 637h64v113h-64q-51 0 -51 49v71q0 27 12 38.5t39 11.5h64v155q0 54 14 101t49 90.5t88.5 74.5t137.5 49.5t192 18.5t192 -18.5t137.5 -49.5t88.5 -74.5t49 -90.5t14 -101v-98q0 -28 -10.5 -39.5t-36.5 -11.5h-170q-28 0 -39.5 11.5t-11.5 39.5v49q0 154 -209 154
q-207 0 -207 -154v-106h201q28 0 39.5 -11t11.5 -39v-71q0 -26 -11.5 -37.5t-39.5 -11.5h-201v-113h201q28 0 39.5 -10.5t11.5 -36.5v-72q0 -28 -11.5 -39.5t-39.5 -11.5h-201v-100q0 -154 207 -154q209 0 209 154v77q0 28 11.5 40t39.5 12h170q26 0 36.5 -12t10.5 -40v-127
q0 -54 -14 -101t-49 -90.5t-88.5 -74t-137.5 -49t-192 -18.5t-192 18.5t-137.5 49t-88.5 74t-49 90.5t-14 101v150h-64q-27 0 -39 12t-12 39v72q0 26 12 36.5t39 10.5z" />
    <glyph glyph-name="afii61289" unicode="&#x2113;" horiz-adv-x="1167" 
d="M221 297v68q-40 -19 -71 -31q-48 -18 -66 22l-55 129q-12 24 -6 40t34 28q2 1 36.5 16.5t73.5 33.5t54 26v442q0 67 24 125t72 106t129.5 75.5t188.5 27.5q102 0 179 -27.5t122.5 -75.5t67.5 -106t22 -125q0 -66 -20.5 -127.5t-60.5 -114t-87.5 -98t-113 -88.5
t-123.5 -75.5t-132 -69.5v-136q0 -143 156 -143h232q28 0 40.5 -11t12.5 -38v-121q0 -26 -11.5 -37.5t-39.5 -11.5h-236q-219 0 -320.5 81t-101.5 216zM489 1036v-274q285 158 285 291q0 63 -37 98t-106 35q-142 0 -142 -150z" />
    <glyph glyph-name="trademark" unicode="&#x2122;" horiz-adv-x="1886" 
d="M1743 1350v-750q0 -24 -9 -33.5t-32 -9.5h-135q-23 0 -32 9.5t-9 33.5v377q-16 -49 -21 -57l-88 -195q-20 -41 -55 -41h-96q-38 0 -58 41l-94 199q-10 22 -20 63v-387q0 -24 -9 -33.5t-32 -9.5h-127q-23 0 -33 10t-10 33v750q0 23 10 33t33 10h127q27 0 37 -19l192 -375
l31 -69q14 38 28 65l187 379q10 19 39 19h135q23 0 32 -9.5t9 -33.5zM186 1393h562q23 0 33 -8.5t10 -30.5v-109q0 -23 -9.5 -32t-33.5 -9h-166v-604q0 -24 -9 -33.5t-32 -9.5h-146q-23 0 -32 9.5t-9 33.5v604h-168q-25 0 -34 9t-9 32v109q0 22 9 30.5t34 8.5z" />
    <glyph glyph-name="uni2126" unicode="&#x2126;" horiz-adv-x="819" 
d="M131 655q0 116 81.5 198.5t195.5 82.5q115 0 196.5 -82.5t81.5 -198.5q0 -114 -81.5 -195t-196.5 -81q-114 0 -195.5 81t-81.5 195zM170 655q0 -99 69 -167t169 -68q99 0 168 68t69 167t-69.5 169.5t-167.5 70.5q-99 0 -168.5 -70.5t-69.5 -169.5z" />
    <glyph glyph-name="estimated" unicode="&#x212e;" horiz-adv-x="1705" 
d="M1550 696q0 -20 -8 -26t-29 -6h-1097v-441q183 -168 426 -168q156 0 271 58.5t216 167.5q10 10 25 10q12 0 22 -11t10 -26t-16 -35q-93 -109 -233 -172t-295 -63q-146 0 -277 52.5t-227 145t-152.5 226.5t-56.5 288q0 145 56.5 277t152 227.5t227.5 152t277 56.5
q144 0 275 -56.5t226 -152t151 -227.5t56 -277zM842 1337q-242 0 -426 -172v-438h854v438q-187 172 -428 172z" />
    <glyph glyph-name="partialdiff" unicode="&#x2202;" horiz-adv-x="819" 
d="M176 383v559q0 18 11.5 26t28 5.5t32.5 -12.5l424 -263q20 -12 20 -34.5t-20 -34.5l-424 -262q-16 -9 -32.5 -12t-28 4t-11.5 24z" />
    <glyph glyph-name="uni2206" unicode="&#x2206;" horiz-adv-x="819" 
d="M225 895h371q49 0 49 -51v-371q0 -28 -11.5 -39.5t-37.5 -11.5h-371q-28 0 -40.5 12t-12.5 39v371q0 51 53 51z" />
    <glyph glyph-name="product" unicode="&#x220f;" horiz-adv-x="819" 
d="M690 399h-559q-18 0 -25.5 11.5t-5 28.5t12.5 34l262 424q12 20 34.5 20t34.5 -20l263 -424q17 -25 13 -49.5t-30 -24.5z" />
    <glyph glyph-name="summation" unicode="&#x2211;" horiz-adv-x="819" 
d="M643 942v-559q0 -26 -24.5 -28.5t-47.5 12.5l-424 262q-20 12 -20 34.5t20 34.5l424 263q16 10 32.5 12.5t28 -5.5t11.5 -26z" />
    <glyph glyph-name="minus" unicode="&#x2212;" horiz-adv-x="1189" 
d="M172 780h844q28 0 39.5 -11t11.5 -38v-121q0 -28 -11.5 -39.5t-39.5 -11.5h-844q-27 0 -39 12t-12 39v121q0 27 12 38t39 11z" />
    <glyph glyph-name="radical" unicode="&#x221a;" horiz-adv-x="819" 
d="M223 913h373q37 0 53.5 -15.5t16.5 -53.5v-371q0 -38 -16.5 -55t-53.5 -17h-373q-37 0 -53 17t-16 55v371q0 38 16 53.5t53 15.5zM596 872h-373q-30 0 -30 -28v-371q0 -15 8 -24t22 -9h373q29 0 29 33v371q0 28 -29 28z" />
    <glyph glyph-name="infinity" unicode="&#x221e;" horiz-adv-x="819" 
d="M96 707l264 264q24 24 50 24q25 0 49 -24l264 -264q25 -25 25 -50q0 -27 -25 -49l-264 -262q-29 -29 -49 -29q-21 0 -50 29l-264 262q-26 23 -26 49q0 24 26 50zM389 942l-262 -262q-12 -12 -12 -25q0 -8 10 -18l264 -264q11 -11 21 -11q9 0 20 11l264 264q11 11 11 18
q0 12 -13 25l-262 262q-8 8 -20 8q-13 0 -21 -8z" />
    <glyph glyph-name="integral" unicode="&#x222b;" horiz-adv-x="819" 
d="M47 655q0 151 105.5 258t255.5 107t256 -107t106 -258t-105.5 -255.5t-256.5 -104.5t-256 104.5t-105 255.5z" />
    <glyph glyph-name="approxequal" unicode="&#x2248;" horiz-adv-x="1032" 
d="M354 766q-16 0 -26 -10t-12.5 -20t-6.5 -34l-2 -12q-4 -27 -16.5 -36t-38.5 -9h-88q-47 0 -41 57l8 99q7 91 57 135.5t115 44.5q55 0 111 -23l184 -84q58 -26 82 -26q20 0 27 13.5t14 49.5l2 11q4 26 16.5 35.5t38.5 9.5h88q27 0 36.5 -15t6.5 -45l-10 -84
q-11 -97 -58.5 -144.5t-109.5 -47.5q-59 0 -125 28l-186 86q-44 21 -66 21zM354 379q-16 0 -26 -10t-12.5 -20t-6.5 -34l-2 -12q-4 -27 -16.5 -36t-38.5 -9h-88q-47 0 -41 57l8 99q7 91 57 135.5t115 44.5q55 0 111 -23l184 -84q58 -26 82 -26q20 0 27 13.5t14 49.5l2 11
q4 26 16.5 35.5t38.5 9.5h88q27 0 36.5 -15t6.5 -45l-10 -84q-11 -97 -58.5 -144.5t-109.5 -47.5q-59 0 -125 28l-186 86q-44 21 -66 21z" />
    <glyph glyph-name="notequal" unicode="&#x2260;" horiz-adv-x="1189" 
d="M172 979h410l43 113q9 28 23.5 40.5t41.5 12.5h158q53 0 35 -53l-43 -113h176q28 0 39.5 -11.5t11.5 -37.5v-123q0 -27 -11.5 -38t-39.5 -11h-258l-74 -199h332q28 0 39.5 -10.5t11.5 -36.5v-123q0 -28 -11.5 -39.5t-39.5 -11.5h-414l-41 -113q-17 -51 -67 -51h-158
q-24 0 -33 13.5t0 37.5l41 113h-172q-27 0 -39 12t-12 39v123q0 26 12 36.5t39 10.5h254l74 199h-328q-27 0 -39 11t-12 38v123q0 49 51 49z" />
    <glyph glyph-name="lessequal" unicode="&#x2264;" horiz-adv-x="1071" 
d="M897 1024l-514 -156l514 -155q26 -9 38.5 -20.5t12.5 -35.5v-163q0 -30 -13 -45t-38 -5l-729 275q-17 6 -25 10.5t-15 16t-7 28.5v191q0 24 11.5 35t35.5 20l729 272q25 9 38 -5.5t13 -43.5v-162q0 -26 -12 -37t-39 -20zM174 362h723q28 0 39.5 -11t11.5 -38v-120
q0 -28 -11.5 -39t-39.5 -11h-723q-28 0 -40.5 11.5t-12.5 38.5v120q0 27 12.5 38t40.5 11z" />
    <glyph glyph-name="greaterequal" unicode="&#x2265;" horiz-adv-x="1071" 
d="M688 868l-516 156q-27 9 -39 20t-12 37v164q0 29 13.5 43.5t37.5 5.5l731 -272q24 -9 34.5 -20.5t10.5 -36.5v-191q0 -13 -3 -22.5t-10.5 -15.5t-13.5 -9t-18 -8l-731 -275q-25 -9 -38 5.5t-13 44.5v163q0 26 12.5 37.5t38.5 20.5zM172 362h725q28 0 39.5 -11t11.5 -38
v-123q0 -26 -11.5 -37.5t-39.5 -11.5h-725q-51 0 -51 49v123q0 27 12 38t39 11z" />
    <glyph glyph-name="lozenge" unicode="&#x25ca;" horiz-adv-x="819" 
d="M111 692l264 264q19 19 35 19q15 0 34 -19l265 -264q16 -13 16 -35q0 -18 -16 -34l-265 -265q-19 -16 -34 -16q-16 0 -35 16l-264 265q-19 19 -19 34q0 19 19 35z" />
    <glyph glyph-name="CR" horiz-adv-x="0" 
 />
    <glyph glyph-name="commaaccent" horiz-adv-x="593" 
d="M209 156v61q0 28 11.5 39.5t39.5 11.5h125q27 0 38 -11.5t11 -39.5v-78q0 -124 -92 -272q-22 -37 -68 -27l-94 23q-50 11 -26 67q4 8 14.5 31t13 29t9.5 24.5t8.5 28.5t5 29t4 38.5t0.5 45.5z" />
    <glyph glyph-name="acute.case" horiz-adv-x="397" 
d="M401 1747l-149 -217q-25 -35 -66 -35h-133q-52 0 -26 51l100 201q23 51 70 51h178q27 0 34 -14.5t-8 -36.5z" />
    <glyph glyph-name="macron.case" horiz-adv-x="397" 
d="M-37 1739h473q27 0 39 -10.5t12 -36.5v-105q0 -27 -12 -39t-39 -12h-473q-27 0 -39 12t-12 39v105q0 26 12 36.5t39 10.5z" />
    <glyph glyph-name="breve.case" horiz-adv-x="397" 
d="M106 1761v-35q0 -43 21 -66.5t72 -23.5t71.5 23.5t20.5 66.5v35q0 23 10 32t35 9h102q25 0 35 -9t10 -32v-28q0 -122 -75 -188t-215 -66q-139 0 -209 65.5t-70 188.5v28q0 23 10 32t35 9h102q25 0 35 -9t10 -32z" />
    <glyph glyph-name="caron.case" horiz-adv-x="397" 
d="M147 1749l52 -94l51 94q26 49 69 49h132q26 0 33.5 -14.5t-7.5 -34.5l-149 -203q-40 -51 -80 -51h-98q-17 0 -32.5 8t-24.5 17.5t-23 27.5l-150 201q-15 20 -7 34.5t34 14.5h131q43 0 69 -49z" />
    <glyph glyph-name="ring.case" horiz-adv-x="397" 
d="M428 1681v-59q0 -68 -58 -114t-171 -46t-171.5 46t-58.5 114v59q0 68 58.5 114t171.5 46t171 -46t58 -114zM281 1640v25q0 61 -82 61t-82 -61v-25q0 -63 82 -63t82 63z" />
    <glyph glyph-name="circumflex.case" horiz-adv-x="397" 
d="M199 1638l-52 -92q-27 -51 -69 -51h-131q-26 0 -34 14.5t7 36.5l150 201q35 51 80 51h98q40 0 80 -51l149 -201q15 -22 7.5 -36.5t-33.5 -14.5h-132q-43 0 -69 51z" />
    <glyph glyph-name="tilde.case" horiz-adv-x="397" 
d="M76 1610q-39 0 -39 -51v-11q0 -26 -13.5 -35.5t-41.5 -9.5h-88q-50 0 -44 60l9 84q7 75 57.5 117t122.5 42q61 0 119 -26l88 -43q64 -31 76 -31q19 0 26 10.5t12 38.5l2 12q4 25 17 35t39 10h88q46 0 43 -59l-6 -80q-6 -78 -53.5 -119t-116.5 -41q-65 0 -131 27l-88 39
q-8 4 -22 10.5t-22 10.5t-17.5 7t-16.5 3z" />
    <glyph glyph-name="dieresis.case" horiz-adv-x="397" 
d="M156 1741v-191q0 -28 -11 -39.5t-39 -11.5h-100q-26 0 -37.5 11.5t-11.5 39.5v191q0 28 11.5 40.5t37.5 12.5h100q27 0 38.5 -12.5t11.5 -40.5zM440 1741v-191q0 -28 -10.5 -39.5t-36.5 -11.5h-100q-27 0 -38 11.5t-11 39.5v191q0 28 11 40.5t38 12.5h100
q26 0 36.5 -12.5t10.5 -40.5z" />
    <glyph glyph-name="dotaccent.case" horiz-adv-x="397" 
d="M336 1718v-168q0 -28 -10.5 -38.5t-38.5 -10.5h-174q-28 0 -39 10.5t-11 38.5v168q0 27 11.5 39t38.5 12h174q27 0 38 -12t11 -39z" />
    <glyph glyph-name="grave.case" horiz-adv-x="397" 
d="M162 1530l-148 215q-15 23 -8 38t35 15h178q47 0 70 -51l98 -201q22 -51 -25 -51h-133q-41 0 -67 35z" />
    <glyph glyph-name="hungarumlaut.case" horiz-adv-x="397" 
d="M530 1747l-141 -203q-31 -49 -76 -49h-125q-26 0 -33 14t7 37l117 201q28 51 77 51h150q27 0 33.5 -14.5t-9.5 -36.5zM203 1747l-113 -201q-14 -27 -27.5 -39t-39.5 -12h-125q-26 0 -35.5 14t0.5 37l86 201q22 51 69 51h150q28 0 37.5 -14.5t-2.5 -36.5z" />
    </font>
</defs>
</svg>
